<svg width="520" height="316" viewBox="0 0 520 316" fill="none" xmlns="http://www.w3.org/2000/svg">
<path d="M240.904 79.283L207.118 85.3224C207.118 85.3224 210.966 99.727 213.93 108.786C216.895 117.846 210.016 121.635 210.123 128.827C210.206 134.374 212.839 139.962 212.839 139.962L250.532 133.11L240.904 79.283Z" fill="#55350F"/>
<path d="M216.817 155.316C218.106 156.809 219.66 158.05 221.401 158.978C223.216 159.728 225.164 160.1 227.128 160.069C231.832 160.201 236.932 159.339 240.205 155.957C244.423 151.597 244.284 144.565 247.591 139.479C247.857 139.018 248.221 138.62 248.656 138.314C249.211 138.012 249.838 137.868 250.469 137.897C254.645 137.858 258.283 140.567 261.566 143.148C263.111 144.211 264.437 145.562 265.472 147.127C266.121 148.393 266.566 149.755 266.789 151.161C268.236 159.152 269.132 167.233 269.47 175.347C269.759 179.822 270.048 184.302 270.027 188.786C269.956 203.559 266.522 218.085 263.108 232.459C262.668 234.311 259.687 236.962 258.002 237.849C258.824 237.803 257.252 238.186 258.002 237.849C248.241 239.163 238.419 239.981 228.575 240.299C224.733 240.358 220.892 240.265 217.052 240.02C216.392 240.011 215.736 239.897 215.111 239.682C214.263 239.275 213.534 238.656 212.995 237.885C207.669 231.173 207.355 221.894 207.389 213.326C207.472 192.379 208.221 171.447 209.634 150.533C209.751 148.807 209.776 146.71 208.533 145.352C210.954 148.941 213.73 152.279 216.817 155.316Z" fill="#2B5581"/>
<path d="M194.863 244.395C194.526 246.529 194.036 248.637 193.398 250.702C192.679 252.723 191.57 254.592 190.913 256.634C188.818 263.142 191.722 270.399 196.36 275.423C200.382 279.762 205.574 282.845 211.309 284.3C215.531 285.203 219.837 285.656 224.155 285.65C236.095 286.055 248.343 286.417 259.656 282.58C263.231 281.337 266.683 279.769 269.97 277.894C271.008 277.4 271.923 276.68 272.647 275.787C273.405 274.479 273.742 272.97 273.613 271.464C273.587 266.402 272.561 261.366 272.805 256.31C272.94 253.51 273.464 250.712 273.206 247.92C272.849 244.749 271.52 241.766 269.403 239.379C267.285 236.993 264.482 235.318 261.376 234.586C258.127 234.085 254.819 234.085 251.57 234.587C243.088 235.402 234.57 235.783 226.05 235.728C217.344 235.672 208.692 234.343 200.029 234.205C197.467 234.164 197.519 234.953 196.703 237.433C195.952 239.715 195.338 242.039 194.863 244.395V244.395Z" fill="#2F2E41"/>
<path d="M244.379 107.624C243.389 101.972 265.96 94.0018 262.674 90.257C258.053 88.4346 261.752 82.6769 257.868 82.7743C258.36 82.6114 262.061 83.092 264.083 87.5049C262.528 91.2466 265.928 89.7518 267.051 94.3668C269.788 100.512 268.551 108.134 269.045 110.956C270.104 117.003 277.006 124.647 274.878 129.427C272.749 134.207 269.267 137.293 265.198 138.006C264.68 138.096 264.162 138.145 263.644 138.159C267.329 136.931 242.562 126.837 244.379 122.198C246.197 117.56 245.369 113.276 244.379 107.624Z" fill="#55350F"/>
<path d="M222.763 119.209C222.547 121.439 221.926 123.583 220.944 125.49C219.684 127.567 217.63 128.754 216.275 130.743C214.235 133.735 214.118 137.946 214.11 141.82C214.102 145.389 214.162 149.195 215.812 152.158C216.987 153.998 218.445 155.548 220.106 156.723C226.294 161.752 232.981 166.872 240.443 167.038C243.534 167.107 246.849 166.144 248.883 163.335C249.762 162.016 250.452 160.53 250.927 158.938C252.835 153.267 253.991 147.269 254.354 141.164C254.629 138.294 254.407 135.386 253.702 132.625C252.795 129.577 250.962 127.069 249.751 124.18C248.319 120.743 247.795 116.86 248.251 113.054C248.311 112.786 248.292 112.501 248.198 112.248C248.098 112.112 247.974 112.006 247.835 111.938C247.695 111.87 247.545 111.842 247.395 111.856L232.601 110.571C231.223 110.489 229.851 110.299 228.493 110.005C227.695 109.809 225.589 108.443 224.828 108.806C223.421 109.479 223.051 117.387 222.763 119.209Z" fill="#FDD1D1"/>
<path d="M160.819 240.281C158.478 239.692 156.066 239.436 153.653 239.519C151.119 239.659 148.643 240.337 146.39 241.508C144.138 242.679 142.161 244.316 140.59 246.311C139.019 248.305 137.891 250.611 137.281 253.075C136.67 255.539 136.591 258.105 137.049 260.602C137.634 263.307 138.589 265.918 139.889 268.361C141.789 272.217 144.068 276.065 147.586 278.537C149.706 279.895 151.988 280.982 154.38 281.77L172.909 288.75C175.634 289.777 178.361 290.804 181.113 291.756C194.943 296.537 209.362 299.403 223.968 300.276C228.413 300.693 232.895 300.466 237.274 299.602C238.333 299.464 239.304 298.939 239.999 298.13C240.353 297.514 240.561 296.826 240.608 296.119L241.748 288.137C242.004 287.025 241.97 285.867 241.651 284.772C240.981 283.485 239.896 282.463 238.572 281.87C226.39 274.873 212.167 271.013 201.913 261.411C199.5 259.15 197.48 255.567 194.547 254.031C191.221 252.29 187.305 251.296 183.867 249.692C176.352 246.184 168.964 242.153 160.819 240.281Z" fill="#2F2E41"/>
<path opacity="0.1" d="M179.319 251.041C185.868 253.093 213.518 267.311 218.258 272.275C217.623 272.504 196.068 260.425 195.422 260.23C189.493 258.602 183.687 256.556 178.048 254.108C176.925 253.588 170.751 251.147 171.031 249.73C171.346 248.131 178.156 250.677 179.319 251.041Z" fill="black"/>
<path d="M261.023 304.416C261.395 304.443 261.764 304.334 262.061 304.11C262.192 303.943 262.288 303.751 262.344 303.545C262.399 303.34 262.414 303.126 262.386 302.916L262.355 292.041C259.149 290.715 255.756 289.897 252.297 289.615L236.278 287.474C236.646 287.523 233.774 294.373 234.214 295.288C234.99 296.9 240.923 298.328 242.598 299.089C248.419 301.735 254.467 304.644 261.023 304.416Z" fill="#FDD1D1"/>
<path d="M210.763 292.004C207.738 292.485 204.362 292.911 202.404 295.266C199.92 298.251 200.977 302.702 202.162 306.401C202.234 306.878 202.402 307.337 202.654 307.748C202.906 308.16 203.239 308.517 203.631 308.797C204.024 309.078 204.469 309.278 204.94 309.383C205.411 309.489 205.899 309.5 206.374 309.414C209.132 309.588 212.068 309.725 214.478 308.372C215.569 307.651 216.62 306.87 217.626 306.032C219.403 304.85 221.357 303.957 223.414 303.386C227.195 302.197 231.088 301.394 235.032 300.992C236.586 300.921 238.124 300.65 239.609 300.185C240.35 299.946 241.027 299.539 241.586 298.997C242.145 298.454 242.571 297.79 242.832 297.056C243.39 295.08 242.242 293.065 241.14 291.332C239.871 289.062 238.223 287.025 236.268 285.31C233.283 282.992 231.807 284.772 228.8 286.255C223.109 289.064 217.029 291.002 210.763 292.004Z" fill="#FDD1D1"/>
<path d="M202.859 294.728L183.654 289.052C181.35 288.25 178.943 287.783 176.507 287.667C175.287 287.617 174.071 287.828 172.939 288.286C171.807 288.743 170.786 289.437 169.944 290.321C168.455 292.069 168.028 294.458 167.657 296.724L166.863 301.571C166.333 304.015 166.183 306.525 166.418 309.015C166.546 310.26 166.956 311.459 167.617 312.522C168.278 313.584 169.173 314.482 170.233 315.147C172.891 316.597 176.148 315.889 179.114 315.282C185.105 314.058 191.199 313.404 197.313 313.331C199.612 313.303 202.023 313.332 204.054 312.255C205.233 311.556 206.224 310.58 206.94 309.411C207.656 308.242 208.075 306.916 208.162 305.549C208.54 301.408 207.16 295.999 202.859 294.728Z" fill="#2F2E41"/>
<path d="M268.571 289.781C271.061 289.345 273.258 287.93 275.644 287.095C279.002 285.919 282.641 285.919 286.198 285.932C287.506 285.813 288.821 286.076 289.982 286.69C291.549 287.734 291.951 289.821 292.217 291.685L293.825 302.929C294.255 305.027 294.299 307.186 293.956 309.299C293.77 310.355 293.305 311.341 292.609 312.155C291.912 312.969 291.01 313.582 289.997 313.929C287.485 314.582 285.023 312.978 282.652 311.924C276.726 309.29 269.837 309.963 263.657 307.995C263.067 307.877 262.508 307.634 262.018 307.284C261.528 306.933 261.118 306.483 260.815 305.962C260.603 305.337 260.528 304.675 260.593 304.019C260.699 300.405 259.937 295.47 261.025 292.015C262.004 288.909 265.792 289.781 268.571 289.781Z" fill="#2F2E41"/>
<path d="M309.212 235.755C313.05 234.793 317.028 234.521 320.96 234.952C324.101 235.298 327.337 236.172 329.63 238.346C332.421 240.992 333.318 245.084 333.393 248.929C333.515 256.587 330.975 264.051 326.206 270.044C325.042 271.56 323.657 272.893 322.098 273.999C320.416 275.052 318.623 275.916 316.752 276.576L275.257 292.942C264.341 297.248 253.386 301.566 242 304.405C241.689 304.555 241.35 304.642 241.005 304.659C240.66 304.677 240.315 304.625 239.99 304.507C239.665 304.389 239.366 304.208 239.113 303.973C238.859 303.738 238.655 303.455 238.512 303.14C234.876 297.947 231.826 292.368 229.418 286.504C229.304 286.365 229.225 286.2 229.188 286.024C229.151 285.847 229.157 285.665 229.206 285.491C229.254 285.318 229.344 285.159 229.467 285.027C229.59 284.896 229.743 284.796 229.913 284.737L259.263 267.873C261.415 266.751 263.421 265.368 265.236 263.757C266.505 262.528 267.543 261.082 268.303 259.487C268.912 258.217 268.968 255.218 269.746 254.279C270.506 253.359 273.109 253.286 274.311 252.924C276.006 252.405 277.667 251.777 279.281 251.045C285.847 248.108 291.693 243.841 297.987 240.402C301.517 238.383 305.289 236.822 309.212 235.755V235.755Z" fill="#2F2E41"/>
<path opacity="0.1" d="M292.574 248.348C287.532 252.136 281.003 255.617 276.005 259.504C274.3 260.83 245.867 276.815 245.465 278.938C250.127 279.724 279.827 258.947 284.076 256.873C288.255 254.653 292.192 252.005 295.825 248.974C296.777 248.235 300.808 246.011 298.077 245.185C296.539 244.72 293.71 247.591 292.574 248.348Z" fill="black"/>
<path d="M223.08 235.427V243.275M247.744 235.427V243.275" stroke="#2A293A" stroke-width="2"/>
<circle cx="235.41" cy="239.911" r="2.24216" fill="#3D3D3D"/>
<path d="M249.985 125.001C251.328 126.381 260.255 127.396 261.963 128.285C263.569 129.027 265.246 129.607 266.967 130.017C273.197 131.815 279.123 134.534 284.547 138.086C285.674 138.745 286.671 139.606 287.487 140.625C288.347 142.024 288.901 143.589 289.113 145.218C290.117 149.327 290.617 153.544 290.602 157.774C290.403 162.256 289.053 166.596 287.713 170.877L282.71 186.875C278.975 198.815 275.216 210.874 274.165 223.341C273.584 230.25 273.842 237.205 274.935 244.052C275.038 244.385 275.068 244.736 275.025 245.082C274.981 245.428 274.865 245.761 274.683 246.058C274.353 246.384 273.919 246.584 273.457 246.622C271.042 247 268.705 245.768 266.517 244.679C259.829 241.35 252.692 239.015 245.33 237.746C248.207 233.589 250.426 229.014 251.911 224.181C252.754 221.112 253.417 217.997 253.899 214.851L256.227 201.389C257.174 196.468 257.84 191.497 258.223 186.501C258.399 184.626 258.29 182.735 257.899 180.893C257.363 179.14 256.651 177.445 255.773 175.835C251.937 167.855 250.137 158.749 251.647 150.025C252.307 146.207 253.591 142.384 253.056 138.546C252.541 134.857 252.053 135.379 251.106 131.727L249.985 125.001Z" fill="#294668"/>
<path d="M219.153 127.803C218.272 129.399 209.063 135.09 209.063 135.09C209.063 135.09 189.261 138.007 182.85 145.921C180.726 148.823 179.262 152.155 178.561 155.682C177.342 160.601 176.691 165.966 178.733 170.604C180.698 175.068 184.835 178.153 187.643 182.14C190.726 186.517 192.113 191.832 193.441 197.019C194.422 200.849 195.411 204.774 195.029 208.709C194.595 213.183 192.43 217.279 191.152 221.589C189.873 225.898 189.653 231.031 192.608 234.417C194.78 236.905 198.185 237.892 201.441 238.447C205.61 239.073 209.815 239.439 214.03 239.543C217.751 239.707 221.853 239.739 224.714 237.353C225.785 236.342 226.636 235.121 227.215 233.766C227.794 232.412 228.088 230.953 228.079 229.48C228.045 226.54 227.755 223.609 227.213 220.719C226.816 217.698 226.664 214.65 226.536 211.606C225.964 197.947 225.886 184.279 226.302 170.603C226.511 167.76 226.372 164.903 225.887 162.094C225.089 158.435 223.111 155.166 221.461 151.804C218.164 145.473 216.998 142.213 217.472 135.09L219.153 127.803Z" fill="#294668"/>
<path d="M182.786 158.538C181.037 162.167 178.113 165.259 177.118 169.162C176.731 170.987 176.565 172.851 176.624 174.715C176.451 177.525 176.729 180.344 177.448 183.065C178.003 184.787 178.907 186.374 179.558 188.062C180.465 190.42 180.869 192.941 180.744 195.465C180.569 198.96 179.381 202.354 179.288 205.853C179.142 211.355 181.688 216.528 184.171 221.44C184.796 219.892 185.752 218.5 186.971 217.36C188.191 216.22 189.644 215.36 191.231 214.841C192.817 214.321 194.498 214.155 196.156 214.353C197.813 214.551 199.407 215.109 200.827 215.987C201.396 215.289 201.665 214.394 201.578 213.497C201.761 207.114 201.938 200.73 202.109 194.346C202.378 184.473 202.634 174.467 200.362 164.855C199.509 160.457 197.606 156.33 194.816 152.826C193.276 151.053 188.047 146.384 185.519 148.37C184.382 149.263 184.648 151.694 184.467 152.925C184.196 154.87 183.629 156.763 182.786 158.538Z" fill="#294668"/>
<path d="M291.113 148.079C291.816 150.696 292.117 153.405 292.006 156.113C292.039 161.631 291.966 167.149 291.786 172.666C291.814 175.496 291.452 178.316 290.711 181.047C290.146 182.823 289.275 184.488 288.691 186.258C286.943 191.563 287.898 197.316 288.048 202.899C288.154 204.706 288 206.519 287.59 208.282C286.668 211.743 284.189 214.54 282.458 217.676C280.815 220.655 279.824 223.994 277.861 226.772C275.898 229.551 272.501 231.753 269.207 230.9C266.712 230.253 264.939 228.045 263.713 225.778C261.037 220.793 260.121 215.051 261.115 209.481C262.346 202.705 266.327 196.693 267.762 189.957C269.734 180.707 266.738 171.162 266.827 161.704C266.786 160.222 266.987 158.743 267.422 157.325C268.347 155.227 269.658 153.321 271.286 151.707C273.153 149.542 274.887 147.266 276.48 144.891C277.549 143.296 279.002 139.194 280.898 138.852C285.132 138.091 290.062 144.809 291.113 148.079Z" fill="#294668"/>
<path opacity="0.1" d="M222.765 119.21C222.549 121.439 221.928 123.584 220.946 125.49C219.686 127.567 217.632 128.754 216.277 130.743C214.237 133.735 214.12 137.946 214.112 141.82C214.104 145.389 214.164 149.196 215.814 152.158C216.989 153.998 218.447 155.548 220.108 156.723C226.296 161.752 232.983 166.872 240.445 167.038C243.536 167.107 246.851 166.144 248.885 163.335C249.764 162.016 250.454 160.53 250.929 158.938C252.837 153.267 253.993 147.269 254.356 141.164C254.631 138.294 254.409 135.386 253.704 132.625C252.797 129.577 250.964 127.069 249.753 124.18C248.321 120.744 247.797 116.861 248.252 113.054C248.313 112.786 248.294 112.501 248.2 112.248C248.1 112.112 247.976 112.006 247.837 111.938C247.697 111.87 247.547 111.842 247.397 111.856L232.603 110.571C231.225 110.489 229.853 110.299 228.495 110.005C227.697 109.809 225.591 108.443 224.83 108.806C223.423 109.479 223.053 117.387 222.765 119.21Z" fill="black"/>
<path opacity="0.1" d="M243.26 126.122C243.044 128.351 223.61 125.204 222.627 127.11C221.368 129.188 219.314 130.375 217.959 132.363C215.919 135.356 215.802 139.567 215.793 143.441C215.786 147.01 215.846 150.816 217.496 153.778C218.671 155.618 220.128 157.168 221.789 158.343C227.978 163.373 234.665 168.493 242.126 168.658C245.218 168.727 248.533 167.764 250.567 164.956C251.445 163.637 252.136 162.151 252.61 160.559C254.518 154.887 255.675 148.889 256.038 142.784C256.312 139.914 256.09 137.007 255.385 134.245C254.479 131.198 252.646 128.69 251.435 125.8C250.003 122.364 249.479 118.481 249.934 114.675C249.994 114.407 249.976 114.122 249.881 113.868C249.782 113.733 249.657 113.627 249.518 113.559C249.379 113.491 249.229 113.463 249.079 113.476L234.284 112.192C232.906 112.109 231.534 111.92 230.177 111.625C229.379 111.43 239.536 115.108 238.776 115.472C237.368 116.144 243.549 124.3 243.26 126.122Z" fill="black"/>
<path d="M257.944 76.5106C253.818 86.0061 247.772 94.5509 236.291 94.0139C224.809 93.4768 216.536 84.7836 216.366 74.5657C216.148 61.5092 226.275 56.459 238.019 57.0624C251.893 57.7752 262.841 65.2418 257.944 76.5106Z" fill="#5C3C16"/>
<path d="M236.535 118.835C250.156 118.835 261.199 104.781 261.199 87.4446C261.199 80.5282 259.441 74.1343 256.463 68.9468C251.977 61.1314 244.161 67.8257 235.974 67.8257C227.402 67.8257 217.477 66.144 215.992 70.0678C213.388 75.0434 211.871 81.0185 211.871 87.4446C211.871 104.781 222.913 118.835 236.535 118.835Z" fill="#FDD1D1"/>
<path d="M230.592 106.96C230.592 106.96 233.296 109.591 235.452 109.579C237.517 109.567 240.136 107.124 240.136 107.124" stroke="#C59898"/>
<path fill-rule="evenodd" clip-rule="evenodd" d="M249.657 86.1089C249.453 86.0914 247.92 85.9641 246.243 85.9275C245.404 85.9091 244.537 85.9137 243.786 85.9647C243.016 86.0171 242.434 86.1151 242.121 86.2511C242.118 86.2526 242.112 86.2552 242.097 86.2646C241.96 86.3508 241.493 86.6507 240.976 87.0534C240.45 87.4633 239.915 87.9485 239.607 88.4014C239.166 89.049 239.028 89.883 239.113 90.8338C239.199 91.7838 239.505 92.8046 239.898 93.773C240.683 95.7089 241.779 97.3437 241.971 97.6228C242.004 97.6713 242.03 97.7146 242.055 97.7596C243.14 99.7173 245.75 100.89 248.374 100.884C249.762 100.881 250.916 100.862 252.017 100.573C253.099 100.288 254.153 99.7346 255.3 98.6184C256.424 97.5248 257.422 95.6841 257.95 93.7727C258.308 92.4779 258.434 91.2158 258.279 90.1698L258.232 90.1697L258.165 89.617C258.086 89.3229 257.979 89.0522 257.844 88.8102C257.595 88.3629 257.133 87.9661 256.504 87.6231L256.236 87.4848C256.218 87.4762 256.201 87.4677 256.183 87.4591C255.398 87.0847 254.461 86.8089 253.533 86.6082C251.679 86.2072 249.942 86.1225 249.727 86.1133C249.703 86.1123 249.682 86.111 249.657 86.1089ZM256.403 86.4595C255.572 86.0898 254.636 85.8236 253.745 85.6308C251.809 85.2121 250.006 85.1242 249.769 85.1142C249.758 85.1137 249.752 85.1133 249.742 85.1125C249.53 85.0944 247.973 84.965 246.265 84.9277C245.411 84.9091 244.511 84.9132 243.719 84.967C242.946 85.0196 242.208 85.1226 241.722 85.3342C241.661 85.3608 241.61 85.3896 241.566 85.4177C241.413 85.5136 240.915 85.8334 240.361 86.2648C239.931 86.6006 239.441 87.0237 239.057 87.4767C238.92 87.3672 238.764 87.2478 238.595 87.1269C238.013 86.7118 237.178 86.2108 236.39 86.1447C235.614 86.0797 234.688 86.4021 234.02 86.6904C233.673 86.8404 233.368 86.9935 233.151 87.1088C233.042 87.1667 232.954 87.2154 232.893 87.25C232.862 87.2673 232.838 87.2811 232.821 87.2908L232.802 87.3022L232.796 87.3054L232.795 87.3064L232.794 87.3067L232.794 87.3068C232.794 87.3069 232.794 87.3069 233.05 87.7366C233.305 88.1662 233.305 88.1662 233.305 88.1662L233.306 88.1659L233.309 88.164L233.324 88.1554C233.337 88.1475 233.358 88.1356 233.385 88.1203C233.439 88.0897 233.519 88.0454 233.619 87.9923C233.82 87.8858 234.1 87.7453 234.417 87.6085C235.078 87.3231 235.801 87.0988 236.307 87.1412C236.801 87.1826 237.441 87.5323 238.014 87.9411C238.047 87.9645 238.079 87.9878 238.111 88.0111L238.088 88.0508C237.988 88.2246 237.853 88.4608 237.715 88.7092C237.578 88.9568 237.435 89.22 237.32 89.447C237.217 89.6518 237.104 89.8864 237.065 90.0456C237.034 90.1728 237.044 90.297 237.055 90.3796C237.067 90.4724 237.089 90.5702 237.116 90.6661C237.168 90.8586 237.248 91.0821 237.34 91.3124C237.525 91.7751 237.774 92.3062 238.004 92.7503C238.119 92.9727 238.231 93.1778 238.331 93.3447C238.422 93.4979 238.524 93.6575 238.618 93.7583C238.642 93.7847 238.686 93.8286 238.745 93.8672C238.761 93.878 238.811 93.9106 238.885 93.9333C238.913 94.0057 238.942 94.0777 238.971 94.1491C239.797 96.1843 240.94 97.8886 241.146 98.1885C241.157 98.2052 241.167 98.2206 241.18 98.2446C242.5 100.625 245.526 101.891 248.377 101.884C249.748 101.881 251.027 101.867 252.271 101.54C253.533 101.208 254.737 100.562 255.997 99.3352C257.281 98.0862 258.352 96.072 258.914 94.0392C259.296 92.6591 259.461 91.2031 259.254 89.9333L259.45 88.3681C259.552 87.5511 258.977 86.8045 258.161 86.6951L256.403 86.4595ZM238.091 90.439C238.087 90.4264 238.084 90.4141 238.08 90.4021C238.062 90.3352 238.052 90.2865 238.047 90.2543C238.054 90.2357 238.066 90.2076 238.083 90.1685C238.086 90.162 238.089 90.1553 238.092 90.1486C238.089 90.2451 238.089 90.3419 238.091 90.439ZM238.044 90.2267C238.044 90.2267 238.044 90.2277 238.044 90.2298L238.044 90.2267Z" fill="#F2C0C0"/>
<path fill-rule="evenodd" clip-rule="evenodd" d="M222.771 85.9472C222.975 85.9332 224.496 85.8324 226.159 85.8238C226.991 85.8194 227.85 85.8383 228.593 85.9012C229.356 85.9658 229.931 86.0725 230.238 86.2122C230.241 86.2136 230.247 86.2164 230.262 86.226C230.397 86.3141 230.855 86.6191 231.36 87.0267C231.874 87.4416 232.396 87.9309 232.694 88.3842C233.119 89.0323 233.243 89.8601 233.142 90.8005C233.042 91.7402 232.722 92.7465 232.317 93.6997C231.507 95.6054 230.394 97.2079 230.198 97.4826C230.164 97.5304 230.138 97.5733 230.112 97.618C229.004 99.5389 226.399 100.658 223.799 100.609C222.423 100.582 221.28 100.545 220.194 100.24C219.126 99.9406 218.091 99.3745 216.972 98.2495C215.877 97.1472 214.918 95.3066 214.426 93.4034C214.093 92.1138 213.989 90.861 214.16 89.8273L214.203 89.8279L214.275 89.3058C214.359 89.0065 214.471 88.7321 214.613 88.4882C214.908 87.9781 215.488 87.54 216.28 87.1779C217.063 86.8198 217.997 86.5619 218.92 86.3784C220.764 86.0114 222.487 85.956 222.702 85.9504C222.725 85.9498 222.746 85.9489 222.771 85.9472ZM216.078 86.1743C216.907 85.822 217.839 85.5738 218.725 85.3976C220.651 85.0143 222.44 84.9569 222.676 84.9508C222.687 84.9505 222.693 84.9502 222.703 84.9495C222.914 84.935 224.46 84.8325 226.154 84.8238C227 84.8194 227.893 84.8383 228.678 84.9048C229.443 84.9696 230.173 85.0839 230.652 85.302C230.713 85.3296 230.763 85.3593 230.807 85.3881C230.958 85.4862 231.447 85.8117 231.988 86.2484C232.408 86.5873 232.885 87.0131 233.257 87.4669C233.393 87.3616 233.548 87.2471 233.716 87.1314C234.3 86.7294 235.137 86.2458 235.92 86.1933C236.692 86.1415 237.606 86.4769 238.263 86.7738C238.605 86.9283 238.905 87.0851 239.119 87.2031C239.226 87.2623 239.312 87.3121 239.372 87.3474C239.402 87.3651 239.426 87.3792 239.442 87.3891L239.461 87.4007L239.467 87.404L239.468 87.405L239.469 87.4053L239.469 87.4054C239.469 87.4055 239.469 87.4055 239.206 87.8308C238.944 88.2561 238.944 88.2562 238.944 88.2562L238.943 88.2559L238.94 88.254L238.925 88.2451C238.912 88.2371 238.892 88.225 238.865 88.2094C238.812 88.1781 238.734 88.1329 238.636 88.0787C238.438 87.9698 238.163 87.826 237.852 87.6852C237.201 87.3913 236.488 87.1574 235.987 87.191C235.498 87.2238 234.858 87.5593 234.283 87.9551C234.252 87.9769 234.221 87.9986 234.19 88.0203L234.21 88.0572C234.307 88.2312 234.437 88.4676 234.569 88.7162C234.701 88.9639 234.838 89.2273 234.949 89.4544C235.048 89.659 235.156 89.8938 235.192 90.053C235.221 90.1803 235.209 90.3039 235.197 90.3858C235.183 90.4778 235.159 90.5747 235.132 90.6694C235.076 90.8596 234.993 91.08 234.898 91.3069C234.708 91.7628 234.452 92.2853 234.216 92.7219C234.099 92.9406 233.984 93.1421 233.882 93.306C233.789 93.4564 233.685 93.6134 233.59 93.7121C233.565 93.7379 233.521 93.781 233.462 93.8186C233.445 93.8289 233.397 93.8596 233.325 93.881C233.296 93.9515 233.267 94.0216 233.237 94.0911C232.385 96.0953 231.223 97.7665 231.014 98.0619C231.002 98.0784 230.992 98.0937 230.978 98.1175C229.629 100.458 226.607 101.662 223.78 101.609C222.42 101.583 221.152 101.548 219.924 101.203C218.677 100.853 217.494 100.192 216.263 98.9546C215.01 97.6943 213.982 95.6789 213.458 93.6537C213.104 92.2836 212.964 90.8418 213.186 89.5883L213.018 88.0297C212.929 87.2112 213.517 86.4742 214.334 86.3785L216.078 86.1743ZM234.172 90.3867C234.191 90.3229 234.202 90.2762 234.207 90.245C234.2 90.2273 234.19 90.2011 234.175 90.1652C234.175 90.2389 234.175 90.3128 234.172 90.3867ZM234.21 90.217C234.21 90.217 234.21 90.218 234.21 90.2201L234.21 90.217Z" fill="#F2C0C0"/>
<path d="M219.999 89.927C219.999 89.927 222.03 88.1075 223.528 88.2499C224.964 88.3863 226.644 90.3926 226.644 90.3926" stroke="#C59898"/>
<path d="M245.514 90.3251C245.514 90.3251 247.52 88.4769 249.02 88.5979C250.457 88.7139 252.165 90.696 252.165 90.696" stroke="#C59898"/>
<path d="M226.914 63.7156C226.914 63.7156 226.536 62.4449 217.931 64.716C209.325 66.9871 201.093 85.4845 204.793 97.2434C206.284 101.982 207.172 106.476 204.793 108.72C195.866 117.141 207.441 135.229 211.048 136.939C217.19 144.451 222.016 150.255 216.929 143.172C216.929 143.172 210.609 131.232 214.437 121.85C217.754 113.858 218.52 105.245 216.66 96.8583C216.338 95.443 215.964 93.9823 215.533 92.4892C211.875 79.8411 221.961 80.1577 229.294 69.6198C229.294 69.6198 234.853 72.8706 243.262 73.9917C254.472 75.4865 262.325 83.8445 256.608 92.4892C250.892 101.134 244.115 106.571 252.055 118.528C259.995 130.485 241.265 131.674 240.87 140.122C240.474 148.57 246.358 145.994 249.69 149.918C253.935 154.919 244.267 157.363 247.185 163.118C250.255 169.17 255.033 179.373 255.033 179.373C257.729 180.748 254.839 177.448 256.608 174.889C260.244 169.628 257.958 168.2 255.033 164.799C252.108 161.398 261.989 143.304 264.65 140.122C267.311 136.939 280.011 121.009 264.65 108.705C264.65 108.705 259.474 105.789 267.311 97.2434C275.148 88.6978 261.43 63.9815 252.055 59.9782C242.681 55.9748 226.914 63.7156 226.914 63.7156Z" fill="#644624"/>
<path fill-rule="evenodd" clip-rule="evenodd" d="M236.204 85.7827C235.698 85.7403 234.975 85.9646 234.314 86.25C233.997 86.3868 233.717 86.5273 233.517 86.6338C233.416 86.6869 233.337 86.7311 233.283 86.7618C233.255 86.7771 233.235 86.789 233.221 86.7969L233.207 86.8055L233.203 86.8074L233.203 86.8077C233.203 86.8077 233.203 86.8077 232.947 86.378C232.691 85.9484 232.691 85.9484 232.691 85.9483L232.692 85.9482L232.692 85.9479L232.694 85.9469L232.699 85.9437L232.719 85.9323C232.735 85.9226 232.759 85.9088 232.79 85.8915C232.851 85.8569 232.939 85.8082 233.048 85.7503C233.266 85.6349 233.57 85.4819 233.918 85.3319C234.586 85.0436 235.512 84.7212 236.288 84.7862C237.076 84.8523 237.91 85.3533 238.492 85.7684C238.796 85.9851 239.057 86.1974 239.241 86.3554C239.275 86.3844 239.307 86.4117 239.335 86.437C240.121 85.5111 241.464 84.6461 241.724 84.4829C241.754 84.4642 241.782 84.4485 241.815 84.4345C243.412 83.7391 249.177 84.2169 249.593 84.2525C249.61 84.2539 249.623 84.2548 249.641 84.2555C249.971 84.2696 253.606 84.4477 256.103 85.5629L256.251 85.0945L258.058 85.3368C258.874 85.4462 259.45 86.1928 259.347 87.0098L259.122 88.8134L258.677 88.8125C259.063 91.6683 257.535 95.6795 255.542 97.6186C253.133 99.9613 251.028 100.019 248.268 100.026C245.531 100.032 242.713 98.8131 241.51 96.6439C241.491 96.6093 241.473 96.58 241.451 96.5474C241.248 96.2515 240.083 94.514 239.274 92.4709C239.225 92.5148 239.161 92.5532 239.079 92.5772C238.849 92.645 238.674 92.531 238.64 92.5089C238.581 92.4703 238.538 92.4264 238.513 92.4C238.419 92.2993 238.317 92.1396 238.226 91.9864C238.127 91.8195 238.014 91.6144 237.899 91.392C237.669 90.9479 237.42 90.4168 237.235 89.9541C237.143 89.7238 237.064 89.5003 237.011 89.3078C236.985 89.2119 236.962 89.1141 236.95 89.0213C236.939 88.9387 236.929 88.8145 236.961 88.6873C237 88.5281 237.112 88.2935 237.216 88.0887C237.33 87.8617 237.473 87.5985 237.611 87.3509C237.748 87.1025 237.883 86.8663 237.983 86.6925L238.007 86.6514C237.976 86.6286 237.944 86.6056 237.912 86.5826C237.339 86.1738 236.698 85.8241 236.204 85.7827ZM238.741 90.8418C238.536 90.4397 238.322 89.9793 238.164 89.5838C238.079 89.37 238.014 89.1852 237.975 89.0438C237.957 88.9769 237.947 88.9282 237.942 88.896C237.949 88.8774 237.961 88.8493 237.978 88.8102C238.011 88.737 238.055 88.6456 238.108 88.5402C238.214 88.3299 238.35 88.0794 238.485 87.8363C238.594 87.6388 238.702 87.4485 238.792 87.2923C238.793 87.2931 238.794 87.2938 238.795 87.2946C238.351 88.3244 238.424 89.5851 238.741 90.8418ZM237.939 88.8685C237.939 88.8684 237.939 88.8694 237.94 88.8715L237.939 88.8685Z" fill="#EBEBEB" fill-opacity="0.34"/>
<path fill-rule="evenodd" clip-rule="evenodd" d="M249.552 84.7505C249.348 84.733 247.815 84.6057 246.137 84.5691C245.298 84.5508 244.431 84.5553 243.681 84.6064C242.91 84.6587 242.328 84.7567 242.016 84.8927C242.012 84.8942 242.007 84.8968 241.992 84.9062C241.854 84.9924 241.387 85.2923 240.871 85.695C240.345 86.1049 239.809 86.5901 239.501 87.043C239.061 87.6906 238.922 88.5246 239.008 89.4754C239.093 90.4254 239.399 91.4462 239.792 92.4146C240.578 94.3505 241.674 95.9853 241.865 96.2644C241.898 96.3129 241.924 96.3562 241.949 96.4012C243.035 98.3589 245.645 99.5319 248.269 99.5255C249.657 99.5222 250.81 99.5038 251.911 99.2144C252.994 98.93 254.047 98.3762 255.195 97.26C256.319 96.1664 257.317 94.3257 257.845 92.4143C258.203 91.1195 258.328 89.8574 258.173 88.8114L258.126 88.8113L258.059 88.2586C257.98 87.9645 257.874 87.6938 257.739 87.4518C257.49 87.0045 257.027 86.6077 256.399 86.2647L256.131 86.1264C256.113 86.1178 256.095 86.1093 256.077 86.1007C255.293 85.7263 254.356 85.4505 253.428 85.2498C251.574 84.8488 249.837 84.7641 249.621 84.7549C249.598 84.7539 249.577 84.7526 249.552 84.7505ZM256.297 85.1011C255.466 84.7314 254.53 84.4652 253.639 84.2724C251.703 83.8537 249.9 83.7658 249.664 83.7558C249.652 83.7553 249.646 83.7549 249.637 83.7541C249.425 83.736 247.868 83.6066 246.159 83.5693C245.306 83.5507 244.406 83.5548 243.613 83.6086C242.841 83.6612 242.103 83.7642 241.617 83.9758C241.556 84.0024 241.505 84.0312 241.46 84.0593C241.307 84.1552 240.809 84.475 240.256 84.9064C239.825 85.2422 239.335 85.6653 238.952 86.1183C238.815 86.0088 238.659 85.8894 238.49 85.7685C237.908 85.3534 237.073 84.8524 236.285 84.7863C235.509 84.7213 234.583 85.0437 233.915 85.332C233.567 85.482 233.263 85.6351 233.045 85.7504C232.936 85.8083 232.848 85.857 232.787 85.8916C232.757 85.9089 232.733 85.9227 232.716 85.9324L232.696 85.9438L232.691 85.947L232.689 85.948L232.689 85.9483L232.689 85.9484C232.689 85.9485 232.688 85.9485 232.944 86.3782C233.2 86.8078 233.2 86.8078 233.2 86.8078L233.2 86.8075L233.204 86.8056L233.218 86.797C233.232 86.7891 233.253 86.7772 233.28 86.7619C233.334 86.7313 233.414 86.687 233.514 86.6339C233.714 86.5274 233.994 86.3869 234.311 86.2501C234.972 85.9647 235.696 85.7404 236.201 85.7828C236.695 85.8242 237.336 86.1739 237.909 86.5827C237.942 86.6061 237.974 86.6294 238.006 86.6527L237.983 86.6924C237.883 86.8662 237.748 87.1024 237.61 87.3508C237.472 87.5984 237.33 87.8616 237.215 88.0886C237.111 88.2934 236.999 88.528 236.96 88.6872C236.929 88.8144 236.939 88.9386 236.95 89.0212C236.962 89.114 236.984 89.2118 237.01 89.3077C237.063 89.5002 237.143 89.7237 237.235 89.954C237.419 90.4167 237.668 90.9478 237.898 91.3919C238.013 91.6143 238.126 91.8194 238.225 91.9863C238.316 92.1395 238.419 92.2992 238.512 92.3999C238.537 92.4263 238.58 92.4702 238.639 92.5088C238.656 92.5196 238.706 92.5522 238.78 92.5749C238.808 92.6473 238.837 92.7193 238.866 92.7907C239.691 94.8259 240.835 96.5302 241.04 96.8301C241.052 96.8468 241.061 96.8622 241.075 96.8862C242.395 99.267 245.42 100.532 248.271 100.526C249.643 100.522 250.922 100.508 252.165 100.182C253.428 99.8498 254.631 99.2034 255.892 97.9768C257.176 96.7278 258.247 94.7136 258.809 92.6808C259.19 91.3007 259.355 89.8447 259.149 88.5749L259.345 87.0097C259.447 86.1927 258.871 85.4461 258.055 85.3367L256.297 85.1011ZM237.985 89.0806C237.982 89.068 237.978 89.0557 237.975 89.0437C237.956 88.9768 237.946 88.9281 237.942 88.8959C237.949 88.8773 237.96 88.8492 237.978 88.8101C237.98 88.8036 237.983 88.7969 237.986 88.7902C237.984 88.8867 237.983 88.9836 237.985 89.0806ZM237.939 88.8684C237.939 88.8683 237.939 88.8693 237.939 88.8714L237.939 88.8684Z" fill="#7B7771"/>
<path fill-rule="evenodd" clip-rule="evenodd" d="M235.881 85.8327C236.382 85.799 237.094 86.033 237.745 86.3268C238.057 86.4676 238.332 86.6115 238.529 86.7203C238.628 86.7746 238.706 86.8198 238.759 86.851C238.786 86.8667 238.806 86.8788 238.819 86.8868L238.834 86.8956L238.837 86.8976L238.837 86.8978C238.837 86.8978 238.837 86.8978 239.1 86.4725C239.363 86.0472 239.363 86.0471 239.363 86.0471L239.363 86.047L239.362 86.0466L239.361 86.0456L239.355 86.0423L239.336 86.0307C239.32 86.0208 239.296 86.0067 239.266 85.9891C239.206 85.9537 239.12 85.9039 239.012 85.8448C238.799 85.7268 238.499 85.57 238.157 85.4154C237.499 85.1186 236.586 84.7831 235.814 84.8349C235.031 84.8875 234.194 85.3711 233.61 85.7731C233.305 85.9829 233.043 86.1892 232.857 86.3428C232.823 86.3713 232.791 86.3981 232.762 86.4228C231.998 85.4933 230.684 84.6153 230.428 84.4486C230.399 84.4294 230.371 84.4132 230.339 84.3987C228.766 83.6832 223.045 84.0615 222.631 84.09C222.613 84.0911 222.6 84.0917 222.583 84.0922C222.253 84.1007 218.649 84.2174 216.155 85.2811L216.016 84.8108L214.228 85.0202C213.41 85.1159 212.823 85.8529 212.911 86.6714L213.104 88.4551L213.549 88.4616C213.119 91.2866 214.567 95.2883 216.512 97.2436C218.861 99.606 220.947 99.698 223.683 99.7502C226.397 99.802 229.21 98.6398 230.439 96.5093C230.459 96.4751 230.477 96.446 230.5 96.4138C230.706 96.1227 231.889 94.4213 232.724 92.4111C232.773 92.4561 232.836 92.4957 232.917 92.5213C233.147 92.5929 233.324 92.4818 233.358 92.4603C233.417 92.4227 233.461 92.3796 233.486 92.3538C233.581 92.2551 233.685 92.0982 233.778 91.9477C233.88 91.7838 233.995 91.5823 234.112 91.3636C234.348 90.927 234.604 90.4045 234.794 89.9487C234.889 89.7217 234.972 89.5013 235.028 89.3112C235.055 89.2164 235.079 89.1196 235.093 89.0275C235.105 88.9456 235.117 88.822 235.088 88.6947C235.052 88.5356 234.944 88.3007 234.844 88.0961C234.734 87.8691 234.597 87.6056 234.465 87.3579C234.332 87.1093 234.203 86.8729 234.106 86.6989L234.085 86.6608C234.115 86.6395 234.146 86.6181 234.177 86.5967C234.752 86.201 235.392 85.8655 235.881 85.8327ZM233.283 90.7933C233.492 90.3998 233.71 89.95 233.872 89.5629C233.96 89.3524 234.027 89.1705 234.068 89.0311C234.087 88.9659 234.097 88.9183 234.103 88.8867C234.096 88.8683 234.085 88.8406 234.069 88.8022C234.038 88.7293 233.996 88.638 233.945 88.5326C233.843 88.3224 233.713 88.0719 233.583 87.8287C233.478 87.6328 233.375 87.444 233.29 87.2885C233.289 87.2889 233.289 87.2893 233.288 87.2897C233.708 88.3146 233.616 89.5576 233.283 90.7933ZM234.106 88.8587C234.106 88.8587 234.106 88.8597 234.106 88.8619L234.106 88.8587Z" fill="#EBEBEB" fill-opacity="0.34"/>
<path fill-rule="evenodd" clip-rule="evenodd" d="M222.668 84.5888C222.871 84.5748 224.393 84.474 226.056 84.4654C226.888 84.461 227.747 84.4799 228.49 84.5428C229.253 84.6074 229.827 84.7141 230.134 84.8538C230.138 84.8552 230.143 84.858 230.158 84.8676C230.293 84.9557 230.751 85.2607 231.257 85.6683C231.771 86.0832 232.293 86.5725 232.59 87.0258C233.016 87.6739 233.139 88.5017 233.039 89.4421C232.939 90.3818 232.619 91.3881 232.214 92.3413C231.403 94.247 230.29 95.8495 230.095 96.1242C230.061 96.172 230.034 96.2149 230.009 96.2596C228.901 98.1805 226.296 99.2999 223.695 99.2503C222.319 99.2241 221.177 99.1868 220.09 98.8819C219.023 98.5822 217.988 98.0161 216.869 96.8911C215.773 95.7888 214.815 93.9482 214.322 92.045C213.989 90.7554 213.886 89.5026 214.057 88.4689L214.1 88.4695L214.172 87.9474C214.256 87.6481 214.368 87.3737 214.509 87.1298C214.805 86.6197 215.385 86.1816 216.177 85.8195C216.96 85.4614 217.893 85.2036 218.816 85.02C220.66 84.653 222.384 84.5976 222.598 84.592C222.622 84.5914 222.642 84.5905 222.668 84.5888ZM215.975 84.8159C216.804 84.4636 217.735 84.2154 218.621 84.0392C220.548 83.6559 222.337 83.5985 222.572 83.5924C222.584 83.5921 222.59 83.5918 222.599 83.5912C222.81 83.5766 224.356 83.4741 226.05 83.4654C226.897 83.461 227.789 83.4799 228.574 83.5464C229.339 83.6112 230.069 83.7255 230.548 83.9436C230.609 83.9712 230.66 84.0009 230.704 84.0297C230.854 84.1278 231.343 84.4533 231.885 84.8901C232.304 85.2289 232.781 85.6547 233.153 86.1085C233.29 86.0032 233.445 85.8887 233.613 85.773C234.197 85.371 235.033 84.8874 235.817 84.8349C236.588 84.7831 237.502 85.1185 238.16 85.4154C238.502 85.5699 238.801 85.7267 239.015 85.8447C239.122 85.9039 239.209 85.9537 239.269 85.989C239.299 86.0067 239.322 86.0208 239.339 86.0307L239.358 86.0423L239.363 86.0456L239.365 86.0466L239.366 86.0469L239.366 86.047C239.366 86.0471 239.366 86.0471 239.103 86.4724C238.84 86.8977 238.84 86.8978 238.84 86.8978L238.84 86.8975L238.837 86.8956L238.822 86.8867C238.809 86.8787 238.788 86.8666 238.762 86.851C238.709 86.8197 238.63 86.7745 238.532 86.7203C238.335 86.6115 238.06 86.4676 237.748 86.3268C237.097 86.0329 236.385 85.799 235.884 85.8326C235.395 85.8654 234.755 86.2009 234.18 86.5967C234.148 86.6185 234.117 86.6402 234.086 86.6619L234.107 86.6988C234.203 86.8728 234.333 87.1092 234.466 87.3578C234.598 87.6055 234.735 87.8689 234.845 88.096C234.944 88.3006 235.052 88.5355 235.088 88.6946C235.117 88.8219 235.105 88.9455 235.093 89.0274C235.079 89.1195 235.056 89.2163 235.028 89.311C234.973 89.5012 234.89 89.7216 234.795 89.9485C234.604 90.4044 234.348 90.9269 234.113 91.3635C233.995 91.5822 233.88 91.7837 233.779 91.9476C233.686 92.098 233.582 92.255 233.487 92.3537C233.462 92.3795 233.418 92.4226 233.358 92.4602C233.342 92.4705 233.293 92.5012 233.221 92.5226C233.193 92.5931 233.163 92.6632 233.134 92.7327C232.282 94.7369 231.12 96.4081 230.91 96.7035C230.898 96.72 230.889 96.7353 230.875 96.7591C229.525 99.0992 226.503 100.304 223.676 100.25C222.317 100.224 221.048 100.189 219.82 99.8447C218.573 99.4947 217.39 98.8335 216.16 97.5962C214.907 96.3359 213.878 94.3205 213.354 92.2953C213 90.9252 212.86 89.4834 213.083 88.2299L212.914 86.6713C212.825 85.8528 213.413 85.1158 214.231 85.0201L215.975 84.8159ZM234.069 89.0283C234.088 88.9645 234.098 88.9178 234.103 88.8866C234.097 88.8689 234.087 88.8427 234.071 88.8068C234.072 88.8805 234.071 88.9544 234.069 89.0283ZM234.106 88.8586C234.107 88.8586 234.106 88.8596 234.106 88.8617L234.106 88.8586Z" fill="#7B7771"/>
<path d="M256.632 124.44H216.322C214.113 124.44 212.322 126.231 212.322 128.44V178.744C212.322 180.954 214.113 182.744 216.322 182.744H256.632C258.841 182.744 260.632 180.954 260.632 178.744V128.44C260.632 126.231 258.841 124.44 256.632 124.44Z" fill="#96A2AF"/>
<path d="M188.659 232.086C189.675 233.812 191.118 235.248 192.85 236.254C193.986 236.773 195.226 237.026 196.474 236.992C197.723 236.959 198.947 236.64 200.054 236.061C202.264 234.876 204.073 233.062 205.252 230.849C207.692 226.541 208.197 221.385 207.893 216.443C207.588 211.501 206.533 206.635 206.066 201.706C205.727 198.123 205.699 194.518 205.672 190.919C205.587 190.162 205.746 189.398 206.125 188.738C206.777 188.089 207.621 187.668 208.532 187.536C213.456 186.073 216.724 181.457 219.068 176.886C220.632 173.834 221.993 170.497 221.691 167.08C221.389 163.663 218.934 160.221 215.521 159.873C212.708 159.585 210.11 161.372 208.081 163.342C202.962 168.341 199.672 174.916 198.74 182.01C198.294 185.484 198.422 189.053 197.477 192.426C195.46 199.627 189.147 204.042 186.001 210.522C182.535 217.662 184.448 225.768 188.659 232.086Z" fill="#FDD1D1"/>
<path d="M281.555 204.574C280.837 206.244 279.792 207.753 278.481 209.013C277.17 210.272 275.62 211.257 273.923 211.907C271.813 212.755 269.486 212.897 267.288 212.314C266.199 212.011 265.193 211.462 264.35 210.708C263.507 209.954 262.85 209.016 262.428 207.966C262.092 206.909 261.908 205.81 261.881 204.701C261.565 199.845 261.687 194.84 263.451 190.305C264.131 188.556 265.049 186.897 265.586 185.098C266.113 183.021 266.383 180.886 266.389 178.743L266.969 165.493C267.065 164.531 266.999 163.56 266.772 162.62C266.194 160.703 264.402 159.457 262.758 158.313C258.787 155.552 254.864 152.33 252.94 147.893C252.279 146.557 252.042 145.051 252.261 143.577C252.804 140.945 255.459 139.242 258.083 138.668C259.801 138.293 261.576 138.269 263.303 138.598C265.029 138.927 266.672 139.602 268.131 140.582C269.589 141.563 270.835 142.829 271.791 144.303C272.748 145.778 273.396 147.431 273.697 149.163C273.956 150.658 273.953 152.186 274.105 153.696C274.427 156.899 275.444 159.987 276.08 163.143C277.647 170.916 276.835 178.952 278.385 186.724C279.68 193.223 284.566 197.463 281.555 204.574Z" fill="#FDD1D1"/>
<path d="M231.093 172.728L230.844 170.485C230.687 169.068 232.397 168.239 233.412 169.241V169.241C234.47 170.287 236.244 169.338 235.961 167.877L235.847 167.29C235.579 165.908 237.211 164.969 238.287 165.877V165.877C239.419 166.832 241.112 165.731 240.672 164.317L240.64 164.217C240.232 162.909 241.704 161.821 242.835 162.595L243.206 162.849C244.174 163.511 245.446 162.625 245.161 161.488V161.488" stroke="#D4DAE1"/>
<path d="M233.39 176.581L233.141 174.337C232.984 172.92 234.694 172.092 235.709 173.094V173.094C236.767 174.139 238.541 173.19 238.258 171.729L238.144 171.142C237.876 169.76 239.508 168.821 240.584 169.729V169.729C241.716 170.684 243.409 169.583 242.968 168.17L242.937 168.069C242.529 166.761 244.001 165.674 245.131 166.447L245.503 166.701C246.47 167.363 247.743 166.477 247.458 165.34V165.34" stroke="#D4DAE1"/>
<path d="M220.838 127.803L225.692 130.606V136.212L220.838 139.014L215.983 136.212V130.606L220.838 127.803Z" fill="#294668"/>
<path d="M229.809 145.741L234.663 148.543V154.149L229.809 156.952L224.954 154.149V148.543L229.809 145.741Z" fill="#294668"/>
<path d="M225.322 136.772L230.177 139.575V145.18L225.322 147.983L220.468 145.18V139.575L225.322 136.772Z" fill="#2C649C"/>
<path d="M235.542 148.832L239.896 146.318L244.251 148.832V153.86L239.896 156.374L235.542 153.86V148.832Z" fill="#5ED095" stroke="#2A7657"/>
<path d="M235.41 136.772L240.265 139.575V145.18L235.41 147.983L230.556 145.18V139.575L235.41 136.772Z" fill="#243953"/>
<path d="M226.573 130.895L230.928 128.381L235.282 130.895V135.923L230.928 138.437L226.573 135.923V130.895Z" fill="#C6A2F8" stroke="#7F57E0"/>
<path d="M215.36 147.711L219.715 145.197L224.069 147.711V152.739L219.715 155.253L215.36 152.739V147.711Z" fill="#F2C94C" stroke="#3D3D3D"/>
<circle cx="249.986" cy="171.526" r="6.22649" fill="#275F4C" stroke="#1D3D35"/>
</svg>
