<svg width="398" height="471" viewBox="0 0 398 471" fill="none" xmlns="http://www.w3.org/2000/svg">
<g id="ashlyn-banner" clip-path="url(#clip0)">
<path id="Hair-whisp" d="M176.201 82.9127C176.473 80.7462 175.93 78.556 174.677 76.7668C173.425 74.9776 171.551 73.717 169.421 73.2296C169.712 73.2372 170.006 73.2582 170.301 73.2952C172.621 73.5863 174.73 74.7862 176.165 76.631C177.6 78.4758 178.242 80.8143 177.951 83.1322C177.66 85.45 176.459 87.5573 174.612 88.9905C172.766 90.4236 170.425 91.0652 168.105 90.7742C167.81 90.7371 167.52 90.6849 167.236 90.6203C169.421 90.6742 171.548 89.9156 173.204 88.4914C174.861 87.0672 175.929 85.0791 176.201 82.9127Z" fill="#58452A"/>
<path id="dashed" d="M216.503 328.721L216.5 327.692C214.447 327.698 212.362 327.663 210.304 327.587L210.266 328.616C212.338 328.692 214.436 328.727 216.503 328.721ZM222.738 328.582C224.803 328.494 226.897 328.365 228.963 328.195L228.879 327.17C226.826 327.338 224.745 327.467 222.695 327.554L222.738 328.582ZM204.038 328.263L204.117 327.237C202.067 327.08 199.993 326.879 197.951 326.64L197.83 327.663C199.886 327.903 201.974 328.105 204.038 328.263ZM235.168 327.562C237.227 327.309 239.304 327.013 241.343 326.68L241.175 325.664C239.15 325.995 237.087 326.29 235.042 326.54L235.168 327.562ZM191.652 326.814L191.813 325.798C189.787 325.478 187.735 325.111 185.714 324.709L185.512 325.718C187.546 326.124 189.611 326.492 191.652 326.814H191.652ZM247.476 325.55C249.507 325.134 251.554 324.67 253.559 324.174L253.31 323.175C251.318 323.669 249.285 324.129 247.268 324.542L247.476 325.55ZM179.421 324.374L179.665 323.375C177.664 322.891 175.648 322.36 173.675 321.797L173.391 322.787C175.378 323.353 177.407 323.887 179.421 324.374H179.421ZM259.581 322.554C261.571 321.975 263.573 321.348 265.532 320.691L265.203 319.716C263.257 320.368 261.268 320.991 259.292 321.566L259.581 322.554ZM167.43 320.956L167.754 319.979C165.802 319.336 163.837 318.645 161.912 317.923L161.548 318.886C163.486 319.612 165.465 320.309 167.43 320.956H167.43ZM271.419 318.583C273.354 317.845 275.303 317.057 277.212 316.24L276.804 315.294C274.908 316.106 272.972 316.89 271.05 317.622L271.419 318.583ZM155.771 316.587L156.173 315.639C154.283 314.842 152.384 313.996 150.531 313.125L150.09 314.056C151.956 314.933 153.868 315.784 155.771 316.587H155.771ZM282.904 313.664C284.777 312.771 286.655 311.828 288.485 310.862L288.001 309.953C286.183 310.912 284.319 311.849 282.458 312.736L282.904 313.664ZM144.514 311.298L144.992 310.386C143.17 309.439 141.345 308.442 139.568 307.425L139.053 308.317C140.843 309.341 142.68 310.344 144.514 311.298V311.298ZM293.945 307.838C295.742 306.795 297.535 305.705 299.277 304.598L298.722 303.73C296.992 304.83 295.21 305.913 293.425 306.949L293.945 307.838ZM133.715 305.119L134.265 304.248C132.53 303.161 130.79 302.021 129.093 300.86L128.509 301.708C130.217 302.877 131.968 304.025 133.715 305.119V305.119ZM304.473 301.147C306.177 299.966 307.877 298.736 309.525 297.492L308.901 296.672C307.264 297.908 305.576 299.129 303.883 300.303L304.473 301.147ZM123.443 298.092L124.061 297.268C122.42 296.046 120.776 294.771 119.176 293.477L118.525 294.276C120.136 295.578 121.791 296.862 123.443 298.092V298.092ZM314.424 293.638C316.023 292.328 317.617 290.967 319.163 289.593L318.475 288.825C316.94 290.19 315.356 291.542 313.768 292.844L314.424 293.638ZM113.763 290.265L114.446 289.493C112.903 288.139 111.366 286.736 109.879 285.322L109.166 286.067C110.663 287.49 112.21 288.902 113.763 290.265ZM323.735 285.363C325.22 283.933 326.699 282.449 328.132 280.955L327.385 280.244C325.962 281.729 324.492 283.202 323.016 284.623L323.735 285.363ZM104.74 281.687L105.482 280.971C104.053 279.501 102.634 277.979 101.262 276.449L100.492 277.135C101.872 278.675 103.301 280.207 104.74 281.687V281.687ZM332.348 276.377C333.719 274.826 335.075 273.23 336.376 271.634L335.574 270.986C334.282 272.571 332.935 274.156 331.573 275.696L332.348 276.377ZM96.4292 272.415L97.2268 271.761C95.9165 270.176 94.6232 268.545 93.3823 266.914L92.5593 267.536C93.8083 269.178 95.1107 270.819 96.4292 272.415V272.415ZM340.209 266.737C341.448 265.086 342.67 263.389 343.841 261.691L342.99 261.108C341.827 262.794 340.613 264.481 339.382 266.12L340.209 266.737ZM88.8882 262.505L89.7355 261.917C88.557 260.23 87.3985 258.501 86.293 256.776L85.4224 257.329C86.5355 259.066 87.7016 260.807 88.8882 262.505ZM347.267 256.505C348.368 254.763 349.448 252.974 350.479 251.188L349.584 250.675C348.56 252.449 347.486 254.226 346.393 255.957L347.267 256.505ZM82.1669 252.018L83.0588 251.5C82.0191 249.723 81.0041 247.905 80.0416 246.096L79.1293 246.579C80.098 248.399 81.1201 250.229 82.1669 252.018V252.018ZM353.474 245.747C354.43 243.923 355.362 242.055 356.245 240.193L355.311 239.753C354.434 241.603 353.508 243.459 352.558 245.271L353.474 245.747ZM76.3138 241.02L77.2453 240.575C76.3552 238.724 75.4901 236.83 74.6751 234.943L73.7263 235.35C74.547 237.249 75.4176 239.157 76.3138 241.02ZM358.788 234.534C359.595 232.636 360.372 230.7 361.098 228.78L360.132 228.417C359.411 230.324 358.639 232.248 357.837 234.133L358.788 234.534ZM71.3705 229.578L72.335 229.21C71.5965 227.288 70.8881 225.328 70.2306 223.386L69.2524 223.715C69.9139 225.67 70.6269 227.643 71.3705 229.578V229.578ZM363.179 222.92C363.83 220.962 364.449 218.963 365.02 216.981L364.027 216.698C363.46 218.666 362.845 220.651 362.199 222.596L363.179 222.92ZM67.3792 217.785L68.3707 217.496C67.7944 215.535 67.2498 213.53 66.7515 211.537L65.7498 211.786C66.2511 213.792 66.7993 215.811 67.3792 217.785ZM366.617 210.973C367.106 208.967 367.561 206.926 367.968 204.905L366.955 204.703C366.551 206.71 366.1 208.738 365.613 210.73L366.617 210.973ZM64.3653 205.726L65.3772 205.518C64.9622 203.515 64.5823 201.473 64.2478 199.448L63.2287 199.615C63.5652 201.653 63.9477 203.709 64.3653 205.726V205.726ZM369.072 198.788C369.396 196.756 369.684 194.685 369.927 192.632L368.901 192.512C368.66 194.551 368.374 196.608 368.052 198.627L369.072 198.788ZM62.3401 193.462L63.3654 193.337C63.1132 191.3 62.8991 189.234 62.73 187.196L61.7006 187.281C61.8712 189.333 62.0863 191.413 62.3401 193.462V193.462ZM370.533 186.447C370.693 184.391 370.813 182.303 370.89 180.242L369.858 180.203C369.781 182.251 369.662 184.325 369.503 186.368L370.533 186.447ZM61.309 181.079L62.3407 181.035C62.2533 178.985 62.2051 176.908 62.1984 174.863L62.1978 174.522L61.165 174.525L61.1656 174.864C61.1724 176.925 61.2206 179.015 61.309 181.079V181.079ZM369.967 174.03L371 174.027L370.999 173.854C370.993 171.847 370.947 169.814 370.863 167.815L369.831 167.858C369.914 169.844 369.96 171.863 369.966 173.86L369.967 174.03ZM62.3137 168.35C62.3922 166.307 62.5134 164.233 62.6752 162.187L61.6452 162.106C61.483 164.166 61.3608 166.253 61.2818 168.311L62.3137 168.35ZM369.449 161.696L370.479 161.612C370.31 159.552 370.096 157.472 369.846 155.429L368.82 155.554C369.07 157.583 369.281 159.65 369.449 161.696ZM63.2834 156.043C63.5259 154.012 63.8136 151.955 64.1398 149.929L63.1196 149.766C62.7919 151.806 62.5017 153.877 62.2582 155.921L63.2834 156.043ZM367.945 149.443L368.964 149.277C368.63 147.24 368.25 145.183 367.834 143.164L366.822 143.371C367.235 145.377 367.613 147.419 367.945 149.443H367.945ZM65.2434 143.854C65.6513 141.842 66.1051 139.815 66.5923 137.828L65.5889 137.584C65.0983 139.583 64.6415 141.625 64.2311 143.65L65.2434 143.854ZM365.454 137.35L366.457 137.103C365.959 135.101 365.413 133.082 364.833 131.101L363.842 131.389C364.417 133.357 364.96 135.362 365.454 137.35ZM68.1849 131.862C68.7533 129.895 69.3701 127.911 70.0193 125.966L69.0389 125.641C68.3857 127.6 67.7645 129.597 67.1925 131.578L68.1849 131.862ZM361.988 125.498L362.967 125.17C362.307 123.213 361.597 121.239 360.856 119.304L359.891 119.671C360.627 121.593 361.333 123.554 361.988 125.498V125.498ZM72.093 120.148C72.8205 118.231 73.5948 116.309 74.3946 114.434L73.4442 114.032C72.639 115.919 71.8591 117.854 71.1266 119.783L72.093 120.148ZM357.557 113.935L358.507 113.529C357.689 111.631 356.82 109.722 355.925 107.857L354.993 108.301C355.882 110.154 356.745 112.049 357.557 113.935H357.557ZM76.9268 108.816C77.8048 106.968 78.7327 105.113 79.6849 103.302L78.7705 102.824C77.8113 104.648 76.8769 106.515 75.9934 108.375L76.9268 108.816ZM352.203 102.776L353.116 102.295C352.147 100.47 351.127 98.6388 350.084 96.8521L349.191 97.3695C350.227 99.1442 351.241 100.963 352.203 102.776ZM82.6657 97.9013C83.6926 96.1265 84.768 94.3507 85.8627 92.6229L84.9894 92.0735C83.8872 93.8129 82.8048 95.6008 81.7708 97.3872L82.6657 97.9013ZM345.964 92.0902L346.835 91.5371C345.721 89.7954 344.557 88.0528 343.375 86.358L342.527 86.9454C343.701 88.629 344.857 90.3597 345.964 92.0902ZM89.2714 87.4752C90.4374 85.7894 91.6533 84.1041 92.8849 82.467L92.0588 81.8497C90.8186 83.4978 89.5948 85.1942 88.4213 86.8916L89.2714 87.4752ZM338.886 81.9436L339.709 81.3228C338.459 79.6763 337.159 78.0334 335.845 76.4393L335.047 77.0926C336.352 78.6759 337.644 80.308 338.886 81.9436V81.9436ZM96.698 77.6057C97.9954 76.0179 99.3438 74.4345 100.704 72.8995L99.9305 72.2181C98.5604 73.7634 97.2035 75.3575 95.8971 76.9561L96.698 77.6057ZM331.016 72.3995L331.787 71.7151C330.411 70.176 328.984 68.6426 327.544 67.1574L326.801 67.8724C328.231 69.3475 329.649 70.8709 331.016 72.3995H331.016ZM104.897 68.3552C106.322 66.873 107.793 65.4015 109.271 63.9812L108.554 63.2404C107.066 64.6703 105.585 66.1516 104.152 67.6436L104.897 68.3552ZM322.409 63.5173L323.123 62.7734C321.628 61.3494 320.083 59.9355 318.53 58.5703L317.847 59.3418C319.389 60.698 320.924 62.1029 322.409 63.5173L322.409 63.5173ZM113.816 59.784C115.355 58.4196 116.94 57.0693 118.528 55.7709L117.873 54.9754C116.275 56.2825 114.679 57.6417 113.13 59.0155L113.816 59.784ZM313.121 55.3524L313.773 54.5544C312.166 53.2519 310.513 51.9662 308.859 50.7324L308.24 51.556C309.883 52.7815 311.525 54.059 313.121 55.3524L313.121 55.3524ZM123.4 51.9485C125.043 50.7111 126.733 49.4914 128.421 48.3231L127.832 47.4779C126.133 48.6539 124.432 49.8818 122.777 51.1275L123.4 51.9485ZM303.211 47.9573L303.797 47.1098C302.091 45.9398 300.34 44.7905 298.594 43.6938L298.044 44.5644C299.778 45.6536 301.517 46.7951 303.211 47.9573ZM133.587 44.9008C135.324 43.7992 137.107 42.7183 138.887 41.6882L138.368 40.7985C136.577 41.8354 134.782 42.9236 133.032 44.0325L133.587 44.9008ZM292.745 41.3821L293.26 40.49C291.471 39.464 289.634 38.459 287.802 37.5035L287.323 38.415C289.143 39.3643 290.967 40.3625 292.745 41.3821V41.3821ZM144.314 38.6903C146.135 37.7322 148.001 36.7978 149.86 35.9131L149.415 34.9845C147.543 35.875 145.664 36.8157 143.832 37.7804L144.314 38.6903ZM281.788 35.6697L282.229 34.7392C280.364 33.8606 278.454 33.0071 276.551 32.2023L276.148 33.1495C278.038 33.9488 279.935 34.7966 281.788 35.6697L281.788 35.6697ZM155.517 33.3615C157.412 32.5521 159.349 31.7712 161.274 31.0398L160.906 30.0783C158.968 30.8145 157.018 31.6009 155.11 32.4156L155.517 33.3615ZM270.412 30.8593L270.777 29.8964C268.842 29.1686 266.864 28.47 264.898 27.8199L264.573 28.7968C266.526 29.4424 268.49 30.1365 270.412 30.8593ZM167.124 28.9525C169.073 28.3013 171.062 27.681 173.037 27.109L172.748 26.1211C170.761 26.6969 168.758 27.3212 166.796 27.9768L167.124 28.9525ZM258.653 26.9715L258.938 25.9827C256.95 25.4133 254.922 24.8768 252.909 24.3876L252.664 25.3874C254.664 25.8733 256.678 26.4064 258.653 26.9715ZM179.02 25.5062C181.013 25.0151 183.046 24.5575 185.064 24.1462L184.857 23.1379C182.826 23.552 180.778 24.0129 178.772 24.5071L179.02 25.5062ZM246.617 24.0471L246.821 23.0385C244.795 22.632 242.729 22.2609 240.682 21.9352L240.519 22.9512C242.553 23.275 244.604 23.6436 246.617 24.0471ZM191.158 23.0309C193.188 22.7017 195.252 22.4091 197.292 22.1617L197.167 21.1401C195.113 21.3892 193.035 21.6837 190.992 22.0154L191.158 23.0309ZM234.383 22.1014L234.504 21.0795C232.449 20.8369 230.361 20.6325 228.297 20.4724L228.217 21.4982C230.267 21.6576 232.341 21.8604 234.383 22.1014V22.1014ZM203.456 21.5387C205.503 21.373 207.584 21.2461 209.641 21.1618L209.598 20.1333C207.528 20.2185 205.433 20.3461 203.373 20.5129L203.456 21.5387ZM222.031 21.1412L222.07 20.113C220.004 20.0348 217.906 19.997 215.833 20.0002L215.835 21.0293C217.894 21.0261 219.979 21.0637 222.031 21.1412V21.1412Z" fill="#74B9E9"/>
<path id="background" d="M-5.42694e-05 267.181L84.9904 414.24L117.914 471L124.074 467.413L186.537 431.403L233.166 404.519L265.808 384.802L286.346 85.0979L-5.42694e-05 267.181Z" fill="#405269"/>
<path id="right-hand" d="M219.916 276.182L222.988 317.713C222.988 317.713 219.346 346.229 210.431 334.948C201.517 323.667 211.876 308.167 211.876 308.167L199.195 262.006L219.916 276.182Z" fill="#E1B9B9"/>
<path id="pants" d="M100.668 441.024L118.023 471L127.94 465.238L153.239 349.637L157.072 448.649L188.683 429.849C188.683 429.849 197.98 356.667 197.98 351.621C197.981 342.93 195.743 321.113 195.743 321.113L118.022 280.845C118.022 280.845 106.866 292.49 103.147 314.37C99.4282 336.25 107.486 398.806 107.486 398.806L100.668 441.024Z" fill="#324358"/>
<path id="hair-back-bun" d="M166.515 91.5307C161.651 91.758 157.524 88.0031 157.296 83.1439C157.069 78.2846 160.827 74.1611 165.691 73.9337C170.555 73.7064 174.682 77.4613 174.91 82.3205C175.137 87.1798 171.379 91.3033 166.515 91.5307Z" fill="#58452A"/>
<path id="hair-back-round" d="M144.525 103.28C149.013 114.759 155.557 125.103 167.878 124.527C180.2 123.951 189.027 113.517 189.146 101.194C189.298 85.4481 178.395 79.2936 165.792 79.948C150.903 80.7209 139.197 89.6581 144.525 103.28Z" fill="#4B3B24"/>
<path id="Vector" d="M159.815 118.791L195.777 125.215C195.777 125.215 196.277 141.742 193.273 150.533C190.268 159.325 199.099 160.297 199.099 167.312C199.099 172.722 190.566 178.43 190.566 178.43L150.443 171.151L159.815 118.791Z" fill="#4D3922"/>
<path id="Neck" d="M176.438 141.465C176.438 141.465 173.522 162.434 178.8 171.225C182.894 178.044 190.16 189.209 182.882 191.92C170.46 196.548 133.667 165.634 133.667 165.634C133.667 165.634 152.478 163.909 153.801 155.567C156.038 141.465 151.837 142.115 149.886 138.229L176.438 141.465Z" fill="#F8C4C4"/>
<path id="Neck_2" d="M176.768 165.815C176.768 165.815 174.737 165.808 173.362 158.575C171.986 151.341 173.323 145.561 173.323 145.561L176.03 145.57C176.03 145.57 175.379 154.243 176.074 160.029C176.768 165.815 176.768 165.815 176.768 165.815Z" fill="#E2B3B3"/>
<g id="Head">
<path id="Vector_2" d="M169.526 147.571C154.353 148.281 141.427 135.472 140.654 118.963C139.881 102.454 151.555 88.4959 166.727 87.7867C181.9 87.0774 194.826 99.8858 195.598 116.395C196.371 132.904 184.698 146.862 169.526 147.571Z" fill="#FDC8C8"/>
</g>
<path id="Neck_3" d="M167.295 164.849L164.588 165.911C154.437 164.849 144.963 169.196 144.963 169.196L142.933 158.086L157.82 162.82L167.295 164.849Z" fill="#EDBBBB"/>
<path id="Neck_4" d="M170.686 164.889L172.809 166.877C182.634 169.639 185.116 173.464 185.116 173.464L185.677 169.549L176.767 165.815L170.686 164.889Z" fill="#EDBBBB"/>
<path id="shirt-left" d="M128.016 160.171L115.209 156.686C115.209 156.686 76.0604 188.564 76.0604 200.746C76.0604 212.927 86.3642 232.251 85.0087 232.188C92.9551 233.353 111.09 222.71 110.428 220.38C109.766 218.05 102.977 200.746 102.977 200.746L128.016 184.516V160.171Z" fill="#357BB9"/>
<path id="hair-back" d="M144.772 137.435C145.968 130.616 134.977 117.613 138.944 113.096C144.523 110.897 140.058 103.951 144.746 104.068C144.152 103.872 139.685 104.452 137.243 109.775C139.12 114.29 135.016 112.486 133.66 118.054C130.356 125.467 131.849 134.663 131.253 138.067C129.974 145.362 121.642 154.585 124.211 160.351C126.781 166.118 130.984 169.841 135.897 170.7C136.522 170.81 137.148 170.869 137.773 170.886C133.324 169.404 129.646 165.485 127.452 159.889C125.258 154.293 143.577 144.254 144.772 137.435Z" fill="#4D3922"/>
<path id="Vector_3" d="M188.463 169.982C188.463 169.982 195.16 174.655 200.175 189.246C212.141 224.058 228.84 288.685 225.382 288.779C214.422 295.349 201.941 295.5 201.941 295.5C195.227 254.28 181.956 219.045 188.463 169.982Z" fill="#316796"/>
<path id="shirt-middle" d="M126.387 152.211C132.013 152.211 150.579 160.194 150.579 160.194C151.728 162.367 169.204 182.012 175.331 182.012C181.457 182.012 177.057 165.155 177.057 165.155C177.057 165.155 188.654 168.176 190.52 171.901C192.386 175.626 202.241 205.711 201.338 214.291C200.219 224.918 191.757 231.07 190.52 236.291C188.336 245.51 191.624 267.698 194.625 287.557C196.993 303.228 206.371 319.436 202.897 327.289C189.099 330.549 157.084 345.633 144.435 329.333C131.787 313.033 120.742 298.148 106.944 297.061C93.1451 295.974 119.138 252.181 119.138 252.181C119.138 252.181 130.888 243.741 123.574 200.105C118.617 170.522 115.137 156.469 115.137 156.469C115.137 156.469 120.762 152.211 126.387 152.211Z" fill="#357BB9"/>
<path id="postit-hand" d="M135.566 307.011H109.816C108.058 297.613 108.058 288.006 109.816 278.608H135.566C132.665 287.885 132.665 297.733 135.566 307.011Z" fill="#A9D9F6"/>
<path id="left-hand" d="M104.539 218.842L124.617 264.72C124.617 264.72 131.889 298.696 117.285 289.71C102.682 280.724 108.218 258.652 108.218 258.652L83.179 222.722L104.539 218.842Z" fill="#E1B9B9"/>
<path id="shirt sleave" d="M93.709 196.379L82.7651 218.41C82.7651 218.41 90.4968 199.871 86.6082 193.616C84.8769 198.127 77.8781 200.611 77.178 203.31C76.4779 206.01 82.4811 230.361 85.5681 232.393C88.6551 234.425 111.382 222.802 110.735 220.443C110.089 218.085 105.267 207.488 105.267 207.488L94.6991 206.22L93.709 196.379Z" fill="#357BB9"/>
<g id="glasses-shaddow">
<path id="Union" fill-rule="evenodd" clip-rule="evenodd" d="M184.199 111.441C184.002 111.42 182.562 111.27 180.985 111.203C180.195 111.169 179.38 111.156 178.674 111.189C177.947 111.223 177.401 111.303 177.108 111.423C177.106 111.424 177.104 111.424 177.101 111.426C177.097 111.428 177.092 111.431 177.084 111.436C176.949 111.516 176.504 111.789 176.011 112.157C175.509 112.532 175 112.974 174.704 113.39C174.282 113.983 174.135 114.757 174.196 115.648C174.256 116.539 174.522 117.502 174.871 118.42C175.57 120.254 176.567 121.814 176.748 122.089C176.78 122.138 176.805 122.182 176.829 122.228C177.808 124.08 180.232 125.233 182.699 125.279C184.008 125.304 185.092 125.309 186.132 125.059C187.153 124.814 188.153 124.316 189.254 123.29C190.331 122.286 191.306 120.577 191.842 118.79C192.205 117.578 192.347 116.396 192.222 115.413L192.181 115.412L192.131 114.912C192.062 114.628 191.967 114.368 191.843 114.134C191.612 113.698 191.164 113.305 190.545 112.962L190.438 112.904C190.399 112.883 190.358 112.862 190.318 112.841C189.589 112.474 188.714 112.197 187.845 111.989C186.109 111.575 184.475 111.46 184.267 111.447C184.244 111.446 184.224 111.444 184.199 111.441ZM190.562 111.849C189.787 111.485 188.911 111.216 188.077 111.017C186.259 110.583 184.559 110.464 184.331 110.449C184.32 110.448 184.314 110.448 184.305 110.447C184.101 110.425 182.636 110.273 181.027 110.204C180.224 110.169 179.376 110.155 178.627 110.19C177.898 110.224 177.197 110.306 176.73 110.497C176.667 110.522 176.615 110.551 176.57 110.578C176.419 110.668 175.943 110.96 175.413 111.356C175.008 111.658 174.548 112.038 174.18 112.45C174.058 112.349 173.921 112.239 173.772 112.129C173.231 111.726 172.449 111.233 171.699 111.154C170.961 111.076 170.076 111.365 169.44 111.623C169.108 111.758 168.817 111.896 168.61 112.001C168.505 112.053 168.421 112.098 168.363 112.129C168.333 112.145 168.31 112.157 168.294 112.166L168.276 112.177L168.27 112.18L168.269 112.181L168.268 112.181L168.268 112.181C168.268 112.181 168.268 112.181 168.514 112.616C168.761 113.051 168.761 113.051 168.761 113.051L168.761 113.051L168.764 113.049L168.778 113.041C168.791 113.034 168.811 113.024 168.836 113.01C168.888 112.982 168.964 112.942 169.059 112.894C169.25 112.798 169.516 112.672 169.816 112.549C170.445 112.294 171.126 112.099 171.594 112.149C172.051 112.197 172.642 112.534 173.174 112.931C173.197 112.948 173.219 112.964 173.242 112.981L173.232 112.997C173.134 113.159 173.002 113.379 172.867 113.611C172.732 113.841 172.593 114.087 172.479 114.299C172.378 114.489 172.266 114.711 172.225 114.864C172.191 114.988 172.199 115.11 172.207 115.189C172.217 115.279 172.237 115.373 172.26 115.464C172.306 115.648 172.377 115.861 172.459 116.081C172.624 116.521 172.849 117.028 173.057 117.451C173.162 117.663 173.264 117.859 173.354 118.019C173.437 118.165 173.532 118.32 173.621 118.42C173.644 118.446 173.686 118.49 173.743 118.529C173.758 118.54 173.803 118.57 173.868 118.593C173.891 118.655 173.914 118.715 173.937 118.775C174.673 120.71 175.717 122.341 175.911 122.637C175.922 122.655 175.932 122.671 175.945 122.695C177.149 124.975 179.987 126.229 182.68 126.279C183.973 126.303 185.183 126.316 186.366 126.032C187.567 125.743 188.719 125.155 189.936 124.022C191.176 122.866 192.228 120.985 192.8 119.077C193.186 117.788 193.372 116.42 193.205 115.217L193.413 113.797C193.533 112.982 192.973 112.223 192.16 112.097L190.562 111.849Z" fill="#F2C0C0"/>
<path id="Union_2" fill-rule="evenodd" clip-rule="evenodd" d="M158.366 110.905C158.568 110.896 160.081 110.827 161.733 110.854C162.559 110.867 163.411 110.903 164.148 110.981C164.904 111.061 165.472 111.179 165.773 111.324C165.775 111.325 165.778 111.326 165.781 111.328C165.784 111.33 165.789 111.333 165.797 111.338C165.93 111.429 166.378 111.741 166.871 112.156C167.372 112.578 167.88 113.074 168.166 113.53C168.573 114.181 168.679 115.004 168.56 115.934C168.44 116.864 168.102 117.855 167.68 118.792C166.836 120.666 165.697 122.232 165.496 122.502C165.461 122.549 165.434 122.592 165.407 122.636C164.267 124.517 161.658 125.573 159.078 125.469C157.712 125.414 156.578 125.354 155.506 125.028C154.453 124.709 153.438 124.126 152.351 122.986C151.286 121.87 150.373 120.024 149.925 118.125C149.621 116.839 149.545 115.594 149.736 114.572L149.779 114.574L149.863 114.05C149.953 113.758 150.069 113.491 150.213 113.254C150.481 112.813 150.969 112.432 151.627 112.113L151.784 112.039C151.821 112.023 151.857 112.006 151.895 111.99C152.68 111.652 153.612 111.415 154.532 111.252C156.37 110.927 158.083 110.908 158.297 110.907C158.32 110.907 158.341 110.906 158.366 110.905ZM151.713 110.983C152.544 110.651 153.474 110.424 154.358 110.268C156.279 109.928 158.057 109.908 158.292 109.907C158.303 109.907 158.309 109.907 158.319 109.906C158.529 109.896 160.066 109.827 161.749 109.854C162.59 109.867 163.475 109.905 164.253 109.987C165.012 110.067 165.735 110.196 166.206 110.423C166.267 110.452 166.317 110.482 166.36 110.512C166.508 110.613 166.987 110.946 167.515 111.391C167.924 111.736 168.388 112.167 168.748 112.625C168.885 112.523 169.04 112.413 169.209 112.303C169.797 111.916 170.639 111.453 171.419 111.417C172.187 111.382 173.088 111.734 173.735 112.043C174.072 112.203 174.366 112.365 174.576 112.487C174.681 112.548 174.766 112.599 174.825 112.636C174.854 112.654 174.877 112.668 174.893 112.678L174.912 112.69L174.917 112.694L174.919 112.695L174.92 112.695L174.92 112.695C174.92 112.695 174.92 112.695 174.648 113.115C174.376 113.535 174.376 113.535 174.377 113.535L174.376 113.535L174.373 113.533L174.359 113.523C174.346 113.515 174.326 113.503 174.3 113.487C174.248 113.455 174.171 113.408 174.074 113.352C173.881 113.24 173.611 113.092 173.304 112.945C172.664 112.64 171.962 112.394 171.465 112.416C170.98 112.439 170.337 112.758 169.758 113.138C169.728 113.158 169.698 113.179 169.668 113.199L169.686 113.233C169.778 113.408 169.902 113.645 170.029 113.895C170.155 114.143 170.285 114.408 170.39 114.635C170.484 114.84 170.587 115.076 170.619 115.235C170.645 115.363 170.631 115.486 170.617 115.567C170.602 115.659 170.576 115.754 170.546 115.848C170.487 116.036 170.4 116.253 170.301 116.476C170.102 116.925 169.837 117.438 169.594 117.866C169.472 118.081 169.354 118.279 169.25 118.439C169.154 118.587 169.047 118.74 168.951 118.837C168.925 118.862 168.881 118.904 168.82 118.94C168.804 118.95 168.754 118.98 168.681 119C168.652 119.068 168.622 119.136 168.592 119.203C167.703 121.174 166.514 122.809 166.299 123.098C166.287 123.115 166.277 123.13 166.262 123.153C164.872 125.449 161.844 126.581 159.037 126.468C157.688 126.414 156.429 126.353 155.216 125.985C153.984 125.612 152.823 124.93 151.627 123.676C150.408 122.399 149.429 120.377 148.951 118.355C148.628 116.987 148.519 115.551 148.768 114.31L148.634 112.772C148.563 111.952 149.166 111.227 149.986 111.149L151.713 110.983ZM169.599 115.528C169.615 115.474 169.625 115.434 169.63 115.407C169.625 115.391 169.617 115.368 169.605 115.338C169.604 115.401 169.602 115.464 169.599 115.528ZM169.634 115.378C169.634 115.378 169.634 115.379 169.634 115.381L169.634 115.378Z" fill="#F2C0C0"/>
</g>
<path id="Union_3" fill-rule="evenodd" clip-rule="evenodd" d="M158.364 110.905C158.567 110.896 160.08 110.827 161.731 110.854C162.557 110.867 163.409 110.903 164.146 110.981C164.902 111.062 165.47 111.179 165.771 111.324C165.774 111.325 165.776 111.326 165.779 111.328C165.782 111.33 165.787 111.333 165.795 111.338C165.928 111.429 166.376 111.741 166.869 112.156C167.37 112.578 167.878 113.074 168.164 113.53C168.572 114.181 168.677 115.004 168.558 115.934C168.438 116.864 168.1 117.855 167.678 118.792C166.834 120.666 165.695 122.233 165.494 122.502C165.459 122.549 165.432 122.592 165.405 122.636C164.266 124.517 161.657 125.573 159.076 125.469C157.71 125.414 156.576 125.354 155.504 125.028C154.451 124.709 153.436 124.126 152.349 122.986C151.284 121.87 150.371 120.024 149.923 118.125C149.619 116.839 149.543 115.594 149.734 114.572L149.778 114.574L149.861 114.05C149.951 113.758 150.067 113.491 150.211 113.254C150.479 112.813 150.967 112.432 151.625 112.113L151.782 112.039C151.819 112.023 151.855 112.006 151.893 111.99C152.678 111.652 153.61 111.415 154.53 111.252C156.369 110.927 158.081 110.908 158.295 110.907C158.318 110.907 158.339 110.906 158.364 110.905ZM151.711 110.983C152.542 110.651 153.472 110.424 154.356 110.268C156.277 109.928 158.055 109.908 158.29 109.907C158.301 109.907 158.307 109.907 158.317 109.906C158.527 109.896 160.065 109.827 161.747 109.854C162.588 109.867 163.473 109.905 164.251 109.987C165.01 110.067 165.733 110.196 166.205 110.423C166.265 110.452 166.315 110.482 166.358 110.512C166.506 110.613 166.985 110.946 167.513 111.391C167.922 111.736 168.386 112.167 168.746 112.625C168.883 112.523 169.039 112.414 169.207 112.303C169.795 111.916 170.637 111.453 171.417 111.417C172.185 111.382 173.086 111.735 173.733 112.043C174.07 112.203 174.364 112.365 174.574 112.487C174.679 112.548 174.764 112.599 174.823 112.636C174.852 112.654 174.875 112.668 174.891 112.678L174.91 112.69L174.915 112.694L174.917 112.695L174.918 112.695L174.918 112.695C174.918 112.695 174.918 112.695 174.646 113.115C174.374 113.535 174.375 113.535 174.375 113.535L174.374 113.535L174.371 113.533L174.357 113.524C174.344 113.515 174.324 113.503 174.298 113.487C174.246 113.455 174.169 113.408 174.073 113.352C173.879 113.24 173.609 113.092 173.302 112.945C172.662 112.64 171.96 112.394 171.463 112.416C170.978 112.439 170.335 112.758 169.756 113.138C169.726 113.159 169.696 113.179 169.666 113.199L169.684 113.233C169.776 113.408 169.9 113.645 170.027 113.895C170.153 114.143 170.283 114.408 170.388 114.635C170.482 114.84 170.585 115.076 170.617 115.235C170.644 115.363 170.629 115.486 170.615 115.567C170.6 115.659 170.574 115.754 170.544 115.848C170.485 116.036 170.398 116.253 170.299 116.476C170.1 116.925 169.835 117.438 169.592 117.866C169.47 118.081 169.352 118.279 169.248 118.439C169.152 118.587 169.045 118.74 168.949 118.837C168.923 118.862 168.879 118.904 168.818 118.94C168.802 118.95 168.752 118.98 168.679 119C168.65 119.068 168.62 119.136 168.59 119.203C167.701 121.174 166.513 122.809 166.297 123.098C166.285 123.115 166.275 123.13 166.261 123.153C164.87 125.449 161.842 126.581 159.036 126.468C157.686 126.414 156.427 126.353 155.214 125.985C153.982 125.612 152.821 124.93 151.625 123.676C150.406 122.399 149.427 120.377 148.949 118.355C148.626 116.987 148.517 115.551 148.766 114.31L148.632 112.772C148.561 111.952 149.164 111.227 149.984 111.149L151.711 110.983ZM169.597 115.528C169.613 115.474 169.623 115.434 169.628 115.407C169.623 115.391 169.615 115.368 169.603 115.338C169.602 115.401 169.6 115.464 169.597 115.528ZM169.632 115.379L169.632 115.379L169.632 115.381L169.632 115.378C169.632 115.378 169.632 115.378 169.632 115.379Z" fill="#F2C0C0"/>
<path id="hair" d="M177.29 87.6081C177.29 87.6081 181.764 85.6907 188.078 87.6081C197.279 90.4019 203.77 113.776 199.865 127.847C198.291 133.518 197.314 145.586 199.864 148.296C209.432 158.468 208.608 171.227 194.067 182.972C179.527 194.716 184.276 189.861 189.681 181.41C189.681 181.41 198.542 167.312 192.258 155.859C185.975 144.405 187.831 135.913 189.784 125.87C190.123 124.175 190.516 122.426 190.971 120.639C194.828 105.501 192.703 107.324 176.182 93.1007C176.182 93.1007 168.257 93.448 160.476 97.0041C152.695 100.56 145.203 110.526 151.343 120.94C157.483 131.353 160.603 141.584 152.17 155.859C143.736 170.134 163.642 167.421 164.098 177.556C164.553 187.69 159.699 191.268 159.699 191.268C159.699 191.268 156.917 194.465 154.739 196.483C153.239 197.874 151.451 200.203 151.952 203.595C152.936 210.254 159.699 219.325 158.023 219.066C156.347 218.806 152.927 217.206 150.314 215.033C144.47 210.173 139.848 201.067 142.959 197.012C146.07 192.958 146.452 186.076 144.042 180.07C141.284 173.196 134.783 175.686 131.943 168.844C131.943 168.844 122.215 154.316 138.573 139.685C138.573 139.685 144.089 136.231 135.685 125.918C127.281 115.606 142.173 90.7151 152.17 85.9905C162.167 81.2659 177.29 87.6081 177.29 87.6081Z" fill="#58452A"/>
<g id="Glasses">
<path id="Union_4" fill-rule="evenodd" clip-rule="evenodd" d="M171.524 110.867C171.055 110.817 170.375 111.012 169.746 111.267C169.445 111.39 169.179 111.516 168.989 111.612C168.893 111.66 168.817 111.7 168.766 111.728C168.74 111.742 168.721 111.752 168.708 111.759L168.694 111.767L168.691 111.769L168.69 111.769C168.69 111.769 168.691 111.769 168.444 111.334C168.198 110.899 168.198 110.899 168.198 110.899L168.198 110.899L168.198 110.899L168.2 110.898L168.205 110.895L168.224 110.884C168.24 110.875 168.263 110.863 168.292 110.847C168.351 110.816 168.435 110.771 168.539 110.719C168.747 110.614 169.038 110.476 169.37 110.341C170.005 110.083 170.891 109.795 171.628 109.872C172.378 109.951 173.161 110.444 173.701 110.847C173.984 111.058 174.226 111.263 174.398 111.416C174.43 111.445 174.459 111.472 174.486 111.496C175.245 110.651 176.503 109.876 176.756 109.725C176.787 109.707 176.816 109.691 176.848 109.678C178.371 109.057 183.781 109.619 184.181 109.662C184.199 109.664 184.212 109.665 184.229 109.666C184.547 109.686 187.96 109.927 190.289 111.024L190.446 110.559L192.089 110.815C192.903 110.941 193.463 111.7 193.343 112.515L193.102 114.153L192.657 114.143C192.962 116.841 191.442 120.587 189.524 122.374C187.207 124.533 185.221 124.546 182.619 124.497C180.039 124.449 177.408 123.245 176.316 121.18C176.298 121.145 176.281 121.114 176.259 121.081C176.069 120.791 175.019 119.15 174.3 117.227C174.251 117.268 174.188 117.303 174.109 117.324C173.878 117.387 173.706 117.27 173.673 117.247C173.615 117.208 173.573 117.164 173.55 117.138C173.461 117.038 173.367 116.883 173.284 116.737C173.193 116.577 173.091 116.381 172.987 116.169C172.779 115.746 172.554 115.239 172.389 114.799C172.306 114.579 172.235 114.366 172.189 114.182C172.166 114.091 172.147 113.997 172.137 113.907C172.128 113.828 172.121 113.706 172.154 113.582C172.195 113.429 172.308 113.207 172.409 113.017C172.522 112.805 172.662 112.559 172.797 112.329C172.932 112.097 173.064 111.877 173.161 111.715L173.171 111.699C173.149 111.682 173.127 111.666 173.104 111.649C172.572 111.252 171.98 110.915 171.524 110.867ZM173.794 115.54C173.624 115.184 173.453 114.79 173.325 114.448C173.249 114.245 173.192 114.071 173.159 113.938C173.144 113.881 173.136 113.838 173.132 113.81C173.139 113.793 173.15 113.769 173.164 113.738C173.196 113.67 173.239 113.585 173.291 113.487C173.396 113.292 173.528 113.059 173.66 112.833C173.734 112.705 173.808 112.582 173.875 112.469C173.52 113.37 173.557 114.452 173.794 115.54ZM173.129 113.779C173.129 113.779 173.129 113.78 173.13 113.782L173.129 113.779Z" fill="#EBEBEB" fill-opacity="0.34"/>
<path id="Union_5" fill-rule="evenodd" clip-rule="evenodd" d="M184.127 110.159C183.93 110.138 182.49 109.988 180.912 109.921C180.123 109.887 179.308 109.874 178.601 109.907C177.875 109.941 177.329 110.021 177.035 110.141C177.034 110.142 177.032 110.142 177.028 110.144C177.025 110.146 177.02 110.149 177.012 110.154C176.877 110.234 176.431 110.507 175.939 110.875C175.437 111.25 174.928 111.692 174.632 112.108C174.21 112.701 174.063 113.475 174.123 114.366C174.184 115.257 174.449 116.22 174.799 117.138C175.497 118.972 176.495 120.532 176.675 120.807C176.707 120.856 176.733 120.9 176.757 120.946C177.735 122.798 180.16 123.951 182.626 123.997C183.935 124.022 185.02 124.027 186.06 123.777C187.081 123.532 188.081 123.034 189.182 122.008C190.259 121.004 191.234 119.295 191.769 117.508C192.132 116.296 192.274 115.114 192.15 114.131L192.108 114.13L192.059 113.63C191.99 113.346 191.894 113.085 191.771 112.852C191.539 112.416 191.092 112.023 190.473 111.68L190.366 111.622C190.326 111.601 190.286 111.58 190.245 111.559C189.517 111.192 188.642 110.915 187.773 110.707C186.037 110.293 184.402 110.178 184.195 110.165C184.172 110.164 184.152 110.162 184.127 110.159ZM190.49 110.567C189.714 110.203 188.839 109.934 188.005 109.735C186.187 109.301 184.487 109.182 184.259 109.167C184.248 109.166 184.242 109.166 184.233 109.165C184.028 109.143 182.564 108.991 180.955 108.922C180.151 108.887 179.303 108.873 178.555 108.908C177.826 108.942 177.125 109.024 176.658 109.215C176.595 109.24 176.543 109.269 176.498 109.296C176.347 109.386 175.87 109.678 175.341 110.074C174.936 110.376 174.475 110.756 174.107 111.168C173.986 111.067 173.848 110.957 173.7 110.847C173.159 110.444 172.376 109.951 171.627 109.872C170.889 109.794 170.003 110.083 169.368 110.341C169.036 110.476 168.745 110.614 168.537 110.719C168.433 110.771 168.349 110.816 168.291 110.847C168.261 110.863 168.238 110.875 168.222 110.884L168.204 110.895L168.198 110.898L168.197 110.899L168.196 110.899L168.196 110.899C168.196 110.899 168.196 110.899 168.442 111.334C168.689 111.769 168.689 111.769 168.689 111.769L168.689 111.769L168.692 111.767L168.706 111.759C168.719 111.752 168.738 111.742 168.764 111.728C168.816 111.7 168.892 111.66 168.987 111.612C169.178 111.516 169.444 111.39 169.744 111.267C170.373 111.012 171.054 110.817 171.522 110.867C171.978 110.914 172.57 111.252 173.102 111.649C173.125 111.666 173.147 111.682 173.169 111.699L173.16 111.715C173.062 111.877 172.93 112.097 172.795 112.329C172.66 112.559 172.52 112.805 172.407 113.017C172.306 113.207 172.193 113.429 172.152 113.582C172.119 113.706 172.126 113.828 172.135 113.907C172.145 113.997 172.164 114.091 172.187 114.182C172.233 114.366 172.305 114.579 172.387 114.799C172.552 115.239 172.777 115.746 172.985 116.169C173.089 116.381 173.192 116.577 173.282 116.737C173.365 116.883 173.46 117.038 173.548 117.138C173.572 117.164 173.613 117.208 173.671 117.247C173.686 117.258 173.73 117.288 173.796 117.311C173.819 117.373 173.841 117.433 173.864 117.493C174.601 119.428 175.645 121.059 175.839 121.355C175.85 121.373 175.86 121.389 175.872 121.413C177.077 123.693 179.915 124.947 182.608 124.997C183.901 125.021 185.11 125.034 186.293 124.75C187.495 124.461 188.647 123.873 189.864 122.74C191.104 121.584 192.156 119.703 192.727 117.795C193.114 116.506 193.299 115.138 193.133 113.935L193.341 112.515C193.461 111.7 192.901 110.941 192.088 110.815L190.49 110.567Z" fill="#7B7771"/>
<path id="Union_6" fill-rule="evenodd" clip-rule="evenodd" d="M171.391 111.066C171.888 111.043 172.59 111.29 173.23 111.595C173.537 111.741 173.807 111.89 174 112.002C174.097 112.058 174.174 112.104 174.226 112.137C174.252 112.153 174.272 112.165 174.284 112.173L174.299 112.182L174.302 112.184L174.302 112.185C174.302 112.185 174.302 112.185 174.574 111.765C174.846 111.345 174.846 111.345 174.845 111.345L174.845 111.345L174.845 111.344L174.843 111.343L174.838 111.34L174.819 111.328C174.803 111.318 174.78 111.303 174.75 111.285C174.692 111.249 174.607 111.198 174.502 111.137C174.292 111.015 173.997 110.853 173.661 110.693C173.014 110.384 172.113 110.032 171.345 110.067C170.565 110.103 169.723 110.566 169.135 110.953C168.827 111.154 168.563 111.354 168.375 111.502C168.34 111.53 168.308 111.556 168.278 111.58C167.539 110.643 166.255 109.746 166.004 109.575C165.975 109.555 165.947 109.538 165.916 109.523C164.369 108.78 158.681 109.036 158.268 109.055C158.251 109.056 158.237 109.057 158.22 109.057C157.892 109.058 154.312 109.099 151.814 110.101L151.685 109.629L149.912 109.798C149.092 109.877 148.488 110.601 148.56 111.422L148.713 113.188L149.157 113.204C148.671 115.999 150.025 120 151.914 121.981C154.198 124.375 156.268 124.51 158.983 124.619C161.677 124.727 164.496 123.633 165.761 121.544C165.781 121.51 165.8 121.482 165.823 121.45C166.036 121.165 167.243 119.503 168.115 117.528C168.162 117.574 168.224 117.614 168.305 117.642C168.532 117.718 168.712 117.611 168.746 117.59C168.806 117.554 168.851 117.512 168.876 117.486C168.973 117.39 169.08 117.236 169.176 117.089C169.28 116.928 169.398 116.731 169.52 116.516C169.763 116.088 170.028 115.574 170.227 115.126C170.326 114.903 170.413 114.685 170.472 114.498C170.502 114.404 170.527 114.308 170.543 114.217C170.557 114.136 170.571 114.013 170.545 113.885C170.512 113.726 170.41 113.49 170.316 113.285C170.211 113.057 170.08 112.793 169.954 112.544C169.828 112.295 169.704 112.058 169.612 111.883L169.594 111.848C169.623 111.828 169.653 111.808 169.684 111.788C170.263 111.407 170.905 111.088 171.391 111.066ZM168.71 115.915C168.923 115.533 169.146 115.097 169.313 114.721C169.405 114.514 169.475 114.335 169.518 114.197C169.538 114.134 169.55 114.087 169.556 114.056C169.55 114.038 169.54 114.011 169.525 113.973C169.495 113.9 169.456 113.808 169.407 113.703C169.31 113.492 169.186 113.241 169.062 112.997C168.966 112.806 168.87 112.622 168.79 112.468C169.177 113.487 169.061 114.707 168.71 115.915ZM169.56 114.028C169.56 114.028 169.56 114.028 169.56 114.029L169.56 114.031L169.56 114.028Z" fill="#EBEBEB" fill-opacity="0.34"/>
<path id="Union_7" fill-rule="evenodd" clip-rule="evenodd" d="M158.292 109.555C158.494 109.545 160.007 109.477 161.659 109.503C162.485 109.516 163.337 109.553 164.073 109.631C164.83 109.711 165.398 109.829 165.699 109.974C165.701 109.975 165.703 109.976 165.707 109.978C165.71 109.98 165.715 109.983 165.722 109.988C165.855 110.079 166.304 110.391 166.797 110.806C167.298 111.228 167.806 111.724 168.091 112.18C168.499 112.831 168.605 113.653 168.485 114.584C168.366 115.513 168.028 116.505 167.606 117.442C166.761 119.315 165.623 120.882 165.422 121.152C165.387 121.199 165.36 121.241 165.333 121.285C164.193 123.167 161.584 124.223 159.004 124.119C157.638 124.064 156.504 124.003 155.432 123.678C154.379 123.358 153.363 122.775 152.276 121.636C151.212 120.52 150.299 118.673 149.85 116.775C149.546 115.488 149.471 114.244 149.662 113.222L149.705 113.224L149.789 112.7C149.879 112.408 149.995 112.141 150.139 111.904C150.407 111.463 150.895 111.082 151.553 110.762L151.71 110.689C151.746 110.672 151.783 110.656 151.82 110.64C152.605 110.301 153.537 110.065 154.457 109.902C156.296 109.577 158.009 109.558 158.222 109.557C158.246 109.557 158.266 109.556 158.292 109.555ZM151.639 109.633C152.47 109.301 153.4 109.074 154.283 108.918C156.205 108.577 157.983 108.558 158.218 108.557C158.229 108.557 158.235 108.556 158.244 108.556C158.455 108.546 159.992 108.477 161.675 108.504C162.515 108.517 163.401 108.554 164.179 108.637C164.937 108.717 165.66 108.846 166.132 109.072C166.193 109.101 166.242 109.132 166.286 109.162C166.434 109.263 166.913 109.596 167.441 110.041C167.85 110.385 168.314 110.817 168.674 111.274C168.811 111.173 168.966 111.063 169.135 110.953C169.723 110.566 170.565 110.103 171.345 110.067C172.113 110.032 173.014 110.384 173.661 110.693C173.997 110.853 174.292 111.015 174.502 111.137C174.607 111.198 174.692 111.249 174.75 111.285C174.78 111.303 174.803 111.318 174.819 111.328L174.838 111.34L174.843 111.343L174.845 111.344L174.845 111.345L174.846 111.345C174.846 111.345 174.846 111.345 174.574 111.765C174.302 112.185 174.302 112.185 174.302 112.185L174.302 112.184L174.299 112.182L174.285 112.173C174.272 112.165 174.252 112.153 174.226 112.137C174.174 112.104 174.097 112.058 174 112.002C173.807 111.89 173.537 111.741 173.23 111.595C172.59 111.29 171.888 111.043 171.391 111.066C170.905 111.088 170.263 111.407 169.684 111.788C169.653 111.808 169.623 111.828 169.594 111.848L169.612 111.883C169.704 112.058 169.828 112.295 169.954 112.544C170.081 112.793 170.211 113.057 170.316 113.285C170.41 113.49 170.512 113.726 170.545 113.885C170.571 114.013 170.557 114.136 170.543 114.217C170.527 114.308 170.502 114.404 170.472 114.498C170.413 114.685 170.326 114.903 170.227 115.126C170.028 115.574 169.763 116.088 169.52 116.516C169.398 116.731 169.28 116.928 169.176 117.089C169.08 117.236 168.973 117.39 168.876 117.486C168.851 117.512 168.806 117.554 168.746 117.59C168.729 117.6 168.68 117.63 168.607 117.65C168.578 117.718 168.548 117.785 168.517 117.852C167.629 119.824 166.44 121.458 166.225 121.748C166.213 121.765 166.203 121.78 166.188 121.803C164.798 124.098 161.77 125.231 158.963 125.118C157.614 125.064 156.354 125.003 155.141 124.635C153.91 124.261 152.749 123.58 151.553 122.326C150.334 121.049 149.355 119.026 148.877 117.005C148.554 115.637 148.445 114.201 148.694 112.96L148.56 111.422C148.488 110.601 149.092 109.877 149.912 109.798L151.639 109.633ZM169.525 114.177C169.541 114.124 169.551 114.084 169.556 114.056C169.55 114.04 169.542 114.018 169.531 113.988C169.53 114.051 169.528 114.114 169.525 114.177ZM169.56 114.028C169.56 114.028 169.56 114.028 169.56 114.029L169.56 114.031L169.56 114.028Z" fill="#7B7771"/>
</g>
<path id="Union_8" fill-rule="evenodd" clip-rule="evenodd" d="M158.29 109.555C158.492 109.545 160.005 109.477 161.657 109.503C162.483 109.516 163.335 109.553 164.071 109.631C164.828 109.711 165.396 109.829 165.697 109.974C165.699 109.975 165.702 109.976 165.705 109.978C165.708 109.98 165.713 109.983 165.721 109.988C165.853 110.079 166.302 110.391 166.795 110.806C167.296 111.228 167.804 111.724 168.089 112.18C168.497 112.831 168.603 113.653 168.483 114.584C168.364 115.513 168.026 116.505 167.604 117.442C166.759 119.315 165.621 120.882 165.42 121.152C165.385 121.199 165.358 121.241 165.331 121.285C164.191 123.167 161.582 124.223 159.002 124.119C157.636 124.064 156.502 124.003 155.43 123.678C154.377 123.358 153.361 122.775 152.274 121.636C151.21 120.52 150.297 118.673 149.848 116.775C149.544 115.488 149.469 114.244 149.66 113.222L149.703 113.224L149.787 112.7C149.877 112.408 149.993 112.141 150.137 111.904C150.405 111.463 150.893 111.081 151.551 110.762L151.708 110.689C151.744 110.673 151.781 110.656 151.818 110.64C152.603 110.301 153.535 110.065 154.456 109.902C156.294 109.577 158.007 109.558 158.22 109.557C158.244 109.556 158.264 109.556 158.29 109.555ZM151.637 109.633C152.468 109.301 153.398 109.074 154.281 108.917C156.203 108.577 157.981 108.558 158.216 108.557C158.227 108.557 158.233 108.556 158.242 108.556C158.453 108.546 159.99 108.477 161.673 108.503C162.513 108.517 163.399 108.554 164.177 108.637C164.935 108.717 165.658 108.846 166.13 109.072C166.191 109.101 166.24 109.132 166.284 109.162C166.432 109.263 166.911 109.596 167.439 110.041C167.848 110.385 168.312 110.817 168.672 111.274C168.809 111.173 168.964 111.063 169.133 110.952C169.721 110.566 170.563 110.103 171.343 110.067C172.111 110.032 173.012 110.384 173.659 110.693C173.995 110.853 174.29 111.015 174.5 111.137C174.605 111.198 174.69 111.249 174.749 111.285C174.778 111.303 174.801 111.318 174.817 111.328L174.836 111.34L174.841 111.343L174.843 111.344L174.843 111.345L174.844 111.345C174.844 111.345 174.844 111.345 174.572 111.765C174.3 112.184 174.3 112.185 174.3 112.185L174.3 112.184L174.297 112.182L174.283 112.173C174.27 112.165 174.25 112.153 174.224 112.136C174.172 112.104 174.095 112.058 173.998 112.002C173.805 111.89 173.535 111.741 173.228 111.595C172.588 111.29 171.886 111.043 171.389 111.066C170.903 111.088 170.261 111.407 169.682 111.788C169.651 111.808 169.621 111.828 169.592 111.848L169.61 111.883C169.702 112.058 169.826 112.295 169.952 112.544C170.079 112.793 170.209 113.057 170.314 113.285C170.408 113.49 170.51 113.726 170.543 113.885C170.569 114.013 170.555 114.136 170.541 114.217C170.525 114.308 170.5 114.404 170.47 114.498C170.411 114.685 170.324 114.902 170.225 115.126C170.026 115.574 169.761 116.088 169.518 116.516C169.396 116.731 169.278 116.928 169.174 117.089C169.078 117.236 168.971 117.39 168.875 117.486C168.849 117.512 168.804 117.554 168.744 117.59C168.728 117.6 168.678 117.63 168.605 117.65C168.576 117.718 168.546 117.785 168.515 117.852C167.627 119.824 166.438 121.458 166.223 121.748C166.211 121.764 166.201 121.78 166.186 121.803C164.796 124.098 161.768 125.231 158.961 125.118C157.612 125.064 156.352 125.003 155.14 124.635C153.908 124.261 152.747 123.58 151.551 122.326C150.332 121.049 149.353 119.026 148.875 117.005C148.552 115.637 148.443 114.201 148.692 112.96L148.558 111.422C148.487 110.601 149.09 109.877 149.91 109.798L151.637 109.633ZM169.523 114.177C169.539 114.124 169.549 114.084 169.554 114.056C169.548 114.04 169.54 114.018 169.529 113.988C169.528 114.051 169.526 114.114 169.523 114.177ZM169.558 114.028C169.558 114.028 169.558 114.029 169.558 114.031L169.558 114.028Z" fill="#7B7771"/>
<path id="mouth" d="M177.733 133.492C177.733 133.492 174.334 136.522 171.734 136.395C169.244 136.273 166.213 133.192 166.213 133.192" stroke="#C59898"/>
<g id="Eyes">
<path id="Vector 2.3" d="M187.842 116.216C187.842 116.216 185.738 113.686 183.923 113.591C182.185 113.501 179.824 115.598 179.824 115.598" stroke="#C59898"/>
<path id="Vector 2.4" d="M163.3 115.243C163.3 115.243 160.842 113.055 159.034 113.231C157.302 113.4 155.279 115.826 155.279 115.826" stroke="#C59898"/>
</g>
</g>
<defs>
<clipPath id="clip0">
<rect width="398" height="471" fill="white" transform="matrix(-1 0 0 1 398 0)"/>
</clipPath>
</defs>
</svg>
