<svg width="520" height="316" viewBox="0 0 520 316" fill="none" xmlns="http://www.w3.org/2000/svg">
<path opacity="0.8" fill-rule="evenodd" clip-rule="evenodd" d="M9.14016 78.6057C14.6548 91.7096 24.0292 100.814 28.9942 114.44C31.9384 122.52 33.1657 131.306 33.2401 140.304C33.2806 145.191 33.1955 150.081 33.1726 154.969C33.1504 159.735 33.0209 164.471 32.6163 169.206C32.2098 173.967 31.7546 178.671 31.5538 183.461C31.3975 187.194 31.3262 191.535 30.061 194.939C29.0549 197.647 26.4979 198.043 25.8194 194.76C25.4424 192.934 25.4899 190.896 25.5315 189.02C25.5848 186.613 25.7248 184.21 25.7962 181.803C26.0832 172.147 25.7111 162.488 25.9056 152.827C26.0956 143.388 27.3088 133.96 25.9664 124.584C24.8578 116.841 22.0415 110.193 18.805 103.819C15.6911 97.6866 12.3021 91.7033 10.1978 84.7279C9.59357 82.7246 9.12647 80.6487 8.90234 78.4945C9.00031 78.449 9.07958 78.486 9.14016 78.6057Z" fill="#C1DEE2"/>
<path fill-rule="evenodd" clip-rule="evenodd" d="M0.646112 105.855C1.81737 106.521 2.54936 107.601 3.40682 108.652C4.47309 109.959 5.68468 111.111 6.75083 112.419C8.97388 115.146 10.9857 118.078 13.0535 120.942C16.9793 126.377 20.1543 132.281 22.1256 138.851C24.1688 145.66 25.2994 152.794 26.609 159.788C27.9976 167.2 29.396 174.667 30.2924 182.162C30.694 185.52 31.2661 189.069 31.2276 192.451C31.2037 194.557 30.4596 196.431 28.3434 196.645C23.8484 197.101 21.1958 192.357 19.8686 188.374C17.9149 182.508 16.9581 176.156 16.4914 169.99C15.9291 162.555 16.4166 155.118 16.1659 147.678C15.9007 139.802 14.7283 132.165 11.2381 125.103C9.47469 121.535 7.50312 118.079 5.68525 114.542C4.91116 113.035 4.24133 111.475 3.26795 110.1C2.18512 108.57 0.900358 107.215 0 105.539C0.215312 105.644 0.430829 105.75 0.646112 105.855Z" fill="#89C5CC"/>
<path opacity="0.8" fill-rule="evenodd" clip-rule="evenodd" d="M74.4699 111.413C74.6303 111.342 74.7909 111.271 74.9514 111.2C74.1579 112.735 73.1284 113.886 72.2224 115.244C71.4079 116.465 70.7864 117.921 70.0978 119.306C68.4804 122.558 66.7642 125.703 65.1817 128.995C62.0497 135.509 60.4752 142.975 59.5089 150.827C58.596 158.244 58.1976 165.777 57.0681 173.139C56.1311 179.244 54.8343 185.457 52.8913 191.02C51.5716 194.799 49.2531 199.125 46.1671 197.942C44.7143 197.385 44.382 195.386 44.5742 193.272C44.8831 189.875 45.6338 186.41 46.2467 183.109C47.6149 175.741 49.33 168.483 51.0328 161.277C52.639 154.479 54.1345 147.51 56.2334 141.015C58.2586 134.749 61.0561 129.344 64.3301 124.53C66.0547 121.993 67.747 119.379 69.5661 117.006C70.4386 115.867 71.3969 114.908 72.2693 113.77C72.9709 112.855 73.588 111.891 74.4699 111.413Z" fill="#C1DEE2"/>
<path opacity="0.8" fill-rule="evenodd" clip-rule="evenodd" d="M5.98916 127.164C6.46666 126.099 8.15516 129.233 8.40203 129.623C8.29404 129.427 8.18574 129.232 8.07672 129.036C9.48248 130.858 10.7973 132.771 11.7285 134.939C12.6502 137.085 13.4835 139.287 14.3661 141.454C16.022 145.519 18.0027 149.425 19.5534 153.541C21.0644 157.551 21.7966 161.582 22.0442 165.883C22.3016 170.354 22.6675 174.88 23.4863 179.283C23.8774 181.386 24.7959 183.28 25.5053 185.266C26.2156 187.254 26.8287 189.28 27.6221 191.232C27.7198 190.955 27.8383 191.831 27.8458 191.898C27.9009 192.402 27.8797 192.833 27.7732 193.33C27.4995 194.607 26.8415 195.742 25.6949 196.219C23.6226 197.081 21.4056 195.362 20.4748 193.384C19.1395 190.545 18.2132 187.344 17.3794 184.294C16.6149 181.497 16.1791 178.645 15.972 175.744C15.5633 170.022 15.9398 164.284 15.5563 158.562C15.1388 152.331 13.2341 146.653 11.5048 140.742C10.6717 137.894 9.86372 135.071 8.57828 132.414C8.05782 131.339 7.43421 130.409 6.78058 129.435C6.40868 128.882 5.67293 127.903 5.98916 127.164Z" fill="#C1DEE2"/>
<path fill-rule="evenodd" clip-rule="evenodd" d="M26.5412 116.37C26.2937 123.515 25.8669 130.606 24.9143 137.676C23.9421 144.891 22.8254 152.081 21.8899 159.303C20.9793 166.332 20.0248 173.478 20.1521 180.605C20.2458 185.855 19.3753 194.736 25.206 197.327C31.1113 199.951 32.378 188.746 32.7657 185.047C33.5088 177.951 33.2682 170.78 32.9076 163.645C32.5374 156.322 31.9194 149.037 31.1534 141.741C30.3026 133.636 29.6351 125.496 29.0993 117.368C28.8342 113.348 28.7689 109.335 28.8421 105.314C28.9112 101.52 28.767 97.6863 27.418 94.0838C27.3473 94.1351 27.2771 94.1863 27.2064 94.2373" fill="#6F9997"/>
<path fill-rule="evenodd" clip-rule="evenodd" d="M60.9052 148.72C59.5999 150.069 58.2887 151.4 57.0264 152.849C54.7677 155.44 52.6236 158.385 51.4427 162.437C48.9712 170.917 48.198 180.398 46.8841 189.346C46.6156 191.175 46.0862 192.903 46.5108 194.758C46.8958 196.441 47.9103 197.845 49.0717 198.035C51.5581 198.441 52.2086 192.294 52.6658 189.618C53.4675 184.926 53.7436 180.097 54.5824 175.416C55.4137 170.779 56.4844 166.17 57.9044 161.872C59.3419 157.523 61.066 153.404 63.0608 149.626C63.3376 149.102 65.376 145.033 64.0111 145.563" fill="#89C5CC"/>
<path fill-rule="evenodd" clip-rule="evenodd" d="M45.9022 92.2108C44.2459 92.2108 44.256 100.468 44.2062 101.529C44.0263 105.356 44.0685 109.185 43.9547 113.013C43.7056 121.367 43.3995 129.795 42.1446 138.052C41.469 142.498 40.6857 146.924 39.8431 151.335C38.9982 155.76 37.864 160.179 37.3081 164.659C36.7744 168.967 37.0759 173.358 37.1491 177.687C37.2223 182.041 37.3539 186.405 37.9244 190.721C38.0652 191.787 38.2302 192.848 38.4069 193.907C38.554 194.79 38.4683 195.884 38.7172 196.723C39.1163 198.066 40.8269 198.506 41.9789 198.296C45.0958 197.727 47.0868 193.813 48.1516 190.953C49.5113 187.302 50.2328 183.341 50.9447 179.494C51.7514 175.134 52.2242 170.708 52.446 166.27C52.8968 157.25 52.3182 148.22 51.6721 139.229C51.3127 134.228 50.8975 129.25 50.2623 124.28C49.6296 119.332 48.818 114.406 48.2895 109.443C47.9055 105.836 47.5272 102.225 47.2785 98.6047C47.219 97.7414 47.169 92.2108 45.9022 92.2108Z" fill="#6F9997"/>
<path fill-rule="evenodd" clip-rule="evenodd" d="M42.4913 156.966C42.2509 144.69 39.1481 90.7712 38.4422 75.9271C38.2656 72.2116 36.5661 56.7418 36.3456 52.5298C35.7478 53.7204 35.7989 72.2516 35.8055 76.5097C35.8124 80.7217 35.484 84.8638 35.315 89.0532C35.1428 93.3278 31.169 148.534 30.6533 152.642C29.6274 160.813 28.9408 169.198 28.4112 177.553C27.8953 185.697 27.0932 194.288 27.7836 202.474C27.9423 204.359 28.1933 206.213 28.6022 207.944C29.0439 209.815 29.3466 211.545 29.7012 213.502C30.2717 216.655 31.3038 219.422 32.8898 220.723C36.1413 223.392 37.8872 217.351 38.7723 212.091C40.1859 203.691 41.0931 195.154 41.5185 186.333C41.9891 176.573 42.6837 166.793 42.4913 156.966Z" fill="#8DC7C5"/>
<path fill-rule="evenodd" clip-rule="evenodd" d="M30.0242 228.864C32.2802 226.576 33.5444 224.164 33.8167 221.629H35.2792H36.2163C36.4885 224.164 37.7527 226.576 40.0088 228.864H43.4246C47.9231 228.864 51.5699 230.005 51.5699 231.412C51.5699 232.82 47.9231 233.961 43.4246 233.961H26.0829C21.5843 233.961 17.9375 232.82 17.9375 231.412C17.9375 230.005 21.5843 228.864 26.0829 228.864H30.0242Z" fill="#D4DAE1"/>
<path d="M59.2452 208.726C59.2452 221.768 48.6664 232.341 35.6167 232.341C22.5671 232.341 11.9883 221.768 11.9883 208.726C11.9883 203.718 13.5478 199.075 16.2079 195.254C16.2079 195.254 48.7476 195.254 55.0256 195.254C57.6857 199.075 59.2452 203.718 59.2452 208.726Z" fill="#D4DAE1"/>
<path d="M20.4036 199.441C20.4036 199.441 18.4237 202.747 18.0108 208.115C17.4126 215.891 23.3946 221.574 23.3946 221.574M24.5909 222.77C25.548 223.728 26.1861 224.366 26.3855 224.565" stroke="#FAFAFA" stroke-width="2"/>
<g opacity="0.8">
<path d="M129.139 82.8656C129.139 82.8656 134.641 71.1543 138.181 67.461C142.096 63.3757 150.236 59.4238 150.236 59.4238" stroke="#4B807D" stroke-width="3"/>
<path d="M149.123 59.7586C149.123 59.7586 148.179 60.9099 154.925 61.7703C159.302 62.3284 173.49 63.735 177.589 62.1028C180.51 60.9395 180.405 57.6792 183.282 56.4098C187.648 54.4827 190.776 59.8235 195.337 58.4191C200.559 56.8116 204.714 48.0377 204.714 48.0377C204.714 48.0377 198.281 43.5385 193.663 41.6749C185.344 38.3179 177.477 32.5701 170.891 38.6609C168.437 40.93 169.071 43.8486 166.537 46.0284C161.77 50.1308 154.563 42.2637 150.463 47.033C147.205 50.8222 149.123 59.7586 149.123 59.7586Z" fill="#4B807D"/>
<path d="M149.566 59.7586C149.566 59.7586 160.436 54.2011 167.985 52.0563C173.859 50.3875 183.39 49.3773 183.39 49.3773" stroke="#5D9C99" stroke-width="3"/>
</g>
<g opacity="0.8">
<path d="M120.093 87.219C120.093 87.219 120.144 73.7401 118.083 65.4515C116.41 58.7187 107.046 47.107 107.046 47.107" stroke="#4B807D" stroke-width="3"/>
<path d="M111.419 43.56C113.038 40.4803 113.33 38.1695 112.714 34.7451C111.742 29.3391 107.485 26.1292 103.607 24.0266C100.843 22.5282 89.7885 20.8668 86.9713 19.4706C82.6947 17.351 82.0758 15.4187 78.0758 12.8146C73.4974 9.834 67.5845 15.219 67.5845 15.219C67.5845 15.219 65.4733 24.2322 67.5845 29.3168C70.218 35.6594 72.3796 39.1963 81.2752 40.3537C84.5892 40.7849 86.4252 38.4294 89.7216 38.9789C95.9257 40.0132 94.4987 50.5862 100.788 50.681C105.784 50.7563 109.094 47.9831 111.419 43.56Z" fill="#4B807D"/>
<path d="M107.636 48.0326C107.636 48.0326 97.6564 33.6377 92.2983 30.6237C86.2704 27.233 75.5541 24.5958 75.5541 24.5958" stroke="#5D9C99" stroke-width="3"/>
</g>
<g opacity="0.8">
<path d="M112.395 91.5725C112.395 91.5725 107.897 74.1681 104.357 70.4748C100.442 66.3895 89.1787 64.4445 89.1787 64.4445" stroke="#4B807D" stroke-width="3"/>
<path d="M90.2996 63.8266C90.2996 63.8266 91.4344 64.7905 84.9511 66.8435C80.7452 68.1753 67.0372 72.0967 62.7127 71.2239C59.6307 70.6018 59.1504 67.3753 56.0933 66.6408C51.4523 65.5257 49.3305 71.3397 44.5912 70.7738C39.1666 70.1261 33.509 62.2368 33.509 62.2368C33.509 62.2368 39.0336 56.6596 43.244 54.0001C50.8283 49.2095 57.5409 42.1474 65.1099 46.9621C67.9297 48.7558 67.8286 51.7406 70.7108 53.4322C76.1353 56.6158 81.8185 47.5867 86.7057 51.5458C90.5887 54.6913 90.2996 63.8266 90.2996 63.8266Z" fill="#5D9C99"/>
<path d="M89.8625 63.906C89.8625 63.906 78.1744 60.3821 70.3634 59.622C64.2859 59.0305 54.728 59.7411 54.728 59.7411" stroke="#71B9B6" stroke-width="3"/>
</g>
<g opacity="0.8">
<path d="M126.766 81.9232C126.766 81.9232 122.018 69.7768 123.752 62.1675C124.818 57.4903 129.11 51.114 129.11 51.114" stroke="#4B807D" stroke-width="3"/>
<path d="M127.768 54.128C127.768 54.128 140.421 55.0632 145.517 50.1094C149.029 46.6958 147.228 42.1068 150.767 38.721C155.881 33.8268 164.513 36.2881 168.516 35.0373C175.87 32.7392 171.304 18.9653 171.304 18.9653C171.304 18.9653 163.64 15.4398 156.568 15.2792C151.688 15.1683 148.353 12.9399 144.069 15.2792C138.848 18.1298 141.557 24.6801 137.48 29.0118C132.95 33.8248 125.17 30.7088 122.41 36.7141C119.439 43.1791 127.768 54.128 127.768 54.128Z" fill="#71B9B6"/>
<path d="M127.436 54.4629C127.436 54.4629 134.774 39.6114 142.84 33.3652C147.652 29.6392 156.57 25.9954 156.57 25.9954" stroke="#5D9C99" stroke-width="3"/>
</g>
<path d="M103.687 109.991L94.3105 243.275" stroke="#EAEFF4" stroke-width="4"/>
<path d="M139.854 109.991L149.23 243.275" stroke="#EAEFF4" stroke-width="4"/>
<path d="M121.771 109.991V243.275" stroke="#EAEFF4" stroke-width="4"/>
<path d="M97.6602 198.4H146.553L121.102 191.033L97.6602 198.4Z" stroke="#E0E0E0"/>
<path d="M149.232 94.266C149.232 108.869 137.387 120.707 122.776 120.707C108.165 120.707 96.3203 108.869 96.3203 94.266C96.3203 88.6591 98.0665 83.4598 101.045 79.1817C101.045 79.1817 137.478 79.1817 144.507 79.1817C147.486 83.4598 149.232 88.6591 149.232 94.266Z" fill="#D4DAE1"/>
<path d="M105.744 83.8701C105.744 83.8701 103.527 87.5713 103.065 93.5817C102.395 102.289 109.093 108.651 109.093 108.651M110.432 109.991C111.504 111.063 112.218 111.777 112.441 112" stroke="#FAFAFA" stroke-width="2"/>
<path d="M100.004 109.991C100.004 109.991 113.615 117.123 121.771 117.024C128.85 116.937 143.539 112.67 143.539 112.67" stroke="#EAEFF4" stroke-width="2"/>
<path d="M455.06 91.4212C455.06 107.21 442.261 120.009 426.472 120.009C410.684 120.009 397.885 107.21 397.885 91.4212C397.885 83.2283 401.331 75.8403 406.854 70.6281C406.854 70.6281 418.877 70.6281 426.472 70.6281C434.068 70.6281 446.091 70.6281 446.091 70.6281C451.614 75.8403 455.06 83.2283 455.06 91.4212Z" fill="#F6F8FA"/>
<path opacity="0.8" fill-rule="evenodd" clip-rule="evenodd" d="M473.997 38.8337C471.448 45.0511 467.114 49.371 464.819 55.8358C463.458 59.6697 462.89 63.8381 462.856 68.1074C462.837 70.4263 462.877 72.7467 462.887 75.0656C462.897 77.327 462.957 79.5739 463.144 81.8208C463.332 84.0797 463.543 86.3116 463.636 88.5844C463.708 90.3552 463.741 92.415 464.326 94.0303C464.791 95.3149 465.973 95.5031 466.287 93.9451C466.461 93.079 466.439 92.1121 466.42 91.2219C466.395 90.0799 466.33 88.9396 466.297 87.7978C466.165 83.2159 466.337 78.6332 466.247 74.0495C466.159 69.5711 465.598 65.0975 466.219 60.649C466.731 56.9754 468.033 53.8208 469.529 50.7966C470.969 47.887 472.536 45.0481 473.509 41.7385C473.788 40.788 474.004 39.803 474.107 38.781C474.062 38.7594 474.025 38.7769 473.997 38.8337Z" fill="#C1DEE2"/>
<path fill-rule="evenodd" clip-rule="evenodd" d="M478.527 51.3381C477.963 51.6583 477.61 52.1785 477.198 52.6846C476.684 53.3137 476.101 53.8687 475.587 54.4984C474.517 55.8111 473.548 57.2229 472.553 58.6017C470.663 61.219 469.134 64.0616 468.185 67.2248C467.201 70.503 466.657 73.9382 466.026 77.3055C465.358 80.8744 464.684 84.4694 464.253 88.0782C464.059 89.6951 463.784 91.4038 463.802 93.0323C463.814 94.0461 464.172 94.9483 465.191 95.0516C467.355 95.2709 468.633 92.987 469.272 91.069C470.212 88.245 470.673 85.1863 470.898 82.2176C471.168 78.6379 470.934 75.0571 471.054 71.4749C471.182 67.6827 471.746 64.0055 473.427 60.6055C474.276 58.8874 475.225 57.2236 476.101 55.5203C476.473 54.7951 476.796 54.0436 477.264 53.3816C477.786 52.6452 478.404 51.9927 478.838 51.1855C478.734 51.2365 478.63 51.2873 478.527 51.3381Z" fill="#89C5CC"/>
<path opacity="0.8" fill-rule="evenodd" clip-rule="evenodd" d="M442.983 54.014C442.906 53.9799 442.829 53.9457 442.752 53.9114C443.134 54.6504 443.629 55.2045 444.066 55.8583C444.458 56.4461 444.757 57.1473 445.089 57.814C445.867 59.3799 446.694 60.8942 447.456 62.4792C448.964 65.6156 449.722 69.2103 450.187 72.9909C450.626 76.5621 450.818 80.1893 451.362 83.7338C451.813 86.6732 452.438 89.6647 453.373 92.3434C454.009 94.1626 455.125 96.2456 456.611 95.6759C457.31 95.4077 457.47 94.4454 457.378 93.4273C457.229 91.792 456.868 90.1237 456.572 88.5343C455.914 84.9866 455.088 81.4919 454.268 78.0226C453.495 74.7492 452.775 71.3938 451.764 68.2669C450.789 65.2495 449.442 62.6473 447.866 60.3293C447.035 59.1081 446.22 57.8496 445.345 56.7067C444.924 56.1585 444.463 55.6966 444.043 55.1489C443.705 54.7083 443.408 54.2439 442.983 54.014Z" fill="#C1DEE2"/>
<path opacity="0.8" fill-rule="evenodd" clip-rule="evenodd" d="M475.955 61.5979C475.725 61.085 474.912 62.5938 474.793 62.7816C474.845 62.6873 474.897 62.5932 474.949 62.4993C474.273 63.3763 473.639 64.2976 473.191 65.3414C472.747 66.3747 472.346 67.4348 471.921 68.478C471.124 70.4353 470.17 72.3161 469.424 74.2977C468.696 76.2287 468.344 78.1692 468.224 80.2402C468.1 82.3927 467.924 84.5723 467.53 86.6922C467.342 87.7047 466.899 88.6167 466.558 89.5728C466.216 90.5298 465.921 91.5055 465.539 92.4455C465.492 92.3118 465.435 92.7339 465.431 92.766C465.404 93.0088 465.415 93.2162 465.466 93.4554C465.598 94.0704 465.914 94.6167 466.467 94.8464C467.464 95.2613 468.532 94.434 468.98 93.4815C469.623 92.1146 470.069 90.5734 470.47 89.1049C470.838 87.7583 471.048 86.3849 471.148 84.988C471.345 82.2331 471.163 79.4705 471.348 76.7151C471.549 73.7152 472.466 70.9813 473.299 68.1353C473.7 66.764 474.089 65.4046 474.708 64.1257C474.958 63.6078 475.259 63.1599 475.573 62.6914C475.753 62.4248 476.107 61.9533 475.955 61.5979Z" fill="#C1DEE2"/>
<path fill-rule="evenodd" clip-rule="evenodd" d="M466.051 56.7655C466.169 60.1285 466.372 63.4659 466.827 66.7934C467.29 70.1892 467.823 73.5732 468.269 76.972C468.703 80.2803 469.159 83.6436 469.098 86.9982C469.053 89.4691 469.469 93.649 466.687 94.8686C463.871 96.1036 463.267 90.8295 463.082 89.0887C462.727 85.7489 462.842 82.3738 463.014 79.0157C463.191 75.5692 463.485 72.1402 463.851 68.7062C464.256 64.892 464.575 61.0605 464.83 57.2353C464.957 55.3433 464.988 53.4544 464.953 51.5619C464.92 49.7761 464.989 47.9718 465.632 46.2762C465.666 46.3004 465.7 46.3245 465.733 46.3485" fill="#6F9997"/>
<path fill-rule="evenodd" clip-rule="evenodd" d="M449.513 71.9766C450.141 72.6257 450.772 73.267 451.38 73.9644C452.468 75.2122 453.5 76.6298 454.069 78.5809C455.258 82.6641 455.631 87.2286 456.263 91.5373C456.393 92.4177 456.648 93.2497 456.443 94.1431C456.258 94.9532 455.769 95.6293 455.21 95.7208C454.013 95.9163 453.7 92.9567 453.48 91.6679C453.094 89.4091 452.961 87.0839 452.557 84.8303C452.157 82.5976 451.641 80.3781 450.957 78.309C450.265 76.2148 449.435 74.2318 448.475 72.4127C448.341 72.1603 447.36 70.2014 448.017 70.4564" fill="#89C5CC"/>
<path fill-rule="evenodd" clip-rule="evenodd" d="M457.32 45.0256C458.117 45.0256 458.112 49.0151 458.136 49.5275C458.222 51.3768 458.202 53.2265 458.257 55.0761C458.377 59.1125 458.524 63.1843 459.127 67.174C459.452 69.3219 459.829 71.4602 460.234 73.5917C460.64 75.7293 461.185 77.8644 461.453 80.0292C461.709 82.1102 461.564 84.2322 461.529 86.3235C461.494 88.4274 461.43 90.5355 461.156 92.621C461.089 93.1358 461.009 93.6487 460.924 94.1604C460.853 94.5868 460.895 95.1155 460.775 95.5207C460.583 96.1697 459.761 96.3821 459.207 96.2806C457.708 96.0057 456.751 94.1148 456.239 92.7332C455.585 90.969 455.238 89.0555 454.896 87.1963C454.508 85.0901 454.281 82.9517 454.174 80.8073C453.958 76.4492 454.236 72.0864 454.546 67.7423C454.719 65.3263 454.919 62.921 455.224 60.5199C455.528 58.1292 455.919 55.7491 456.173 53.3513C456.357 51.6088 456.539 49.864 456.659 48.1148C456.687 47.6977 456.711 45.0256 457.32 45.0256Z" fill="#6F9997"/>
<path fill-rule="evenodd" clip-rule="evenodd" d="M457.872 76.5488C458.052 70.6385 460.379 44.6774 460.909 37.5302C461.041 35.7413 462.316 28.2929 462.481 26.2649C462.929 26.8381 462.891 35.7606 462.886 37.8107C462.881 39.8387 463.127 41.8331 463.254 43.8502C463.383 45.9084 466.364 72.4892 466.75 74.4668C467.52 78.4012 468.035 82.4387 468.432 86.4614C468.819 90.3823 469.42 94.5188 468.903 98.4603C468.784 99.3677 468.595 100.26 468.289 101.094C467.957 101.995 467.73 102.828 467.464 103.77C467.036 105.288 466.262 106.62 465.073 107.247C462.634 108.532 461.325 105.623 460.661 103.091C459.601 99.0462 458.92 94.9359 458.601 90.6884C458.248 85.9892 457.727 81.2804 457.872 76.5488Z" fill="#8DC7C5"/>
<path d="M484.291 98.3256C484.291 111.23 473.75 121.69 460.748 121.69C447.746 121.69 437.205 111.23 437.205 98.3256C437.205 91.6295 440.043 85.5914 444.591 81.3314C444.591 81.3314 454.493 81.3314 460.748 81.3314C467.003 81.3314 476.905 81.3314 476.905 81.3314C481.452 85.5914 484.291 91.6295 484.291 98.3256Z" fill="#D4DAE1"/>
<rect x="334.064" y="90.3" width="4.48433" height="28.027" fill="#D4DAE1"/>
<rect x="347.518" y="91.4211" width="4.48433" height="26.906" fill="#D4DAE1"/>
<rect x="353.123" y="91.4211" width="4.48433" height="26.906" fill="#D4DAE1"/>
<rect x="358.73" y="91.4211" width="14.5741" height="26.906" fill="#F6F8FA"/>
<rect x="339.672" y="85.8157" width="6.72649" height="32.5114" fill="#D4DAE1"/>
<rect x="326.219" y="91.4211" width="6.72649" height="26.906" fill="#D4DAE1"/>
<path d="M262.645 222.862L513.913 223.301L513.933 233.485L262.665 233.046L262.645 222.862Z" fill="#E2E9F1"/>
<rect x="255.59" y="124.301" width="236.548" height="104.261" fill="#F6F8FA"/>
<rect x="492.139" y="124.301" width="26.906" height="104.261" fill="#EAEFF4"/>
<rect x="252.227" y="118.696" width="239.911" height="6.72649" fill="#EAEFF4"/>
<rect x="274.65" y="137.754" width="199.552" height="19.0584" fill="#EAEFF4"/>
<rect x="274.65" y="165.781" width="199.552" height="19.0584" fill="#EAEFF4"/>
<rect x="274.65" y="196.05" width="199.552" height="19.0584" fill="#EAEFF4"/>
<rect x="492.139" y="118.696" width="26.906" height="6.72649" fill="#E2E9F1"/>
<rect x="347.518" y="86.3232" width="17.9373" height="5.60541" fill="#F6F8FA"/>
</svg>
