<svg width="518" height="598" viewBox="0 0 518 598" fill="none" xmlns="http://www.w3.org/2000/svg">
<path opacity="0.8" fill-rule="evenodd" clip-rule="evenodd" d="M293.301 42.6746C342.949 56.8268 388.441 78.0916 427.806 111.494C464.551 142.673 495.301 180.322 509.712 226.308C524.015 271.948 514.068 318.873 507.646 366.269C499.618 425.516 508.342 492.798 467.666 536.618C424.757 582.843 356.303 600.132 293.301 597.178C231.899 594.299 180.334 556.685 130.423 520.806C80.2481 484.737 23.7899 449.163 5.35281 390.184C-13.0088 331.446 20.6925 272.457 34.0056 212.374C49.1572 143.994 29.929 53.1392 88.5327 14.7851C147.618 -23.884 225.391 23.3173 293.301 42.6746Z" fill="#F6F8FA"/>
</svg>
