<svg width="1399" height="1269" viewBox="0 0 1399 1269" fill="none" xmlns="http://www.w3.org/2000/svg">
<path opacity="0.5" fill-rule="evenodd" clip-rule="evenodd" d="M337.276 455.53C427.327 330.539 601.266 427.649 737.892 393.731C835.518 369.495 924.061 278.42 1019.04 286.279C1119.51 294.593 1187.22 372.344 1260.1 436.942C1353.09 519.365 1496.1 574.769 1500.81 713.294C1505.52 851.612 1382.07 979.349 1282.26 1088.14C1196.45 1181.67 1091.23 1251.91 978.33 1282.76C877.912 1310.2 791.126 1261.41 694.36 1248.78C586.149 1234.64 441.744 1291.69 378.472 1204.43C315.302 1117.31 413.663 970.257 407.198 852.733C399.463 712.107 248.693 578.483 337.276 455.53Z" fill="#F6F8FA"/>
</svg>
