<svg width="500" height="393" viewBox="0 0 500 393" fill="none" xmlns="http://www.w3.org/2000/svg">
<g id="ashlyn-banner" clip-path="url(#clip0)">
<path id="dashed" d="M300.342 261.011L300.339 260.172C298.672 260.177 296.979 260.148 295.308 260.087L295.277 260.925C296.959 260.987 298.663 261.016 300.342 261.011ZM305.404 260.897C307.08 260.826 308.781 260.72 310.458 260.582L310.39 259.747C308.723 259.884 307.034 259.989 305.369 260.06L305.404 260.897ZM290.221 260.638L290.285 259.801C288.62 259.674 286.936 259.51 285.278 259.316L285.18 260.148C286.849 260.344 288.545 260.509 290.221 260.638ZM315.497 260.066C317.168 259.861 318.854 259.619 320.51 259.348L320.374 258.52C318.73 258.79 317.054 259.03 315.394 259.234L315.497 260.066ZM280.163 259.457L280.294 258.629C278.649 258.369 276.983 258.07 275.343 257.742L275.178 258.564C276.829 258.895 278.507 259.195 280.163 259.457H280.163ZM325.49 258.428C327.139 258.088 328.801 257.711 330.429 257.307L330.227 256.493C328.61 256.895 326.959 257.269 325.321 257.606L325.49 258.428ZM270.233 257.469L270.431 256.655C268.806 256.261 267.17 255.828 265.567 255.37L265.336 256.176C266.95 256.638 268.597 257.073 270.233 257.469H270.233ZM335.319 255.986C336.934 255.514 338.56 255.004 340.151 254.469L339.883 253.674C338.303 254.206 336.688 254.713 335.084 255.182L335.319 255.986ZM260.497 254.684L260.76 253.889C259.175 253.365 257.579 252.802 256.016 252.214L255.72 252.998C257.294 253.59 258.901 254.158 260.497 254.684H260.497ZM344.93 252.752C346.502 252.151 348.084 251.508 349.634 250.842L349.303 250.072C347.763 250.734 346.191 251.372 344.631 251.968L344.93 252.752ZM251.03 251.125L251.357 250.353C249.822 249.704 248.28 249.015 246.776 248.305L246.418 249.064C247.933 249.778 249.485 250.471 251.03 251.125H251.03ZM354.256 248.744C355.776 248.016 357.301 247.248 358.787 246.461L358.394 245.721C356.918 246.502 355.404 247.265 353.894 247.988L354.256 248.744ZM241.89 246.817L242.279 246.074C240.799 245.302 239.317 244.49 237.874 243.662L237.456 244.388C238.909 245.222 240.401 246.039 241.89 246.817V246.817ZM363.221 243.998C364.679 243.148 366.136 242.26 367.55 241.358L367.099 240.651C365.694 241.547 364.247 242.43 362.798 243.274L363.221 243.998ZM233.122 241.783L233.568 241.073C232.16 240.187 230.747 239.259 229.369 238.313L228.895 239.004C230.281 239.956 231.704 240.891 233.122 241.783V241.783ZM371.769 238.547C373.152 237.585 374.532 236.583 375.87 235.569L375.364 234.901C374.035 235.908 372.664 236.903 371.29 237.859L371.769 238.547ZM224.781 236.058L225.283 235.387C223.951 234.391 222.616 233.352 221.317 232.298L220.788 232.949C222.096 234.01 223.44 235.056 224.781 236.058V236.058ZM379.848 232.43C381.146 231.362 382.441 230.253 383.696 229.134L383.138 228.509C381.891 229.62 380.605 230.722 379.315 231.782L379.848 232.43ZM216.922 229.681L217.476 229.052C216.223 227.95 214.975 226.806 213.768 225.655L213.189 226.262C214.405 227.421 215.66 228.571 216.922 229.681ZM387.408 225.688C388.614 224.523 389.815 223.314 390.978 222.097L390.372 221.518C389.216 222.727 388.023 223.928 386.825 225.085L387.408 225.688ZM209.595 222.694L210.198 222.11C209.038 220.912 207.885 219.673 206.772 218.426L206.146 218.985C207.267 220.239 208.428 221.487 209.595 222.694V222.694ZM394.401 218.367C395.515 217.104 396.616 215.804 397.672 214.504L397.021 213.975C395.972 215.267 394.879 216.558 393.772 217.813L394.401 218.367ZM202.848 215.14L203.495 214.607C202.431 213.315 201.381 211.987 200.374 210.658L199.705 211.165C200.72 212.502 201.777 213.839 202.848 215.14V215.14ZM400.784 210.514C401.79 209.169 402.783 207.786 403.734 206.403L403.042 205.928C402.098 207.302 401.112 208.676 400.113 210.011L400.784 210.514ZM196.725 207.066L197.413 206.587C196.456 205.213 195.515 203.804 194.618 202.399L193.911 202.85C194.814 204.264 195.761 205.683 196.725 207.066ZM406.515 202.178C407.409 200.759 408.286 199.302 409.123 197.847L408.397 197.429C407.565 198.874 406.693 200.322 405.805 201.732L406.515 202.178ZM191.267 198.523L191.991 198.101C191.147 196.653 190.323 195.172 189.542 193.699L188.801 194.091C189.587 195.574 190.417 197.065 191.267 198.523V198.523ZM411.555 193.414C412.331 191.928 413.088 190.406 413.805 188.889L413.046 188.531C412.335 190.038 411.583 191.55 410.812 193.026L411.555 193.414ZM186.515 189.563L187.271 189.2C186.549 187.693 185.846 186.149 185.184 184.612L184.414 184.944C185.08 186.491 185.787 188.045 186.515 189.563ZM415.869 184.279C416.525 182.733 417.156 181.156 417.746 179.591L416.961 179.296C416.375 180.849 415.748 182.416 415.097 183.952L415.869 184.279ZM182.501 180.242L183.284 179.942C182.685 178.376 182.109 176.779 181.576 175.197L180.781 175.465C181.319 177.058 181.897 178.665 182.501 180.242V180.242ZM419.435 174.817C419.964 173.222 420.466 171.594 420.929 169.979L420.123 169.749C419.663 171.352 419.164 172.969 418.639 174.554L419.435 174.817ZM179.26 170.634L180.065 170.399C179.598 168.801 179.155 167.168 178.751 165.544L177.937 165.747C178.344 167.381 178.79 169.026 179.26 170.634ZM422.226 165.084C422.624 163.451 422.993 161.788 423.323 160.142L422.501 159.976C422.173 161.612 421.806 163.264 421.411 164.886L422.226 165.084ZM176.813 160.81L177.635 160.641C177.298 159.009 176.99 157.345 176.718 155.696L175.89 155.832C176.164 157.492 176.474 159.167 176.813 160.81V160.81ZM424.22 155.158C424.483 153.502 424.717 151.815 424.914 150.143L424.081 150.045C423.885 151.706 423.653 153.382 423.391 155.026L424.22 155.158ZM175.169 150.819L176.001 150.717C175.797 149.058 175.623 147.375 175.486 145.714L174.65 145.783C174.788 147.455 174.963 149.149 175.169 150.819V150.819ZM425.406 145.104C425.536 143.429 425.633 141.728 425.696 140.049L424.858 140.018C424.796 141.686 424.699 143.375 424.57 145.039L425.406 145.104ZM174.332 140.731L175.169 140.695C175.098 139.025 175.059 137.333 175.054 135.667L175.053 135.389L174.215 135.392L174.215 135.667C174.221 137.346 174.26 139.049 174.332 140.731V140.731ZM424.947 134.989L425.785 134.986L425.784 134.845C425.779 133.21 425.742 131.553 425.674 129.925L424.836 129.96C424.904 131.578 424.941 133.223 424.946 134.85L424.947 134.989ZM175.147 130.361C175.211 128.696 175.31 127.007 175.441 125.34L174.605 125.274C174.473 126.952 174.374 128.653 174.31 130.329L175.147 130.361ZM424.526 124.94L425.362 124.872C425.225 123.193 425.052 121.499 424.848 119.834L424.015 119.936C424.218 121.589 424.389 123.273 424.526 124.94ZM175.935 120.334C176.132 118.68 176.365 117.005 176.63 115.354L175.802 115.221C175.536 116.883 175.3 118.57 175.103 120.236L175.935 120.334ZM423.305 114.958L424.132 114.822C423.861 113.163 423.552 111.488 423.214 109.843L422.393 110.011C422.729 111.645 423.035 113.309 423.305 114.958H423.305ZM177.526 110.404C177.858 108.765 178.226 107.114 178.622 105.496L177.807 105.297C177.408 106.926 177.038 108.588 176.704 110.239L177.526 110.404ZM421.282 105.106L422.096 104.904C421.692 103.274 421.249 101.629 420.778 100.015L419.973 100.249C420.44 101.853 420.881 103.487 421.282 105.106ZM179.915 100.635C180.376 99.0327 180.877 97.4163 181.404 95.8314L180.608 95.5671C180.078 97.1627 179.573 98.7899 179.109 100.403L179.915 100.635ZM418.468 95.4504L419.263 95.1833C418.727 93.5888 418.15 91.9809 417.548 90.4044L416.765 90.7033C417.363 92.2694 417.936 93.8665 418.468 95.4504V95.4504ZM183.088 91.0917C183.679 89.5304 184.307 87.9643 184.957 86.437L184.185 86.1091C183.531 87.6468 182.898 89.2232 182.303 90.795L183.088 91.0917ZM414.87 86.0308L415.641 85.7C414.977 84.1533 414.272 82.5984 413.545 81.079L412.789 81.4405C413.511 82.9499 414.211 84.4944 414.87 86.0308H414.87ZM187.013 81.8598C187.726 80.3547 188.479 78.8434 189.252 77.3678L188.51 76.9787C187.731 78.4643 186.972 79.9857 186.255 81.5012L187.013 81.8598ZM410.523 76.9395L411.264 76.5478C410.478 75.0609 409.649 73.5691 408.803 72.1135L408.078 72.535C408.919 73.9808 409.742 75.4628 410.523 76.9395ZM191.672 72.9683C192.506 71.5224 193.379 70.0757 194.268 68.6681L193.559 68.2205C192.664 69.6376 191.785 71.0941 190.946 72.5494L191.672 72.9683ZM405.457 68.2341L406.164 67.7835C405.26 66.3646 404.315 64.945 403.355 63.5643L402.666 64.0428C403.62 65.4143 404.559 66.8244 405.457 68.2341ZM197.036 64.4744C197.983 63.101 198.97 61.7281 199.97 60.3944L199.299 59.8915C198.292 61.2342 197.298 62.6161 196.346 63.999L197.036 64.4744ZM399.71 59.968L400.378 59.4623C399.364 58.1209 398.308 56.7824 397.241 55.4838L396.593 56.016C397.653 57.3059 398.701 58.6355 399.71 59.968V59.968ZM203.066 56.434C204.119 55.1405 205.214 53.8505 206.319 52.6L205.69 52.0449C204.578 53.3038 203.476 54.6024 202.416 55.9048L203.066 56.434ZM393.32 52.1927L393.946 51.6351C392.829 50.3812 391.67 49.132 390.501 47.9221L389.898 48.5045C391.059 49.7063 392.21 50.9474 393.32 52.1927H393.32ZM209.723 48.8979C210.88 47.6904 212.074 46.4916 213.274 45.3345L212.692 44.731C211.484 45.8959 210.282 47.1027 209.118 48.3182L209.723 48.8979ZM386.332 44.9566L386.911 44.3505C385.698 43.1905 384.443 42.0386 383.182 40.9264L382.627 41.5549C383.88 42.6598 385.126 43.8043 386.332 44.9566L386.332 44.9566ZM216.965 41.9152C218.214 40.8036 219.502 39.7035 220.791 38.6459L220.259 37.9977C218.961 39.0626 217.665 40.1699 216.408 41.2891L216.965 41.9152ZM378.79 38.3049L379.32 37.6548C378.015 36.5937 376.673 35.5462 375.33 34.5411L374.828 35.2121C376.161 36.2104 377.495 37.2512 378.79 38.3049L378.79 38.3049ZM224.746 35.5318C226.081 34.5237 227.453 33.53 228.823 32.5783L228.345 31.8897C226.965 32.8478 225.584 33.8481 224.241 34.863L224.746 35.5318ZM370.744 32.2803L371.22 31.5898C369.834 30.6367 368.413 29.7004 366.995 28.8069L366.548 29.5162C367.956 30.4035 369.368 31.3335 370.744 32.2803ZM233.017 29.7902C234.428 28.8928 235.876 28.0122 237.321 27.1731L236.9 26.4482C235.446 27.293 233.988 28.1795 232.567 29.0829L233.017 29.7902ZM362.246 26.9237L362.664 26.1969C361.211 25.3611 359.72 24.5423 358.233 23.7639L357.844 24.5065C359.322 25.2798 360.803 26.0931 362.246 26.9236V26.9237ZM241.728 24.7308C243.206 23.9502 244.721 23.189 246.231 22.4683L245.87 21.7117C244.35 22.4372 242.824 23.2036 241.336 23.9895L241.728 24.7308ZM353.35 22.2699L353.708 21.5118C352.194 20.7961 350.642 20.1008 349.098 19.4451L348.77 20.2168C350.305 20.868 351.845 21.5587 353.35 22.2699L353.35 22.2699ZM250.824 20.3895C252.363 19.7301 253.935 19.0939 255.498 18.4981L255.199 17.7148C253.626 18.3145 252.042 18.9552 250.493 19.6189L250.824 20.3895ZM344.113 18.351L344.409 17.5666C342.838 16.9736 341.232 16.4046 339.635 15.875L339.372 16.6708C340.957 17.1968 342.553 17.7622 344.113 18.351ZM260.248 16.7977C261.831 16.2671 263.446 15.7617 265.049 15.2958L264.815 14.491C263.201 14.96 261.575 15.4686 259.982 16.0027L260.248 16.7977ZM334.565 15.1838L334.797 14.3782C333.183 13.9144 331.536 13.4772 329.901 13.0787L329.703 13.8932C331.326 14.2891 332.962 14.7234 334.565 15.1838ZM269.907 13.99C271.525 13.5899 273.176 13.2171 274.815 12.882L274.647 12.0606C272.997 12.398 271.335 12.7735 269.706 13.1761L269.907 13.99ZM324.792 12.8013L324.958 11.9796C323.313 11.6485 321.636 11.3462 319.974 11.0808L319.841 11.9085C321.493 12.1723 323.158 12.4726 324.792 12.8013ZM279.762 11.9735C281.411 11.7053 283.086 11.4669 284.743 11.2654L284.642 10.4331C282.974 10.636 281.287 10.8759 279.628 11.1462L279.762 11.9735ZM314.859 11.2162L314.958 10.3837C313.289 10.1861 311.593 10.0195 309.918 9.8891L309.852 10.7248C311.517 10.8546 313.201 11.0199 314.859 11.2162V11.2162ZM289.748 10.7578C291.41 10.6228 293.099 10.5194 294.769 10.4507L294.735 9.61288C293.054 9.68224 291.353 9.78625 289.68 9.9221L289.748 10.7578ZM304.83 10.434L304.861 9.59635C303.184 9.53266 301.481 9.50179 299.798 9.50443L299.799 10.3428C301.471 10.3402 303.164 10.3709 304.83 10.434V10.434Z" fill="#0067F2"/>
<path id="background" d="M43.1037 227.768L111.504 346.264L137.925 392.014L142.959 389.11L193.229 360.094L230.756 338.432L367.206 259.675L348.115 0L43.1037 227.768Z" fill="#E5F0FD"/>
<g id="ashlyn">
<path id="right-hand" d="M217.431 235L222.84 271.619C222.84 271.619 221.427 297.265 212.759 288.025C204.091 278.785 212.324 264.112 212.324 264.112L198.058 224.223L217.431 235Z" fill="#FDC8C8"/>
<path id="pants" d="M124 368L138 392L150 385L165.5 300L169.5 374L195 359C195 359 202.5 300.063 202.5 296C202.5 289 202.5 273 202.5 273L137.999 239.001C137.999 239.001 129 248.379 126 266C123 283.621 129.5 334 129.5 334L124 368Z" fill="#243953"/>
<path id="hair-back-bun" d="M179.23 93.2489C175.637 93.417 172.587 90.6408 172.419 87.0479C172.251 83.4551 175.028 80.4063 178.622 80.2382C182.216 80.0701 185.265 82.8464 185.433 86.4392C185.601 90.032 182.824 93.0808 179.23 93.2489Z" fill="#55350F"/>
<path id="hair-back-round" d="M162.983 101.936C166.3 110.423 171.135 118.071 180.239 117.646C189.343 117.22 195.864 109.505 195.952 100.394C196.065 88.7516 188.009 84.2011 178.697 84.685C167.696 85.2565 159.047 91.8644 162.983 101.936Z" fill="#5C3C16"/>
<g id="Head">
<path id="Vector" d="M174.279 113.405L200.85 118.155C200.85 118.155 198 128.5 195.78 135C193.561 141.5 199 144.313 199 149.5C199 153.5 197 157.5 197 157.5L167.355 152.119L174.279 113.405Z" fill="#55350F"/>
<path id="Vector_2" d="M179.851 135.481C167.736 136.048 157.456 126.689 156.889 114.577C156.322 102.465 165.684 92.1868 177.799 91.6201C189.914 91.0533 200.195 100.413 200.761 112.524C201.328 124.636 191.966 134.914 179.851 135.481Z" fill="#FDC8C8"/>
</g>
<path id="Neck" d="M183.254 130.996C183.254 130.996 181.1 146.5 185 153C189.499 160.5 166.5 176.5 166.5 176.5C166.5 176.5 167.066 128.372 163.337 120.939L183.254 130.996Z" fill="#FDC8C8"/>
<path id="Neck_2" d="M176.5 148.286L174.5 149.071C167 148.286 160 151.5 160 151.5L158.5 143.286L169.5 146.786L176.5 148.286Z" fill="#EDBBBB"/>
<path id="Neck_3" d="M179.007 148.316L180.575 149.785C187.834 151.827 193.15 157.401 193.15 157.401L194 153.5L183.5 149L179.007 148.316Z" fill="#EDBBBB"/>
<path id="Neck_4" d="M183.5 149C183.5 149 182 149 181 144C180 139 181 135 181 135L182.999 135C182.999 135 182.5 141 183 145C183.5 149 183.5 149 183.5 149Z" fill="#E2B3B3"/>
<path id="shirt-left" d="M145 144L137 140.5C137 140.5 110.5 153 107 175C107.979 196.536 110.5 199.762 109.498 199.716C115.37 200.577 132.494 190.24 132.005 188.517C131.516 186.794 126.5 174 126.5 174L145 162V144Z" fill="#2C649C"/>
<path id="Hair-whisp" d="M186.387 86.877C186.588 85.2752 186.187 83.6557 185.261 82.3329C184.336 81.01 182.951 80.078 181.377 79.7176C181.593 79.7231 181.81 79.7387 182.028 79.7661C183.742 79.9813 185.301 80.8685 186.361 82.2325C187.42 83.5965 187.895 85.3255 187.68 87.0393C187.465 88.7531 186.577 90.3112 185.213 91.3708C183.849 92.4304 182.119 92.9048 180.405 92.6896C180.187 92.6622 179.973 92.6236 179.763 92.5758C181.377 92.6157 182.949 92.0548 184.173 91.0018C185.397 89.9488 186.186 88.4788 186.387 86.877Z" fill="#644624"/>
<path id="hair-back" d="M163.165 127.189C164.048 122.148 155.928 112.534 158.859 109.194C162.981 107.568 159.682 102.432 163.146 102.519C162.707 102.374 159.406 102.802 157.602 106.739C158.989 110.076 155.957 108.743 154.955 112.86C152.514 118.341 153.617 125.14 153.176 127.657C152.231 133.051 146.075 139.87 147.973 144.133C149.872 148.397 152.978 151.15 156.607 151.785C157.069 151.866 157.532 151.91 157.994 151.922C154.707 150.827 151.989 147.929 150.368 143.791C148.747 139.654 162.282 132.231 163.165 127.189Z" fill="#55350F"/>
<path id="Vector_3" d="M199.001 156C199.001 156 227.947 240.778 219.5 245C211.054 249.222 197.5 249.5 197.5 249.5L199.001 156Z" fill="#357BB9"/>
<path id="shirt-middle" d="M154 136.5C154.618 137.5 157.922 137.209 158.694 138.095C159.539 138.94 164.607 139.784 165.451 141.473C166.296 143.162 178 159.5 182.5 159.5C187 159.5 183.5 149 183.5 149C183.5 149 200.001 153.278 200.001 157.5C200.001 161.722 203.423 167.393 204.5 174C205.787 181.899 207.682 185 200.001 199C196.469 205.435 195.729 210.283 197 225C199.03 248.478 211.731 284.943 205.5 286.5C195.365 289.033 168.83 289.244 159.539 276.578C150.248 263.912 142.136 252.344 132 251.5C121.865 250.656 140.957 216.625 140.957 216.625L142.5 185L135.5 141.473C135.5 141.473 144.5 134 154 136.5Z" fill="#2C649C"/>
<path id="postit-hand" d="M162 250.586H135.662C133.865 241.128 133.865 231.459 135.662 222H162C159.033 231.337 159.033 241.249 162 250.586Z" fill="#A9D9F6"/>
<path id="left-hand" d="M125.818 186.335L150.659 213.778C150.659 213.778 163.733 235.887 151.392 233.02C139.052 230.153 137.746 213.379 137.746 213.379L111.766 194.076L125.818 186.335Z" fill="#FDC8C8"/>
<path id="shirt sleave" d="M120.435 172.73L112.49 189.089C112.49 189.089 111.913 174.6 109 170C107.749 173.347 108 176.499 107.5 178.5C107 180.501 109.313 202.5 111 202.5C112.687 202.5 133.482 193.048 132.989 191.309C132.496 189.569 129.046 180.87 129.046 180.87L121.229 180.001L120.435 172.73Z" fill="#2C649C"/>
<g id="glasses-shaddow">
<path id="Union" fill-rule="evenodd" clip-rule="evenodd" d="M193.94 107.185C193.772 107.157 192.667 106.979 191.458 106.858C190.852 106.798 190.228 106.753 189.686 106.747C189.125 106.741 188.714 106.779 188.496 106.851L188.493 106.853C188.49 106.854 188.486 106.856 188.477 106.86C188.359 106.923 188.005 107.114 187.615 107.374C187.215 107.64 186.82 107.949 186.586 108.241C186.256 108.653 186.11 109.213 186.115 109.887C186.12 110.56 186.276 111.301 186.501 112.019C186.95 113.455 187.647 114.706 187.792 114.959C187.82 115.008 187.844 115.055 187.865 115.102C188.526 116.531 190.31 117.517 192.194 117.659C193.212 117.736 194.04 117.787 194.843 117.642C195.627 117.5 196.409 117.165 197.296 116.428C198.158 115.711 198.982 114.443 199.472 113.091C199.806 112.169 199.963 111.272 199.91 110.524L199.878 110.522L199.861 110.136C199.822 109.925 199.763 109.73 199.682 109.554C199.535 109.235 199.228 108.926 198.779 108.64L198.676 108.577C198.653 108.563 198.63 108.549 198.606 108.535C198.07 108.225 197.416 107.973 196.757 107.775C195.44 107.379 194.183 107.216 194.006 107.195C193.983 107.192 193.965 107.189 193.94 107.185ZM198.928 107.57C198.341 107.254 197.678 107.008 197.045 106.817C195.648 106.397 194.325 106.226 194.128 106.202C194.116 106.201 194.111 106.2 194.102 106.198C193.926 106.169 192.798 105.987 191.557 105.863C190.937 105.802 190.281 105.753 189.697 105.747C189.132 105.741 188.571 105.772 188.18 105.903C188.113 105.925 188.058 105.951 188.011 105.976C187.877 106.046 187.49 106.256 187.061 106.541C186.763 106.74 186.423 106.989 186.131 107.266C186.06 107.201 185.983 107.134 185.902 107.066C185.499 106.728 184.892 106.291 184.281 106.192C183.681 106.094 182.957 106.288 182.451 106.461C182.184 106.552 181.949 106.648 181.781 106.721C181.697 106.758 181.628 106.789 181.581 106.811C181.557 106.823 181.538 106.832 181.525 106.838L181.509 106.845L181.505 106.848L181.503 106.848L181.503 106.849L181.503 106.849C181.503 106.849 181.503 106.849 181.724 107.297C181.946 107.745 181.946 107.745 181.946 107.745L181.946 107.745L181.948 107.744L181.959 107.739C181.968 107.734 181.984 107.727 182.004 107.717C182.044 107.699 182.104 107.671 182.179 107.639C182.33 107.573 182.539 107.488 182.775 107.407C183.274 107.237 183.788 107.125 184.12 107.179C184.433 107.23 184.846 107.489 185.233 107.81C185.157 107.922 185.065 108.059 184.97 108.202C184.855 108.376 184.734 108.562 184.636 108.723C184.551 108.864 184.446 109.043 184.403 109.174C184.365 109.289 184.366 109.4 184.369 109.467C184.374 109.543 184.385 109.623 184.4 109.698C184.429 109.848 184.476 110.022 184.531 110.198C184.641 110.552 184.795 110.959 184.939 111.3C185.011 111.471 185.082 111.63 185.147 111.761C185.205 111.877 185.276 112.012 185.349 112.104C185.368 112.128 185.405 112.172 185.458 112.213L185.458 112.213C185.468 112.221 185.492 112.239 185.528 112.259C185.534 112.279 185.54 112.299 185.546 112.318C186.028 113.857 186.766 115.181 186.925 115.457C186.936 115.476 186.946 115.497 186.958 115.522C187.82 117.388 190.008 118.497 192.119 118.657C193.12 118.732 194.074 118.797 195.022 118.626C195.988 118.451 196.927 118.036 197.936 117.197C198.969 116.337 199.879 114.902 200.412 113.431C200.77 112.445 200.98 111.378 200.905 110.416L201.082 109.552C201.248 108.746 200.732 107.957 199.927 107.784L198.928 107.57Z" fill="#F2C0C0"/>
<path id="Union_2" fill-rule="evenodd" clip-rule="evenodd" d="M174.308 105.534C174.478 105.535 175.586 105.549 176.789 105.637C177.39 105.681 178.007 105.743 178.537 105.829C179.086 105.919 179.481 106.026 179.68 106.133L179.684 106.135C179.686 106.137 179.69 106.14 179.697 106.145C179.802 106.227 180.115 106.474 180.452 106.794C180.797 107.121 181.13 107.491 181.308 107.815C181.56 108.272 181.607 108.843 181.488 109.499C181.369 110.155 181.091 110.852 180.749 111.515C180.066 112.84 179.174 113.943 178.988 114.167C178.952 114.211 178.92 114.253 178.891 114.295C178.004 115.577 176.095 116.236 174.231 116.054C173.224 115.956 172.406 115.865 171.647 115.586C170.906 115.315 170.2 114.856 169.46 113.984C168.74 113.138 168.151 111.76 167.903 110.356C167.734 109.399 167.733 108.497 167.912 107.776L167.944 107.779L168.025 107.405C168.1 107.206 168.191 107.026 168.299 106.869C168.496 106.583 168.847 106.334 169.334 106.131L169.447 106.086C169.471 106.077 169.496 106.068 169.521 106.058C170.097 105.846 170.779 105.712 171.456 105.631C172.809 105.467 174.064 105.522 174.241 105.532C174.264 105.533 174.283 105.533 174.308 105.534ZM169.369 105.052C169.996 104.844 170.686 104.716 171.336 104.638C172.773 104.464 174.094 104.523 174.292 104.533C174.303 104.533 174.308 104.534 174.318 104.534C174.496 104.535 175.628 104.549 176.861 104.64C177.477 104.685 178.127 104.749 178.698 104.842C179.251 104.933 179.794 105.059 180.154 105.253C180.217 105.286 180.267 105.322 180.308 105.354C180.428 105.446 180.77 105.717 181.141 106.069C181.397 106.312 181.686 106.612 181.924 106.931C182.003 106.881 182.088 106.829 182.178 106.777C182.63 106.516 183.297 106.192 183.913 106.199C184.516 106.205 185.191 106.518 185.656 106.774C185.902 106.908 186.115 107.042 186.267 107.142C186.343 107.192 186.405 107.234 186.447 107.264C186.469 107.279 186.486 107.291 186.498 107.3L186.511 107.31L186.515 107.313L186.517 107.314L186.517 107.314L186.517 107.314C186.517 107.314 186.517 107.314 186.222 107.718C185.927 108.121 185.927 108.121 185.927 108.121L185.927 108.121L185.925 108.12L185.916 108.113C185.907 108.107 185.893 108.097 185.875 108.084C185.839 108.059 185.785 108.022 185.717 107.977C185.581 107.888 185.391 107.769 185.175 107.65C184.717 107.399 184.234 107.202 183.902 107.199C183.589 107.195 183.144 107.377 182.712 107.624C182.768 107.745 182.834 107.893 182.901 108.047C182.984 108.237 183.07 108.439 183.139 108.614C183.198 108.765 183.27 108.958 183.29 109.095C183.308 109.214 183.288 109.323 183.273 109.388C183.256 109.462 183.231 109.538 183.204 109.609C183.15 109.752 183.074 109.913 182.991 110.076C182.823 110.403 182.603 110.775 182.404 111.083C182.305 111.238 182.208 111.381 182.122 111.498C182.046 111.602 181.953 111.722 181.866 111.8C181.843 111.82 181.799 111.857 181.74 111.888L181.74 111.888C181.729 111.894 181.703 111.908 181.665 111.921C181.656 111.938 181.647 111.956 181.638 111.973C180.906 113.394 179.959 114.562 179.757 114.806C179.743 114.823 179.729 114.842 179.713 114.864C178.552 116.542 176.224 117.253 174.134 117.05C173.143 116.953 172.2 116.854 171.303 116.525C170.387 116.189 169.541 115.624 168.698 114.632C167.834 113.616 167.189 112.059 166.918 110.53C166.737 109.506 166.713 108.427 166.95 107.499L166.924 106.635C166.899 105.812 167.543 105.123 168.365 105.091L169.369 105.052Z" fill="#F2C0C0"/>
</g>
<path id="hair" d="M188.233 90.0159C188.233 90.0159 188.364 89.1101 195.162 91.1757C201.96 93.2414 206.756 110.523 203.871 120.928C202.708 125.121 203.939 128.051 205.823 130.055C212.892 137.576 203.811 153.544 200.969 155.039C196.144 161.663 192.352 166.78 196.346 160.53C196.346 160.53 201.299 149.981 198.25 141.639C195.609 134.533 194.979 126.891 196.422 119.465C196.673 118.212 196.963 116.919 197.299 115.598C200.149 104.405 198.579 105.753 186.372 95.2368C186.372 95.2368 180.517 95.4936 174.768 98.1229C169.019 100.752 163.483 108.121 168.02 115.82C172.556 123.52 174.862 131.084 168.631 141.639C162.399 152.193 177.107 150.188 177.444 157.681C177.78 165.174 174.194 167.82 174.194 167.82C174.194 167.82 172.138 170.183 170.529 171.676C169.421 172.704 168.099 174.425 168.47 176.934C169.197 181.857 172.955 188.372 172.955 188.372C172.955 188.372 168.681 186.69 167.26 185.391C165.838 184.092 159.527 175.065 161.825 172.067C164.124 169.069 164.406 163.981 162.625 159.54C160.588 154.457 155.784 156.298 153.686 151.24C153.686 151.24 146.498 140.498 158.584 129.68C158.584 129.68 162.66 127.126 156.451 119.501C150.241 111.877 161.244 93.4729 168.631 89.9797C176.017 86.4864 188.233 90.0159 188.233 90.0159Z" fill="#644624"/>
<g id="Glasses">
<path id="Union_3" fill-rule="evenodd" clip-rule="evenodd" d="M184.12 106.179C183.788 106.125 183.274 106.237 182.775 106.407C182.539 106.488 182.33 106.573 182.179 106.639C182.104 106.671 182.044 106.699 182.004 106.717C181.984 106.727 181.968 106.734 181.959 106.739L181.948 106.744L181.946 106.745L181.946 106.745C181.946 106.745 181.946 106.745 181.724 106.297C181.502 105.849 181.503 105.849 181.503 105.849L181.503 105.849L181.503 105.848L181.505 105.848L181.509 105.845L181.525 105.838C181.538 105.832 181.557 105.823 181.581 105.811C181.628 105.789 181.696 105.758 181.781 105.721C181.949 105.648 182.184 105.552 182.451 105.461C182.957 105.288 183.681 105.094 184.281 105.192C184.892 105.291 185.499 105.728 185.902 106.066C186.115 106.245 186.297 106.418 186.425 106.546C186.449 106.57 186.471 106.592 186.491 106.613C187.111 106.031 188.03 105.531 188.244 105.418C188.275 105.402 188.305 105.388 188.338 105.377C189.556 104.971 193.677 105.635 194.021 105.692C194.038 105.694 194.05 105.696 194.067 105.698C194.339 105.731 196.943 106.069 198.694 107.012L198.876 106.559L199.927 106.784C200.732 106.957 201.248 107.746 201.082 108.552L200.867 109.601L200.414 109.564C200.525 111.674 199.181 114.511 197.616 115.812C195.72 117.389 194.176 117.311 192.156 117.158C190.159 117.007 188.173 115.959 187.411 114.312C187.395 114.276 187.378 114.242 187.358 114.208C187.209 113.948 186.515 112.702 186.049 111.248C186.003 111.277 185.949 111.3 185.885 111.313C185.652 111.363 185.488 111.236 185.458 111.213L185.458 111.213C185.405 111.172 185.368 111.128 185.349 111.104C185.276 111.012 185.205 110.877 185.147 110.761C185.082 110.63 185.011 110.471 184.938 110.3C184.794 109.959 184.641 109.552 184.53 109.198C184.476 109.022 184.429 108.848 184.4 108.698C184.385 108.623 184.374 108.543 184.369 108.467C184.366 108.4 184.365 108.289 184.403 108.174C184.446 108.043 184.551 107.864 184.636 107.723C184.734 107.562 184.855 107.376 184.97 107.202C185.064 107.059 185.157 106.922 185.233 106.81C184.846 106.489 184.433 106.23 184.12 106.179ZM185.808 110.381C185.804 110.362 185.799 110.343 185.795 110.324C185.759 110.323 185.719 110.326 185.678 110.335C185.556 110.361 185.473 110.421 185.417 110.484L185.808 110.381ZM185.638 109.348C185.591 108.824 185.612 108.315 185.737 107.855C185.648 107.991 185.561 108.126 185.491 108.243C185.446 108.316 185.41 108.378 185.384 108.427L185.372 108.449C185.374 108.465 185.377 108.485 185.382 108.51C185.401 108.608 185.436 108.742 185.485 108.901C185.529 109.042 185.581 109.194 185.638 109.348ZM185.368 108.405C185.368 108.405 185.368 108.406 185.368 108.406L185.368 108.41C185.368 108.407 185.368 108.405 185.368 108.405C185.368 108.405 185.368 108.405 185.368 108.405Z" fill="#EBEBEB" fill-opacity="0.34"/>
<path id="Union_4" fill-rule="evenodd" clip-rule="evenodd" d="M193.94 106.185C193.772 106.157 192.667 105.979 191.458 105.858C190.852 105.798 190.228 105.753 189.686 105.747C189.125 105.741 188.714 105.779 188.496 105.851L188.493 105.853C188.49 105.854 188.486 105.856 188.477 105.86C188.359 105.923 188.005 106.114 187.615 106.374C187.215 106.64 186.82 106.949 186.586 107.241C186.256 107.653 186.11 108.213 186.115 108.887C186.12 109.56 186.276 110.301 186.501 111.019C186.95 112.455 187.647 113.706 187.792 113.959C187.82 114.008 187.844 114.055 187.865 114.102C188.526 115.531 190.31 116.517 192.194 116.659C193.212 116.736 194.04 116.787 194.843 116.642C195.627 116.5 196.409 116.165 197.296 115.428C198.158 114.711 198.982 113.443 199.472 112.091C199.806 111.169 199.963 110.272 199.91 109.524L199.878 109.522L199.861 109.136C199.822 108.925 199.763 108.73 199.682 108.554C199.535 108.235 199.228 107.926 198.779 107.64L198.676 107.577C198.653 107.563 198.63 107.549 198.606 107.535C198.07 107.225 197.416 106.973 196.757 106.775C195.44 106.379 194.183 106.216 194.006 106.195C193.983 106.192 193.965 106.189 193.94 106.185ZM198.928 106.57C198.341 106.254 197.678 106.008 197.045 105.817C195.648 105.397 194.325 105.226 194.128 105.202C194.116 105.201 194.111 105.2 194.102 105.198C193.926 105.169 192.798 104.987 191.557 104.863C190.937 104.802 190.281 104.753 189.697 104.747C189.132 104.741 188.571 104.772 188.18 104.903C188.113 104.925 188.058 104.951 188.011 104.976C187.877 105.046 187.49 105.256 187.061 105.541C186.763 105.74 186.423 105.989 186.131 106.266C186.06 106.201 185.983 106.134 185.902 106.066C185.499 105.728 184.892 105.291 184.281 105.192C183.681 105.094 182.957 105.288 182.451 105.461C182.184 105.552 181.949 105.648 181.781 105.721C181.697 105.758 181.628 105.789 181.581 105.811C181.557 105.823 181.538 105.832 181.525 105.838L181.509 105.845L181.505 105.848L181.503 105.848L181.503 105.849L181.503 105.849C181.503 105.849 181.503 105.849 181.724 106.297C181.946 106.745 181.946 106.745 181.946 106.745L181.946 106.745L181.948 106.744L181.959 106.739C181.968 106.734 181.984 106.727 182.004 106.717C182.044 106.699 182.104 106.671 182.179 106.639C182.33 106.573 182.539 106.488 182.775 106.407C183.274 106.237 183.788 106.125 184.12 106.179C184.433 106.23 184.846 106.489 185.233 106.81C185.157 106.922 185.065 107.059 184.97 107.202C184.855 107.376 184.734 107.562 184.636 107.723C184.551 107.864 184.446 108.043 184.403 108.174C184.365 108.289 184.366 108.4 184.369 108.467C184.374 108.543 184.385 108.623 184.4 108.698C184.429 108.848 184.476 109.022 184.531 109.198C184.641 109.552 184.795 109.959 184.939 110.3C185.011 110.471 185.082 110.63 185.147 110.761C185.205 110.877 185.276 111.012 185.349 111.104C185.368 111.128 185.405 111.172 185.458 111.213L185.458 111.213C185.468 111.221 185.492 111.239 185.528 111.259C185.534 111.279 185.54 111.299 185.546 111.318C186.028 112.857 186.766 114.181 186.925 114.457C186.936 114.476 186.946 114.497 186.958 114.522C187.82 116.388 190.008 117.497 192.119 117.657C193.12 117.732 194.074 117.797 195.022 117.626C195.988 117.451 196.927 117.036 197.936 116.197C198.969 115.337 199.879 113.902 200.412 112.431C200.77 111.445 200.98 110.378 200.905 109.416L201.082 108.552C201.248 107.746 200.732 106.957 199.927 106.784L198.928 106.57Z" fill="#7B7771"/>
<path id="Union_5" fill-rule="evenodd" clip-rule="evenodd" d="M183.902 106.199C184.235 106.202 184.717 106.399 185.175 106.65C185.392 106.769 185.582 106.888 185.717 106.977C185.785 107.022 185.839 107.059 185.875 107.084C185.893 107.097 185.907 107.107 185.916 107.113L185.925 107.12L185.927 107.121L185.927 107.121C185.927 107.121 185.927 107.121 186.222 106.718C186.518 106.314 186.518 106.314 186.518 106.314L186.517 106.314L186.517 106.314L186.516 106.313L186.512 106.31L186.498 106.3C186.486 106.291 186.469 106.279 186.448 106.264C186.405 106.234 186.343 106.192 186.267 106.142C186.115 106.042 185.902 105.908 185.657 105.774C185.192 105.518 184.517 105.205 183.913 105.199C183.298 105.192 182.63 105.516 182.179 105.777C181.939 105.916 181.732 106.054 181.586 106.157C181.558 106.177 181.533 106.195 181.509 106.212C181.003 105.539 180.194 104.897 180.003 104.75C179.975 104.728 179.949 104.71 179.918 104.693C178.796 104.09 174.66 104.037 174.313 104.034C174.296 104.033 174.284 104.033 174.267 104.032C173.995 104.018 171.394 103.905 169.524 104.528L169.422 104.05L168.366 104.091C167.543 104.123 166.9 104.812 166.924 105.635L166.956 106.687L167.409 106.729C166.941 108.772 167.771 111.771 169.079 113.308C170.663 115.171 172.184 115.358 174.183 115.552C176.16 115.744 178.278 115.059 179.302 113.58C179.325 113.547 179.347 113.517 179.373 113.487C179.563 113.257 180.451 112.16 181.153 110.822C181.193 110.858 181.242 110.889 181.303 110.914C181.524 111.002 181.707 110.906 181.74 110.888L181.74 110.888C181.799 110.857 181.843 110.82 181.866 110.8C181.953 110.722 182.046 110.602 182.122 110.498C182.208 110.381 182.305 110.238 182.405 110.083C182.603 109.775 182.823 109.403 182.991 109.076C183.074 108.913 183.15 108.752 183.204 108.609C183.231 108.538 183.256 108.462 183.273 108.388C183.288 108.323 183.308 108.214 183.291 108.095C183.271 107.958 183.198 107.765 183.139 107.614C183.07 107.439 182.984 107.237 182.902 107.047C182.834 106.893 182.768 106.745 182.713 106.624C183.144 106.377 183.59 106.195 183.902 106.199ZM181.538 110.013C181.546 109.993 181.554 109.974 181.562 109.955C181.598 109.96 181.635 109.97 181.675 109.985C181.793 110.033 181.865 110.109 181.909 110.182L181.538 110.013ZM181.884 109.016C182.015 108.522 182.079 108.032 182.038 107.57C182.101 107.714 182.16 107.856 182.208 107.979C182.239 108.058 182.264 108.125 182.281 108.177L182.288 108.199C182.284 108.214 182.277 108.233 182.269 108.255C182.234 108.348 182.177 108.472 182.101 108.619C182.037 108.745 181.963 108.88 181.884 109.016ZM182.3 108.156C182.3 108.156 182.3 108.158 182.299 108.161C182.3 108.158 182.3 108.156 182.3 108.156Z" fill="#EBEBEB" fill-opacity="0.34"/>
<path id="Union_6" fill-rule="evenodd" clip-rule="evenodd" d="M174.308 104.534C174.478 104.535 175.586 104.549 176.789 104.637C177.39 104.681 178.007 104.743 178.537 104.829C179.086 104.919 179.481 105.026 179.68 105.133L179.684 105.135C179.686 105.137 179.69 105.14 179.697 105.145C179.802 105.227 180.115 105.474 180.452 105.794C180.797 106.121 181.13 106.491 181.308 106.815C181.56 107.272 181.607 107.843 181.488 108.499C181.369 109.155 181.091 109.852 180.749 110.515C180.066 111.84 179.174 112.943 178.988 113.167C178.952 113.211 178.92 113.253 178.891 113.295C178.004 114.577 176.095 115.236 174.231 115.054C173.224 114.956 172.406 114.865 171.647 114.586C170.906 114.315 170.2 113.856 169.46 112.984C168.74 112.138 168.151 110.76 167.903 109.356C167.734 108.399 167.733 107.497 167.912 106.776L167.944 106.779L168.025 106.405C168.1 106.206 168.191 106.026 168.299 105.869C168.496 105.583 168.847 105.334 169.334 105.131L169.447 105.086C169.471 105.077 169.496 105.068 169.521 105.058C170.097 104.846 170.779 104.712 171.456 104.631C172.809 104.467 174.064 104.522 174.241 104.532C174.264 104.533 174.283 104.533 174.308 104.534ZM169.369 104.052C169.996 103.844 170.686 103.716 171.336 103.638C172.773 103.464 174.094 103.523 174.292 103.533C174.303 103.533 174.308 103.534 174.318 103.534C174.496 103.535 175.628 103.549 176.861 103.64C177.477 103.685 178.127 103.749 178.698 103.842C179.251 103.933 179.794 104.059 180.154 104.253C180.217 104.286 180.267 104.322 180.308 104.354C180.428 104.446 180.77 104.717 181.141 105.069C181.397 105.312 181.686 105.612 181.924 105.931C182.003 105.881 182.088 105.829 182.178 105.777C182.63 105.516 183.297 105.192 183.913 105.199C184.516 105.205 185.191 105.518 185.656 105.774C185.902 105.908 186.115 106.042 186.267 106.142C186.343 106.192 186.405 106.234 186.447 106.264C186.469 106.279 186.486 106.291 186.498 106.3L186.511 106.31L186.515 106.313L186.517 106.314L186.517 106.314L186.517 106.314C186.517 106.314 186.517 106.314 186.222 106.718C185.927 107.121 185.927 107.121 185.927 107.121L185.927 107.121L185.925 107.12L185.916 107.113C185.907 107.107 185.893 107.097 185.875 107.084C185.839 107.059 185.785 107.022 185.717 106.977C185.581 106.888 185.391 106.769 185.175 106.65C184.717 106.399 184.234 106.202 183.902 106.199C183.589 106.195 183.144 106.377 182.712 106.624C182.768 106.745 182.834 106.893 182.901 107.047C182.984 107.237 183.07 107.439 183.139 107.614C183.198 107.765 183.27 107.958 183.29 108.095C183.308 108.214 183.288 108.323 183.273 108.388C183.256 108.462 183.231 108.538 183.204 108.609C183.15 108.752 183.074 108.913 182.991 109.076C182.823 109.403 182.603 109.775 182.404 110.083C182.305 110.238 182.208 110.381 182.122 110.498C182.046 110.602 181.953 110.722 181.866 110.8C181.843 110.82 181.799 110.857 181.74 110.888L181.74 110.888C181.729 110.894 181.703 110.908 181.665 110.921C181.656 110.938 181.647 110.956 181.638 110.973C180.906 112.394 179.959 113.562 179.757 113.806C179.743 113.823 179.729 113.842 179.713 113.864C178.552 115.542 176.224 116.253 174.134 116.05C173.143 115.953 172.2 115.854 171.303 115.525C170.387 115.189 169.541 114.624 168.698 113.632C167.834 112.616 167.189 111.059 166.918 109.53C166.737 108.506 166.713 107.427 166.95 106.499L166.924 105.635C166.899 104.812 167.543 104.123 168.365 104.091L169.369 104.052Z" fill="#7B7771"/>
</g>
<path id="mouth" d="M187.577 124.615C187.577 124.615 184.894 126.647 182.987 126.4C181.16 126.163 179.11 123.713 179.11 123.713" stroke="#C59898"/>
<g id="Eyes">
<path id="Vector 2.3" d="M195.653 112.705C195.653 112.705 194.365 110.641 193.046 110.39C191.783 110.151 189.845 111.452 189.845 111.452" stroke="#C59898"/>
<path id="Vector 2.4" d="M176.797 111.03C176.797 111.03 175.124 109.264 173.782 109.282C172.496 109.298 170.856 110.959 170.856 110.959" stroke="#C59898"/>
</g>
</g>
<g id="blackboard">
<rect width="251.441" height="102.548" transform="translate(249 91)" fill="white"/>
<path id="blackboard_2" d="M249 91H500.441V193.548H249V91Z" fill="#294668"/>
<path id="Vector_4" d="M285.137 129.176H266.391C265.112 121.782 265.112 114.224 266.391 106.83H285.137C283.025 114.129 283.025 121.877 285.137 129.176V129.176Z" fill="#D6E2FE"/>
<path id="Vector_5" d="M301.366 138.695H320.113C321.392 131.301 321.392 123.743 320.113 116.349H301.366C303.478 123.648 303.478 131.396 301.366 138.695V138.695Z" fill="#4E9CD9"/>
<path id="Vector_6" d="M343.048 105.913C346.126 121.422 347.003 137.289 345.651 153.043C345.296 157.145 344.788 161.23 344.129 165.297C343.828 167.146 343.485 168.987 343.133 170.827C342.931 171.881 342.507 173.194 343.17 174.186C344.462 176.119 348.888 175.614 350.838 175.677C354.896 175.809 358.959 175.831 363.018 175.902L375.229 176.115L381.109 176.217C383.112 176.252 385.306 176.563 387.293 176.307C389.909 175.969 389.272 173.231 389.232 171.196C389.154 167.174 389.047 163.152 388.91 159.131C388.371 143.197 387.377 127.286 385.93 111.4C385.746 109.373 385.861 106.949 385.315 104.989C385.094 104.197 384.874 103.968 384.014 103.825C382.042 103.499 379.693 103.843 377.699 103.856L371.029 103.903L343.907 104.092C343.73 104.098 343.563 104.172 343.44 104.299C343.318 104.426 343.249 104.596 343.249 104.772C343.249 104.949 343.318 105.118 343.44 105.245C343.563 105.372 343.73 105.447 343.907 105.453L366.138 105.298L375.92 105.23L381.256 105.193C382.352 105.185 383.377 104.853 384.065 106.06C384.5 106.823 384.322 108.731 384.405 109.62C385.733 123.862 386.697 138.133 387.295 152.431C387.445 156.004 387.572 159.578 387.675 163.152C387.719 164.642 387.758 166.131 387.793 167.621C387.815 168.515 387.834 169.408 387.853 170.302C387.872 171.224 388.253 173.031 387.919 173.878C387.205 175.684 384.022 174.907 382.465 174.88L377.038 174.785L366.184 174.596L355.33 174.406C353.535 174.375 351.738 174.361 349.945 174.285C349.35 174.259 348.754 174.231 348.16 174.189C346.391 174.063 344.486 174.481 344.276 172.036C344.146 170.528 344.971 168.447 345.229 166.938C345.52 165.234 345.784 163.525 346.022 161.813C346.467 158.613 346.821 155.403 347.085 152.182C348.332 136.587 347.415 120.894 344.36 105.551C344.191 104.692 342.878 105.055 343.048 105.912V105.913Z" fill="#F1E5FF"/>
<path id="Vector_7" d="M432.459 105.913C435.538 121.422 436.414 137.289 435.062 153.043C434.707 157.145 434.199 161.23 433.54 165.297C433.239 167.146 432.896 168.987 432.544 170.827C432.342 171.881 431.918 173.194 432.582 174.186C433.873 176.119 438.299 175.614 440.249 175.677C444.307 175.809 448.37 175.831 452.429 175.902L464.64 176.115L470.52 176.217C472.523 176.252 474.717 176.563 476.705 176.307C479.32 175.969 478.683 173.231 478.643 171.196C478.565 167.174 478.458 163.152 478.322 159.131C477.782 143.197 476.789 127.286 475.341 111.4C475.157 109.373 475.272 106.949 474.726 104.989C474.505 104.197 474.286 103.968 473.425 103.825C471.454 103.499 469.104 103.843 467.11 103.856L460.44 103.903L433.318 104.092C433.141 104.098 432.974 104.172 432.851 104.299C432.729 104.426 432.66 104.596 432.66 104.772C432.66 104.949 432.729 105.118 432.851 105.245C432.974 105.372 433.141 105.447 433.318 105.453L455.549 105.298L465.331 105.23L470.667 105.193C471.763 105.185 472.788 104.853 473.476 106.06C473.911 106.823 473.733 108.731 473.816 109.62C475.144 123.862 476.108 138.133 476.706 152.431C476.856 156.004 476.983 159.578 477.087 163.152C477.13 164.642 477.169 166.131 477.205 167.621C477.226 168.515 477.246 169.408 477.264 170.302C477.283 171.224 477.664 173.031 477.33 173.878C476.616 175.684 473.433 174.907 471.877 174.88L466.449 174.785L455.595 174.596L444.741 174.406C442.946 174.375 441.149 174.361 439.356 174.285C438.761 174.259 438.165 174.231 437.571 174.189C435.802 174.063 433.897 174.481 433.687 172.036C433.557 170.528 434.382 168.447 434.64 166.938C434.931 165.234 435.195 163.525 435.433 161.813C435.878 158.613 436.232 155.403 436.496 152.182C437.743 136.587 436.826 120.894 433.772 105.551C433.602 104.692 432.289 105.055 432.459 105.912V105.913Z" fill="#F1E5FF"/>
<path id="Vector_8" d="M349.308 109.416H358.314C358.49 109.41 358.658 109.336 358.78 109.209C358.903 109.082 358.971 108.912 358.971 108.736C358.971 108.559 358.903 108.389 358.78 108.262C358.658 108.135 358.49 108.061 358.314 108.055H349.308C349.132 108.061 348.964 108.135 348.842 108.262C348.719 108.389 348.65 108.559 348.65 108.736C348.65 108.912 348.719 109.082 348.842 109.209C348.964 109.336 349.132 109.41 349.308 109.416V109.416Z" fill="#F1E5FF"/>
<path id="Vector_9" d="M349.307 112.487L357.796 112.166C358.669 112.133 358.674 110.772 357.796 110.805L349.307 111.126C348.434 111.159 348.429 112.52 349.307 112.487Z" fill="#F1E5FF"/>
<path id="Vector_10" d="M349.308 115.076H357.542C357.718 115.069 357.886 114.995 358.008 114.868C358.131 114.741 358.2 114.572 358.2 114.395C358.2 114.218 358.131 114.049 358.008 113.922C357.886 113.795 357.718 113.72 357.542 113.714H349.308C349.132 113.72 348.964 113.795 348.842 113.922C348.719 114.049 348.65 114.218 348.65 114.395C348.65 114.572 348.719 114.741 348.842 114.868C348.964 114.995 349.132 115.069 349.308 115.076V115.076Z" fill="#F1E5FF"/>
<path id="Vector_11" d="M438.719 109.416H447.725C447.901 109.41 448.069 109.336 448.191 109.209C448.314 109.082 448.383 108.912 448.383 108.736C448.383 108.559 448.314 108.389 448.191 108.262C448.069 108.135 447.901 108.061 447.725 108.055H438.719C438.543 108.061 438.375 108.135 438.253 108.262C438.13 108.389 438.062 108.559 438.062 108.736C438.062 108.912 438.13 109.082 438.253 109.209C438.375 109.336 438.543 109.41 438.719 109.416V109.416Z" fill="#F1E5FF"/>
<path id="Vector_12" d="M438.718 112.487L447.207 112.166C448.081 112.133 448.085 110.772 447.207 110.805L438.718 111.126C437.845 111.159 437.84 112.52 438.718 112.487Z" fill="#F1E5FF"/>
<path id="Vector_13" d="M438.719 115.076H446.953C447.13 115.069 447.297 114.995 447.419 114.868C447.542 114.741 447.611 114.572 447.611 114.395C447.611 114.218 447.542 114.049 447.419 113.922C447.297 113.795 447.13 113.72 446.953 113.714H438.719C438.543 113.72 438.375 113.795 438.253 113.922C438.13 114.049 438.062 114.218 438.062 114.395C438.062 114.572 438.13 114.741 438.253 114.868C438.375 114.995 438.543 115.069 438.719 115.076V115.076Z" fill="#F1E5FF"/>
<path id="Vector_14" d="M466.005 108.777C464.157 107.813 462.48 109.398 462.219 111.21C462.092 112.095 462.065 113.306 462.629 114.058C463.205 114.826 464.314 115.149 465.235 115.205C466.992 115.314 468.862 114.334 469.295 112.534C469.498 111.735 469.399 110.889 469.016 110.159C468.632 109.43 467.992 108.867 467.219 108.582C466.389 108.294 466.032 109.609 466.857 109.894C467.239 110.053 467.559 110.332 467.769 110.688C467.979 111.044 468.068 111.459 468.022 111.87C467.968 112.343 467.761 112.785 467.432 113.13C467.104 113.474 466.672 113.702 466.202 113.779C465.078 114.037 463.761 113.76 463.544 112.492C463.381 111.544 463.896 109.211 465.318 109.953C466.094 110.357 466.783 109.183 466.005 108.777V108.777Z" fill="#F1E5FF"/>
<path id="Vector_15" d="M351.109 122.541C361.015 122.645 370.91 122.339 380.796 121.623L380.139 120.762C378.521 124.861 378.566 129.181 378.78 133.518C378.834 134.604 379.175 136.069 378.954 137.145C378.677 138.499 377.462 138.175 376.254 138.214C373.592 138.3 370.929 138.362 368.266 138.4C365.751 138.435 363.236 138.449 360.721 138.442C359.537 138.438 358.354 138.43 357.17 138.416C355.78 138.401 354.2 138.804 353.841 137.195C353.612 136.164 353.843 134.808 353.844 133.748L353.846 129.87L353.852 122.113C353.845 121.937 353.771 121.77 353.644 121.647C353.517 121.524 353.347 121.456 353.171 121.456C352.994 121.456 352.824 121.524 352.697 121.647C352.57 121.77 352.496 121.937 352.49 122.113L352.484 131.593L352.481 135.902C352.48 136.758 352.302 137.792 352.622 138.605C353.357 140.474 356.535 139.773 358.058 139.787C361.165 139.815 364.272 139.811 367.379 139.773C370.485 139.735 373.592 139.664 376.697 139.561C378.035 139.517 379.886 139.821 380.292 138.171C380.577 137.015 380.245 135.507 380.184 134.327C380.115 132.98 380.041 131.633 380.022 130.284C379.98 127.135 380.289 124.071 381.452 121.124C381.48 121.023 381.483 120.917 381.463 120.814C381.443 120.711 381.399 120.615 381.336 120.531C381.273 120.448 381.191 120.381 381.097 120.334C381.004 120.287 380.901 120.263 380.796 120.262C370.915 120.977 361.02 121.283 351.109 121.179C350.932 121.185 350.765 121.26 350.642 121.387C350.52 121.514 350.451 121.683 350.451 121.86C350.451 122.036 350.52 122.206 350.642 122.333C350.765 122.46 350.932 122.534 351.109 122.541L351.109 122.541Z" fill="#F1E5FF"/>
<path id="Vector_16" d="M440.521 122.541C450.427 122.645 460.323 122.339 470.208 121.623L469.552 120.762C467.933 124.861 467.978 129.181 468.192 133.518C468.246 134.604 468.587 136.069 468.367 137.145C468.089 138.499 466.874 138.175 465.666 138.214C463.004 138.3 460.342 138.362 457.678 138.4C455.164 138.435 452.648 138.449 450.133 138.442C448.949 138.438 447.766 138.43 446.582 138.416C445.192 138.401 443.612 138.804 443.254 137.195C443.024 136.164 443.255 134.808 443.256 133.748L443.258 129.87L443.264 122.113C443.258 121.937 443.183 121.77 443.056 121.647C442.929 121.524 442.759 121.456 442.583 121.456C442.406 121.456 442.237 121.524 442.11 121.647C441.983 121.77 441.908 121.937 441.902 122.113L441.896 131.593L441.893 135.902C441.892 136.758 441.714 137.792 442.034 138.605C442.769 140.474 445.947 139.773 447.47 139.787C450.577 139.815 453.684 139.811 456.791 139.773C459.898 139.735 463.004 139.664 466.109 139.561C467.447 139.517 469.298 139.821 469.704 138.171C469.989 137.015 469.657 135.507 469.596 134.327C469.527 132.98 469.453 131.633 469.435 130.284C469.392 127.135 469.701 124.071 470.865 121.124C470.892 121.023 470.895 120.917 470.875 120.814C470.855 120.711 470.812 120.615 470.748 120.531C470.685 120.448 470.603 120.381 470.509 120.334C470.416 120.287 470.313 120.263 470.208 120.262C460.327 120.977 450.432 121.283 440.521 121.179C440.344 121.185 440.177 121.26 440.055 121.387C439.932 121.514 439.863 121.683 439.863 121.86C439.863 122.036 439.932 122.206 440.055 122.333C440.177 122.46 440.344 122.534 440.521 122.541L440.521 122.541Z" fill="#F1E5FF"/>
<path id="Vector_17" d="M440.521 149.766C450.427 149.87 460.323 149.564 470.208 148.848L469.552 147.987C467.933 152.086 467.978 156.406 468.192 160.743C468.246 161.829 468.587 163.294 468.367 164.37C468.089 165.724 466.874 165.4 465.666 165.439C463.004 165.525 460.342 165.587 457.678 165.625C455.164 165.66 452.648 165.674 450.133 165.667C448.949 165.663 447.766 165.655 446.582 165.641C445.192 165.626 443.612 166.029 443.254 164.42C443.024 163.389 443.255 162.033 443.256 160.973L443.258 157.095L443.264 149.338C443.258 149.162 443.183 148.995 443.056 148.872C442.929 148.749 442.759 148.681 442.583 148.681C442.406 148.681 442.237 148.749 442.11 148.872C441.983 148.995 441.908 149.162 441.902 149.338L441.896 158.818L441.893 163.127C441.892 163.983 441.714 165.017 442.034 165.83C442.769 167.699 445.947 166.998 447.47 167.012C450.577 167.04 453.684 167.036 456.791 166.998C459.898 166.96 463.004 166.889 466.109 166.786C467.447 166.742 469.298 167.046 469.704 165.396C469.989 164.24 469.657 162.732 469.596 161.552C469.527 160.205 469.453 158.858 469.435 157.509C469.392 154.36 469.701 151.296 470.865 148.349C470.892 148.248 470.895 148.142 470.875 148.039C470.855 147.936 470.812 147.84 470.748 147.756C470.685 147.673 470.603 147.606 470.509 147.559C470.416 147.512 470.313 147.488 470.208 147.487C460.327 148.203 450.432 148.508 440.521 148.404C440.344 148.41 440.177 148.485 440.055 148.612C439.932 148.739 439.863 148.908 439.863 149.085C439.863 149.261 439.932 149.431 440.055 149.558C440.177 149.685 440.344 149.759 440.521 149.766H440.521Z" fill="#F1E5FF"/>
<path id="Vector_18" d="M353.683 148.739C362.861 148.879 372.039 148.843 381.217 148.63C382.092 148.609 382.095 147.248 381.217 147.268C372.04 147.481 362.862 147.518 353.683 147.378C353.507 147.384 353.339 147.459 353.217 147.586C353.094 147.713 353.025 147.882 353.025 148.059C353.025 148.235 353.094 148.405 353.217 148.532C353.339 148.659 353.507 148.733 353.683 148.739V148.739Z" fill="#F1E5FF"/>
<path id="Vector_19" d="M354.454 154.911C363.89 155.062 373.325 155.021 382.76 154.79C383.635 154.768 383.638 153.407 382.76 153.428C373.326 153.66 363.891 153.7 354.454 153.55C353.578 153.536 353.578 154.897 354.454 154.911Z" fill="#F1E5FF"/>
<path id="Vector_20" d="M353.422 161.575L380.184 160.332C381.057 160.292 381.062 158.93 380.184 158.971L353.422 160.214C352.549 160.254 352.544 161.616 353.422 161.575Z" fill="#F1E5FF"/>
<path id="postit-1" d="M357.646 187.7H376.392C377.671 180.306 377.671 172.748 376.392 165.354H357.646C359.757 172.653 359.757 180.401 357.646 187.7Z" fill="#A9D9F6"/>
<path id="Vector_21" d="M279.581 170.911H298.327C299.607 163.517 299.607 155.959 298.327 148.565H279.581C281.693 155.864 281.693 163.612 279.581 170.911V170.911Z" fill="#357BB9"/>
<path id="postit-2" d="M398.04 121.906H416.786C418.066 114.512 418.066 106.954 416.786 99.5603H398.04C400.152 106.859 400.152 114.607 398.04 121.906Z" fill="#D6E2FE"/>
</g>
</g>
<defs>
<clipPath id="clip0">
<rect width="500" height="392.015" fill="white" transform="matrix(-1 0 0 1 500 0)"/>
</clipPath>
</defs>
</svg>
