<svg width="928" height="758" viewBox="0 0 928 758" fill="none" xmlns="http://www.w3.org/2000/svg">
<path opacity="0.7" fill-rule="evenodd" clip-rule="evenodd" d="M481.051 10.8898C550.144 -6.90239 624.233 -2.69357 691.149 22.0578C764.264 49.1022 835.283 91.4993 877.007 157.349C919.284 224.072 939.072 308.888 921.717 385.947C905.154 459.493 849.332 521.215 785.889 561.939C732.195 596.406 659.568 568.932 600.208 592.326C553.143 610.875 526.593 660.053 481.051 682.079C413.03 714.976 340.882 777.206 269.57 752.233C201.88 728.529 204.281 628.042 161.78 570.273C112.507 503.299 -3.75658 469.004 0.0933338 385.947C4.01333 301.378 113.252 265.268 178.423 211.229C224.09 173.363 275.874 149.005 325.342 116.258C378.504 81.0639 419.309 26.7893 481.051 10.8898Z" fill="#F6F8FA"/>
</svg>
