<svg width="781" height="781" viewBox="0 0 781 781" fill="none" xmlns="http://www.w3.org/2000/svg">
<mask id="mask0" mask-type="alpha" maskUnits="userSpaceOnUse" x="0" y="0" width="781" height="781">
<path fill-rule="evenodd" clip-rule="evenodd" d="M660.697 501.273C636.827 553.007 587.998 585.434 540.531 617.664C486.567 654.304 433.259 710.732 367.604 700.28C301.986 689.834 272.052 614.91 225.565 567.523C181.586 522.692 119.648 490.427 103.122 430.678C86.1074 369.164 101.382 300.781 137.47 249.023C171.093 200.803 235.215 189.743 288.873 164.278C340.039 139.996 386.299 99.2582 443.533 103.774C502.283 108.409 553.324 146.25 594.556 188.394C634.476 229.197 658.932 280.792 670.566 335.829C682.355 391.594 684.328 450.056 660.697 501.273Z" fill="#C4C4C4"/>
</mask>
<g mask="url(#mask0)">
<circle cx="278" cy="693" r="2" transform="rotate(-90 278 693)" fill="#2F80ED"/>
<circle cx="298" cy="693" r="2" transform="rotate(-90 298 693)" fill="#2F80ED"/>
<circle cx="318" cy="693" r="2" transform="rotate(-90 318 693)" fill="#2F80ED"/>
<circle cx="338" cy="693" r="2" transform="rotate(-90 338 693)" fill="#2F80ED"/>
<circle cx="358" cy="693" r="2" transform="rotate(-90 358 693)" fill="#2F80ED"/>
<circle cx="378" cy="693" r="2" transform="rotate(-90 378 693)" fill="#2F80ED"/>
<circle cx="278" cy="673" r="2" transform="rotate(-90 278 673)" fill="#2F80ED"/>
<circle cx="298" cy="673" r="2" transform="rotate(-90 298 673)" fill="#2F80ED"/>
<circle cx="318" cy="673" r="2" transform="rotate(-90 318 673)" fill="#2F80ED"/>
<circle cx="338" cy="673" r="2" transform="rotate(-90 338 673)" fill="#2F80ED"/>
<circle cx="358" cy="673" r="2" transform="rotate(-90 358 673)" fill="#2F80ED"/>
<circle cx="378" cy="673" r="2" transform="rotate(-90 378 673)" fill="#2F80ED"/>
<circle cx="398" cy="693" r="2" transform="rotate(-90 398 693)" fill="#2F80ED"/>
<circle cx="358" cy="713" r="2" transform="rotate(-90 358 713)" fill="#2F80ED"/>
<circle cx="378" cy="713" r="2" transform="rotate(-90 378 713)" fill="#2F80ED"/>
<circle cx="398" cy="713" r="2" transform="rotate(-90 398 713)" fill="#2F80ED"/>
<circle cx="418" cy="693" r="2" transform="rotate(-90 418 693)" fill="#2F80ED"/>
<circle cx="438" cy="693" r="2" transform="rotate(-90 438 693)" fill="#2F80ED"/>
<circle cx="458" cy="693" r="2" transform="rotate(-90 458 693)" fill="#2F80ED"/>
<circle cx="478" cy="693" r="2" transform="rotate(-90 478 693)" fill="#2F80ED"/>
<circle cx="398" cy="673" r="2" transform="rotate(-90 398 673)" fill="#2F80ED"/>
<circle cx="418" cy="673" r="2" transform="rotate(-90 418 673)" fill="#2F80ED"/>
<circle cx="438" cy="673" r="2" transform="rotate(-90 438 673)" fill="#2F80ED"/>
<circle cx="458" cy="673" r="2" transform="rotate(-90 458 673)" fill="#2F80ED"/>
<circle cx="478" cy="673" r="2" transform="rotate(-90 478 673)" fill="#2F80ED"/>
<circle cx="498" cy="673" r="2" transform="rotate(-90 498 673)" fill="#2F80ED"/>
<circle cx="278" cy="653" r="2" transform="rotate(-90 278 653)" fill="#2F80ED"/>
<circle cx="298" cy="653" r="2" transform="rotate(-90 298 653)" fill="#2F80ED"/>
<circle cx="318" cy="653" r="2" transform="rotate(-90 318 653)" fill="#2F80ED"/>
<circle cx="338" cy="653" r="2" transform="rotate(-90 338 653)" fill="#2F80ED"/>
<circle cx="358" cy="653" r="2" transform="rotate(-90 358 653)" fill="#2F80ED"/>
<circle cx="378" cy="653" r="2" transform="rotate(-90 378 653)" fill="#2F80ED"/>
<circle cx="278" cy="633" r="2" transform="rotate(-90 278 633)" fill="#2F80ED"/>
<circle cx="298" cy="633" r="2" transform="rotate(-90 298 633)" fill="#2F80ED"/>
<circle cx="318" cy="633" r="2" transform="rotate(-90 318 633)" fill="#2F80ED"/>
<circle cx="338" cy="633" r="2" transform="rotate(-90 338 633)" fill="#2F80ED"/>
<circle cx="358" cy="633" r="2" transform="rotate(-90 358 633)" fill="#2F80ED"/>
<circle cx="378" cy="633" r="2" transform="rotate(-90 378 633)" fill="#2F80ED"/>
<circle cx="398" cy="653" r="2" transform="rotate(-90 398 653)" fill="#2F80ED"/>
<circle cx="418" cy="653" r="2" transform="rotate(-90 418 653)" fill="#2F80ED"/>
<circle cx="438" cy="653" r="2" transform="rotate(-90 438 653)" fill="#2F80ED"/>
<circle cx="458" cy="653" r="2" transform="rotate(-90 458 653)" fill="#2F80ED"/>
<circle cx="478" cy="653" r="2" transform="rotate(-90 478 653)" fill="#2F80ED"/>
<circle cx="498" cy="653" r="2" transform="rotate(-90 498 653)" fill="#2F80ED"/>
<circle cx="398" cy="633" r="2" transform="rotate(-90 398 633)" fill="#2F80ED"/>
<circle cx="418" cy="633" r="2" transform="rotate(-90 418 633)" fill="#2F80ED"/>
<circle cx="438" cy="633" r="2" transform="rotate(-90 438 633)" fill="#2F80ED"/>
<circle cx="458" cy="633" r="2" transform="rotate(-90 458 633)" fill="#2F80ED"/>
<circle cx="478" cy="633" r="2" transform="rotate(-90 478 633)" fill="#2F80ED"/>
<circle cx="498" cy="633" r="2" transform="rotate(-90 498 633)" fill="#2F80ED"/>
<circle cx="518" cy="653" r="2" transform="rotate(-90 518 653)" fill="#2F80ED"/>
<circle cx="518" cy="633" r="2" transform="rotate(-90 518 633)" fill="#2F80ED"/>
<circle cx="98" cy="327" r="2" fill="#2F80ED"/>
<circle cx="118" cy="267" r="2" fill="#2F80ED"/>
<circle cx="118" cy="287" r="2" fill="#2F80ED"/>
<circle cx="118" cy="307" r="2" fill="#2F80ED"/>
<circle cx="118" cy="327" r="2" fill="#2F80ED"/>
<circle cx="98" cy="347" r="2" fill="#2F80ED"/>
<circle cx="98" cy="367" r="2" fill="#2F80ED"/>
<circle cx="98" cy="387" r="2" fill="#2F80ED"/>
<circle cx="98" cy="407" r="2" fill="#2F80ED"/>
<circle cx="98" cy="427" r="2" fill="#2F80ED"/>
<circle cx="118" cy="347" r="2" fill="#2F80ED"/>
<circle cx="118" cy="367" r="2" fill="#2F80ED"/>
<circle cx="118" cy="387" r="2" fill="#2F80ED"/>
<circle cx="118" cy="407" r="2" fill="#2F80ED"/>
<circle cx="118" cy="427" r="2" fill="#2F80ED"/>
<circle cx="118" cy="447" r="2" fill="#2F80ED"/>
<circle cx="138" cy="247" r="2" fill="#2F80ED"/>
<circle cx="138" cy="267" r="2" fill="#2F80ED"/>
<circle cx="138" cy="287" r="2" fill="#2F80ED"/>
<circle cx="138" cy="307" r="2" fill="#2F80ED"/>
<circle cx="138" cy="327" r="2" fill="#2F80ED"/>
<circle cx="158" cy="227" r="2" fill="#2F80ED"/>
<circle cx="158" cy="247" r="2" fill="#2F80ED"/>
<circle cx="158" cy="267" r="2" fill="#2F80ED"/>
<circle cx="158" cy="287" r="2" fill="#2F80ED"/>
<circle cx="158" cy="307" r="2" fill="#2F80ED"/>
<circle cx="158" cy="327" r="2" fill="#2F80ED"/>
<circle cx="138" cy="347" r="2" fill="#2F80ED"/>
<circle cx="138" cy="367" r="2" fill="#2F80ED"/>
<circle cx="138" cy="387" r="2" fill="#2F80ED"/>
<circle cx="138" cy="407" r="2" fill="#2F80ED"/>
<circle cx="138" cy="427" r="2" fill="#2F80ED"/>
<circle cx="138" cy="447" r="2" fill="#2F80ED"/>
<circle cx="158" cy="347" r="2" fill="#2F80ED"/>
<circle cx="158" cy="367" r="2" fill="#2F80ED"/>
<circle cx="158" cy="387" r="2" fill="#2F80ED"/>
<circle cx="158" cy="407" r="2" fill="#2F80ED"/>
<circle cx="158" cy="427" r="2" fill="#2F80ED"/>
<circle cx="158" cy="447" r="2" fill="#2F80ED"/>
<circle cx="438" cy="533" r="2" transform="rotate(-90 438 533)" fill="#2F80ED"/>
<circle cx="458" cy="533" r="2" transform="rotate(-90 458 533)" fill="#2F80ED"/>
<circle cx="478" cy="533" r="2" transform="rotate(-90 478 533)" fill="#2F80ED"/>
<circle cx="498" cy="533" r="2" transform="rotate(-90 498 533)" fill="#2F80ED"/>
<circle cx="518" cy="533" r="2" transform="rotate(-90 518 533)" fill="#2F80ED"/>
<circle cx="538" cy="533" r="2" transform="rotate(-90 538 533)" fill="#2F80ED"/>
<circle cx="438" cy="513" r="2" transform="rotate(-90 438 513)" fill="#2F80ED"/>
<circle cx="458" cy="513" r="2" transform="rotate(-90 458 513)" fill="#2F80ED"/>
<circle cx="478" cy="513" r="2" transform="rotate(-90 478 513)" fill="#2F80ED"/>
<circle cx="498" cy="513" r="2" transform="rotate(-90 498 513)" fill="#2F80ED"/>
<circle cx="518" cy="513" r="2" transform="rotate(-90 518 513)" fill="#2F80ED"/>
<circle cx="538" cy="513" r="2" transform="rotate(-90 538 513)" fill="#2F80ED"/>
<circle cx="558" cy="533" r="2" transform="rotate(-90 558 533)" fill="#2F80ED"/>
<circle cx="578" cy="533" r="2" transform="rotate(-90 578 533)" fill="#2F80ED"/>
<circle cx="598" cy="533" r="2" transform="rotate(-90 598 533)" fill="#2F80ED"/>
<circle cx="618" cy="533" r="2" transform="rotate(-90 618 533)" fill="#2F80ED"/>
<circle cx="638" cy="533" r="2" transform="rotate(-90 638 533)" fill="#2F80ED"/>
<circle cx="558" cy="513" r="2" transform="rotate(-90 558 513)" fill="#2F80ED"/>
<circle cx="578" cy="513" r="2" transform="rotate(-90 578 513)" fill="#2F80ED"/>
<circle cx="598" cy="513" r="2" transform="rotate(-90 598 513)" fill="#2F80ED"/>
<circle cx="618" cy="513" r="2" transform="rotate(-90 618 513)" fill="#2F80ED"/>
<circle cx="638" cy="513" r="2" transform="rotate(-90 638 513)" fill="#2F80ED"/>
<circle cx="658" cy="513" r="2" transform="rotate(-90 658 513)" fill="#2F80ED"/>
<circle cx="438" cy="493" r="2" transform="rotate(-90 438 493)" fill="#2F80ED"/>
<circle cx="458" cy="493" r="2" transform="rotate(-90 458 493)" fill="#2F80ED"/>
<circle cx="478" cy="493" r="2" transform="rotate(-90 478 493)" fill="#2F80ED"/>
<circle cx="498" cy="493" r="2" transform="rotate(-90 498 493)" fill="#2F80ED"/>
<circle cx="518" cy="493" r="2" transform="rotate(-90 518 493)" fill="#2F80ED"/>
<circle cx="538" cy="493" r="2" transform="rotate(-90 538 493)" fill="#2F80ED"/>
<circle cx="438" cy="473" r="2" transform="rotate(-90 438 473)" fill="#2F80ED"/>
<circle cx="458" cy="473" r="2" transform="rotate(-90 458 473)" fill="#2F80ED"/>
<circle cx="478" cy="473" r="2" transform="rotate(-90 478 473)" fill="#2F80ED"/>
<circle cx="498" cy="473" r="2" transform="rotate(-90 498 473)" fill="#2F80ED"/>
<circle cx="518" cy="473" r="2" transform="rotate(-90 518 473)" fill="#2F80ED"/>
<circle cx="538" cy="473" r="2" transform="rotate(-90 538 473)" fill="#2F80ED"/>
<circle cx="558" cy="493" r="2" transform="rotate(-90 558 493)" fill="#2F80ED"/>
<circle cx="578" cy="493" r="2" transform="rotate(-90 578 493)" fill="#2F80ED"/>
<circle cx="598" cy="493" r="2" transform="rotate(-90 598 493)" fill="#2F80ED"/>
<circle cx="618" cy="493" r="2" transform="rotate(-90 618 493)" fill="#2F80ED"/>
<circle cx="638" cy="493" r="2" transform="rotate(-90 638 493)" fill="#2F80ED"/>
<circle cx="658" cy="493" r="2" transform="rotate(-90 658 493)" fill="#2F80ED"/>
<circle cx="558" cy="473" r="2" transform="rotate(-90 558 473)" fill="#2F80ED"/>
<circle cx="578" cy="473" r="2" transform="rotate(-90 578 473)" fill="#2F80ED"/>
<circle cx="598" cy="473" r="2" transform="rotate(-90 598 473)" fill="#2F80ED"/>
<circle cx="618" cy="473" r="2" transform="rotate(-90 618 473)" fill="#2F80ED"/>
<circle cx="638" cy="473" r="2" transform="rotate(-90 638 473)" fill="#2F80ED"/>
<circle cx="658" cy="473" r="2" transform="rotate(-90 658 473)" fill="#2F80ED"/>
<circle cx="258" cy="613" r="2" transform="rotate(-90 258 613)" fill="#2F80ED"/>
<circle cx="278" cy="613" r="2" transform="rotate(-90 278 613)" fill="#2F80ED"/>
<circle cx="298" cy="613" r="2" transform="rotate(-90 298 613)" fill="#2F80ED"/>
<circle cx="318" cy="613" r="2" transform="rotate(-90 318 613)" fill="#2F80ED"/>
<circle cx="338" cy="613" r="2" transform="rotate(-90 338 613)" fill="#2F80ED"/>
<circle cx="358" cy="613" r="2" transform="rotate(-90 358 613)" fill="#2F80ED"/>
<circle cx="258" cy="593" r="2" transform="rotate(-90 258 593)" fill="#2F80ED"/>
<circle cx="278" cy="593" r="2" transform="rotate(-90 278 593)" fill="#2F80ED"/>
<circle cx="298" cy="593" r="2" transform="rotate(-90 298 593)" fill="#2F80ED"/>
<circle cx="318" cy="593" r="2" transform="rotate(-90 318 593)" fill="#2F80ED"/>
<circle cx="338" cy="593" r="2" transform="rotate(-90 338 593)" fill="#2F80ED"/>
<circle cx="358" cy="593" r="2" transform="rotate(-90 358 593)" fill="#2F80ED"/>
<circle cx="378" cy="613" r="2" transform="rotate(-90 378 613)" fill="#2F80ED"/>
<circle cx="398" cy="613" r="2" transform="rotate(-90 398 613)" fill="#2F80ED"/>
<circle cx="418" cy="613" r="2" transform="rotate(-90 418 613)" fill="#2F80ED"/>
<circle cx="438" cy="613" r="2" transform="rotate(-90 438 613)" fill="#2F80ED"/>
<circle cx="458" cy="613" r="2" transform="rotate(-90 458 613)" fill="#2F80ED"/>
<circle cx="478" cy="613" r="2" transform="rotate(-90 478 613)" fill="#2F80ED"/>
<circle cx="378" cy="593" r="2" transform="rotate(-90 378 593)" fill="#2F80ED"/>
<circle cx="398" cy="593" r="2" transform="rotate(-90 398 593)" fill="#2F80ED"/>
<circle cx="418" cy="593" r="2" transform="rotate(-90 418 593)" fill="#2F80ED"/>
<circle cx="438" cy="593" r="2" transform="rotate(-90 438 593)" fill="#2F80ED"/>
<circle cx="458" cy="593" r="2" transform="rotate(-90 458 593)" fill="#2F80ED"/>
<circle cx="478" cy="593" r="2" transform="rotate(-90 478 593)" fill="#2F80ED"/>
<circle cx="258" cy="573" r="2" transform="rotate(-90 258 573)" fill="#2F80ED"/>
<circle cx="278" cy="573" r="2" transform="rotate(-90 278 573)" fill="#2F80ED"/>
<circle cx="298" cy="573" r="2" transform="rotate(-90 298 573)" fill="#2F80ED"/>
<circle cx="318" cy="573" r="2" transform="rotate(-90 318 573)" fill="#2F80ED"/>
<circle cx="338" cy="573" r="2" transform="rotate(-90 338 573)" fill="#2F80ED"/>
<circle cx="358" cy="573" r="2" transform="rotate(-90 358 573)" fill="#2F80ED"/>
<circle cx="258" cy="553" r="2" transform="rotate(-90 258 553)" fill="#2F80ED"/>
<circle cx="278" cy="553" r="2" transform="rotate(-90 278 553)" fill="#2F80ED"/>
<circle cx="298" cy="553" r="2" transform="rotate(-90 298 553)" fill="#2F80ED"/>
<circle cx="318" cy="553" r="2" transform="rotate(-90 318 553)" fill="#2F80ED"/>
<circle cx="338" cy="553" r="2" transform="rotate(-90 338 553)" fill="#2F80ED"/>
<circle cx="358" cy="553" r="2" transform="rotate(-90 358 553)" fill="#2F80ED"/>
<circle cx="378" cy="573" r="2" transform="rotate(-90 378 573)" fill="#2F80ED"/>
<circle cx="398" cy="573" r="2" transform="rotate(-90 398 573)" fill="#2F80ED"/>
<circle cx="418" cy="573" r="2" transform="rotate(-90 418 573)" fill="#2F80ED"/>
<circle cx="438" cy="573" r="2" transform="rotate(-90 438 573)" fill="#2F80ED"/>
<circle cx="458" cy="573" r="2" transform="rotate(-90 458 573)" fill="#2F80ED"/>
<circle cx="478" cy="573" r="2" transform="rotate(-90 478 573)" fill="#2F80ED"/>
<circle cx="378" cy="553" r="2" transform="rotate(-90 378 553)" fill="#2F80ED"/>
<circle cx="398" cy="553" r="2" transform="rotate(-90 398 553)" fill="#2F80ED"/>
<circle cx="418" cy="553" r="2" transform="rotate(-90 418 553)" fill="#2F80ED"/>
<circle cx="438" cy="553" r="2" transform="rotate(-90 438 553)" fill="#2F80ED"/>
<circle cx="458" cy="553" r="2" transform="rotate(-90 458 553)" fill="#2F80ED"/>
<circle cx="478" cy="553" r="2" transform="rotate(-90 478 553)" fill="#2F80ED"/>
<circle cx="578" cy="227" r="2" fill="#2F80ED"/>
<circle cx="578" cy="247" r="2" fill="#2F80ED"/>
<circle cx="578" cy="267" r="2" fill="#2F80ED"/>
<circle cx="578" cy="287" r="2" fill="#2F80ED"/>
<circle cx="578" cy="307" r="2" fill="#2F80ED"/>
<circle cx="578" cy="327" r="2" fill="#2F80ED"/>
<circle cx="598" cy="227" r="2" fill="#2F80ED"/>
<circle cx="598" cy="247" r="2" fill="#2F80ED"/>
<circle cx="598" cy="267" r="2" fill="#2F80ED"/>
<circle cx="598" cy="287" r="2" fill="#2F80ED"/>
<circle cx="598" cy="307" r="2" fill="#2F80ED"/>
<circle cx="598" cy="327" r="2" fill="#2F80ED"/>
<circle cx="578" cy="347" r="2" fill="#2F80ED"/>
<circle cx="578" cy="367" r="2" fill="#2F80ED"/>
<circle cx="578" cy="387" r="2" fill="#2F80ED"/>
<circle cx="578" cy="407" r="2" fill="#2F80ED"/>
<circle cx="578" cy="427" r="2" fill="#2F80ED"/>
<circle cx="578" cy="447" r="2" fill="#2F80ED"/>
<circle cx="598" cy="347" r="2" fill="#2F80ED"/>
<circle cx="598" cy="367" r="2" fill="#2F80ED"/>
<circle cx="598" cy="387" r="2" fill="#2F80ED"/>
<circle cx="598" cy="407" r="2" fill="#2F80ED"/>
<circle cx="598" cy="427" r="2" fill="#2F80ED"/>
<circle cx="598" cy="447" r="2" fill="#2F80ED"/>
<circle cx="618" cy="227" r="2" fill="#2F80ED"/>
<circle cx="618" cy="247" r="2" fill="#2F80ED"/>
<circle cx="618" cy="267" r="2" fill="#2F80ED"/>
<circle cx="618" cy="287" r="2" fill="#2F80ED"/>
<circle cx="618" cy="307" r="2" fill="#2F80ED"/>
<circle cx="618" cy="327" r="2" fill="#2F80ED"/>
<circle cx="638" cy="247" r="2" fill="#2F80ED"/>
<circle cx="638" cy="267" r="2" fill="#2F80ED"/>
<circle cx="638" cy="287" r="2" fill="#2F80ED"/>
<circle cx="638" cy="307" r="2" fill="#2F80ED"/>
<circle cx="638" cy="327" r="2" fill="#2F80ED"/>
<circle cx="618" cy="347" r="2" fill="#2F80ED"/>
<circle cx="618" cy="367" r="2" fill="#2F80ED"/>
<circle cx="618" cy="387" r="2" fill="#2F80ED"/>
<circle cx="618" cy="407" r="2" fill="#2F80ED"/>
<circle cx="618" cy="427" r="2" fill="#2F80ED"/>
<circle cx="618" cy="447" r="2" fill="#2F80ED"/>
<circle cx="638" cy="347" r="2" fill="#2F80ED"/>
<circle cx="638" cy="367" r="2" fill="#2F80ED"/>
<circle cx="638" cy="387" r="2" fill="#2F80ED"/>
<circle cx="638" cy="407" r="2" fill="#2F80ED"/>
<circle cx="638" cy="427" r="2" fill="#2F80ED"/>
<circle cx="638" cy="447" r="2" fill="#2F80ED"/>
<circle cx="178" cy="227" r="2" fill="#2F80ED"/>
<circle cx="178" cy="247" r="2" fill="#2F80ED"/>
<circle cx="178" cy="267" r="2" fill="#2F80ED"/>
<circle cx="178" cy="287" r="2" fill="#2F80ED"/>
<circle cx="178" cy="307" r="2" fill="#2F80ED"/>
<circle cx="178" cy="327" r="2" fill="#2F80ED"/>
<circle cx="198" cy="227" r="2" fill="#2F80ED"/>
<circle cx="198" cy="247" r="2" fill="#2F80ED"/>
<circle cx="198" cy="267" r="2" fill="#2F80ED"/>
<circle cx="198" cy="287" r="2" fill="#2F80ED"/>
<circle cx="198" cy="307" r="2" fill="#2F80ED"/>
<circle cx="198" cy="327" r="2" fill="#2F80ED"/>
<circle cx="178" cy="347" r="2" fill="#2F80ED"/>
<circle cx="178" cy="367" r="2" fill="#2F80ED"/>
<circle cx="178" cy="387" r="2" fill="#2F80ED"/>
<circle cx="178" cy="407" r="2" fill="#2F80ED"/>
<circle cx="178" cy="427" r="2" fill="#2F80ED"/>
<circle cx="178" cy="447" r="2" fill="#2F80ED"/>
<circle cx="198" cy="347" r="2" fill="#2F80ED"/>
<circle cx="198" cy="367" r="2" fill="#2F80ED"/>
<circle cx="198" cy="387" r="2" fill="#2F80ED"/>
<circle cx="198" cy="407" r="2" fill="#2F80ED"/>
<circle cx="198" cy="427" r="2" fill="#2F80ED"/>
<circle cx="198" cy="447" r="2" fill="#2F80ED"/>
<circle cx="218" cy="227" r="2" fill="#2F80ED"/>
<circle cx="218" cy="247" r="2" fill="#2F80ED"/>
<circle cx="218" cy="267" r="2" fill="#2F80ED"/>
<circle cx="218" cy="287" r="2" fill="#2F80ED"/>
<circle cx="218" cy="307" r="2" fill="#2F80ED"/>
<circle cx="218" cy="327" r="2" fill="#2F80ED"/>
<circle cx="238" cy="227" r="2" fill="#2F80ED"/>
<circle cx="238" cy="247" r="2" fill="#2F80ED"/>
<circle cx="238" cy="267" r="2" fill="#2F80ED"/>
<circle cx="238" cy="287" r="2" fill="#2F80ED"/>
<circle cx="238" cy="307" r="2" fill="#2F80ED"/>
<circle cx="238" cy="327" r="2" fill="#2F80ED"/>
<circle cx="218" cy="347" r="2" fill="#2F80ED"/>
<circle cx="218" cy="367" r="2" fill="#2F80ED"/>
<circle cx="218" cy="387" r="2" fill="#2F80ED"/>
<circle cx="218" cy="407" r="2" fill="#2F80ED"/>
<circle cx="218" cy="427" r="2" fill="#2F80ED"/>
<circle cx="218" cy="447" r="2" fill="#2F80ED"/>
<circle cx="238" cy="347" r="2" fill="#2F80ED"/>
<circle cx="238" cy="367" r="2" fill="#2F80ED"/>
<circle cx="238" cy="387" r="2" fill="#2F80ED"/>
<circle cx="238" cy="407" r="2" fill="#2F80ED"/>
<circle cx="238" cy="427" r="2" fill="#2F80ED"/>
<circle cx="238" cy="447" r="2" fill="#2F80ED"/>
<circle cx="498" cy="613" r="2" transform="rotate(-90 498 613)" fill="#2F80ED"/>
<circle cx="518" cy="613" r="2" transform="rotate(-90 518 613)" fill="#2F80ED"/>
<circle cx="538" cy="613" r="2" transform="rotate(-90 538 613)" fill="#2F80ED"/>
<circle cx="558" cy="613" r="2" transform="rotate(-90 558 613)" fill="#2F80ED"/>
<circle cx="578" cy="613" r="2" transform="rotate(-90 578 613)" fill="#2F80ED"/>
<circle cx="598" cy="613" r="2" transform="rotate(-90 598 613)" fill="#2F80ED"/>
<circle cx="498" cy="593" r="2" transform="rotate(-90 498 593)" fill="#2F80ED"/>
<circle cx="518" cy="593" r="2" transform="rotate(-90 518 593)" fill="#2F80ED"/>
<circle cx="538" cy="593" r="2" transform="rotate(-90 538 593)" fill="#2F80ED"/>
<circle cx="558" cy="593" r="2" transform="rotate(-90 558 593)" fill="#2F80ED"/>
<circle cx="578" cy="593" r="2" transform="rotate(-90 578 593)" fill="#2F80ED"/>
<circle cx="598" cy="593" r="2" transform="rotate(-90 598 593)" fill="#2F80ED"/>
<circle cx="498" cy="573" r="2" transform="rotate(-90 498 573)" fill="#2F80ED"/>
<circle cx="518" cy="573" r="2" transform="rotate(-90 518 573)" fill="#2F80ED"/>
<circle cx="538" cy="573" r="2" transform="rotate(-90 538 573)" fill="#2F80ED"/>
<circle cx="558" cy="573" r="2" transform="rotate(-90 558 573)" fill="#2F80ED"/>
<circle cx="578" cy="573" r="2" transform="rotate(-90 578 573)" fill="#2F80ED"/>
<circle cx="598" cy="573" r="2" transform="rotate(-90 598 573)" fill="#2F80ED"/>
<circle cx="498" cy="553" r="2" transform="rotate(-90 498 553)" fill="#2F80ED"/>
<circle cx="518" cy="553" r="2" transform="rotate(-90 518 553)" fill="#2F80ED"/>
<circle cx="538" cy="553" r="2" transform="rotate(-90 538 553)" fill="#2F80ED"/>
<circle cx="558" cy="553" r="2" transform="rotate(-90 558 553)" fill="#2F80ED"/>
<circle cx="578" cy="553" r="2" transform="rotate(-90 578 553)" fill="#2F80ED"/>
<circle cx="598" cy="553" r="2" transform="rotate(-90 598 553)" fill="#2F80ED"/>
<circle cx="618" cy="573" r="2" transform="rotate(-90 618 573)" fill="#2F80ED"/>
<circle cx="638" cy="573" r="2" transform="rotate(-90 638 573)" fill="#2F80ED"/>
<circle cx="618" cy="553" r="2" transform="rotate(-90 618 553)" fill="#2F80ED"/>
<circle cx="638" cy="553" r="2" transform="rotate(-90 638 553)" fill="#2F80ED"/>
<circle cx="178" cy="547" r="2" fill="#2F80ED"/>
<circle cx="198" cy="547" r="2" fill="#2F80ED"/>
<circle cx="218" cy="547" r="2" fill="#2F80ED"/>
<circle cx="218" cy="567" r="2" fill="#2F80ED"/>
<circle cx="238" cy="547" r="2" fill="#2F80ED"/>
<circle cx="238" cy="567" r="2" fill="#2F80ED"/>
<circle cx="238" cy="587" r="2" fill="#2F80ED"/>
<circle cx="238" cy="607" r="2" fill="#2F80ED"/>
<circle cx="178" cy="213" r="2" transform="rotate(-90 178 213)" fill="#2F80ED"/>
<circle cx="198" cy="213" r="2" transform="rotate(-90 198 213)" fill="#2F80ED"/>
<circle cx="218" cy="213" r="2" transform="rotate(-90 218 213)" fill="#2F80ED"/>
<circle cx="238" cy="213" r="2" transform="rotate(-90 238 213)" fill="#2F80ED"/>
<circle cx="258" cy="213" r="2" transform="rotate(-90 258 213)" fill="#2F80ED"/>
<circle cx="278" cy="213" r="2" transform="rotate(-90 278 213)" fill="#2F80ED"/>
<circle cx="178" cy="193" r="2" transform="rotate(-90 178 193)" fill="#2F80ED"/>
<circle cx="198" cy="193" r="2" transform="rotate(-90 198 193)" fill="#2F80ED"/>
<circle cx="218" cy="193" r="2" transform="rotate(-90 218 193)" fill="#2F80ED"/>
<circle cx="238" cy="193" r="2" transform="rotate(-90 238 193)" fill="#2F80ED"/>
<circle cx="258" cy="193" r="2" transform="rotate(-90 258 193)" fill="#2F80ED"/>
<circle cx="278" cy="193" r="2" transform="rotate(-90 278 193)" fill="#2F80ED"/>
<circle cx="298" cy="213" r="2" transform="rotate(-90 298 213)" fill="#2F80ED"/>
<circle cx="318" cy="213" r="2" transform="rotate(-90 318 213)" fill="#2F80ED"/>
<circle cx="338" cy="213" r="2" transform="rotate(-90 338 213)" fill="#2F80ED"/>
<circle cx="358" cy="213" r="2" transform="rotate(-90 358 213)" fill="#2F80ED"/>
<circle cx="378" cy="213" r="2" transform="rotate(-90 378 213)" fill="#2F80ED"/>
<circle cx="398" cy="213" r="2" transform="rotate(-90 398 213)" fill="#2F80ED"/>
<circle cx="298" cy="193" r="2" transform="rotate(-90 298 193)" fill="#2F80ED"/>
<circle cx="318" cy="193" r="2" transform="rotate(-90 318 193)" fill="#2F80ED"/>
<circle cx="338" cy="193" r="2" transform="rotate(-90 338 193)" fill="#2F80ED"/>
<circle cx="358" cy="193" r="2" transform="rotate(-90 358 193)" fill="#2F80ED"/>
<circle cx="378" cy="193" r="2" transform="rotate(-90 378 193)" fill="#2F80ED"/>
<circle cx="398" cy="193" r="2" transform="rotate(-90 398 193)" fill="#2F80ED"/>
<circle cx="178" cy="173" r="2" transform="rotate(-90 178 173)" fill="#2F80ED"/>
<circle cx="198" cy="173" r="2" transform="rotate(-90 198 173)" fill="#2F80ED"/>
<circle cx="218" cy="173" r="2" transform="rotate(-90 218 173)" fill="#2F80ED"/>
<circle cx="238" cy="173" r="2" transform="rotate(-90 238 173)" fill="#2F80ED"/>
<circle cx="258" cy="173" r="2" transform="rotate(-90 258 173)" fill="#2F80ED"/>
<circle cx="278" cy="173" r="2" transform="rotate(-90 278 173)" fill="#2F80ED"/>
<circle cx="258" cy="153" r="2" transform="rotate(-90 258 153)" fill="#2F80ED"/>
<circle cx="278" cy="153" r="2" transform="rotate(-90 278 153)" fill="#2F80ED"/>
<circle cx="298" cy="173" r="2" transform="rotate(-90 298 173)" fill="#2F80ED"/>
<circle cx="318" cy="173" r="2" transform="rotate(-90 318 173)" fill="#2F80ED"/>
<circle cx="338" cy="173" r="2" transform="rotate(-90 338 173)" fill="#2F80ED"/>
<circle cx="358" cy="173" r="2" transform="rotate(-90 358 173)" fill="#2F80ED"/>
<circle cx="378" cy="173" r="2" transform="rotate(-90 378 173)" fill="#2F80ED"/>
<circle cx="398" cy="173" r="2" transform="rotate(-90 398 173)" fill="#2F80ED"/>
<circle cx="298" cy="153" r="2" transform="rotate(-90 298 153)" fill="#2F80ED"/>
<circle cx="318" cy="153" r="2" transform="rotate(-90 318 153)" fill="#2F80ED"/>
<circle cx="338" cy="153" r="2" transform="rotate(-90 338 153)" fill="#2F80ED"/>
<circle cx="358" cy="153" r="2" transform="rotate(-90 358 153)" fill="#2F80ED"/>
<circle cx="378" cy="153" r="2" transform="rotate(-90 378 153)" fill="#2F80ED"/>
<circle cx="398" cy="153" r="2" transform="rotate(-90 398 153)" fill="#2F80ED"/>
<circle cx="418" cy="213" r="2" transform="rotate(-90 418 213)" fill="#2F80ED"/>
<circle cx="438" cy="213" r="2" transform="rotate(-90 438 213)" fill="#2F80ED"/>
<circle cx="458" cy="213" r="2" transform="rotate(-90 458 213)" fill="#2F80ED"/>
<circle cx="478" cy="213" r="2" transform="rotate(-90 478 213)" fill="#2F80ED"/>
<circle cx="498" cy="213" r="2" transform="rotate(-90 498 213)" fill="#2F80ED"/>
<circle cx="518" cy="213" r="2" transform="rotate(-90 518 213)" fill="#2F80ED"/>
<circle cx="418" cy="193" r="2" transform="rotate(-90 418 193)" fill="#2F80ED"/>
<circle cx="438" cy="193" r="2" transform="rotate(-90 438 193)" fill="#2F80ED"/>
<circle cx="458" cy="193" r="2" transform="rotate(-90 458 193)" fill="#2F80ED"/>
<circle cx="478" cy="193" r="2" transform="rotate(-90 478 193)" fill="#2F80ED"/>
<circle cx="498" cy="193" r="2" transform="rotate(-90 498 193)" fill="#2F80ED"/>
<circle cx="518" cy="193" r="2" transform="rotate(-90 518 193)" fill="#2F80ED"/>
<circle cx="538" cy="213" r="2" transform="rotate(-90 538 213)" fill="#2F80ED"/>
<circle cx="558" cy="213" r="2" transform="rotate(-90 558 213)" fill="#2F80ED"/>
<circle cx="578" cy="213" r="2" transform="rotate(-90 578 213)" fill="#2F80ED"/>
<circle cx="598" cy="213" r="2" transform="rotate(-90 598 213)" fill="#2F80ED"/>
<circle cx="618" cy="213" r="2" transform="rotate(-90 618 213)" fill="#2F80ED"/>
<circle cx="638" cy="213" r="2" transform="rotate(-90 638 213)" fill="#2F80ED"/>
<circle cx="538" cy="193" r="2" transform="rotate(-90 538 193)" fill="#2F80ED"/>
<circle cx="558" cy="193" r="2" transform="rotate(-90 558 193)" fill="#2F80ED"/>
<circle cx="578" cy="193" r="2" transform="rotate(-90 578 193)" fill="#2F80ED"/>
<circle cx="598" cy="193" r="2" transform="rotate(-90 598 193)" fill="#2F80ED"/>
<circle cx="618" cy="193" r="2" transform="rotate(-90 618 193)" fill="#2F80ED"/>
<circle cx="638" cy="193" r="2" transform="rotate(-90 638 193)" fill="#2F80ED"/>
<circle cx="418" cy="173" r="2" transform="rotate(-90 418 173)" fill="#2F80ED"/>
<circle cx="438" cy="173" r="2" transform="rotate(-90 438 173)" fill="#2F80ED"/>
<circle cx="458" cy="173" r="2" transform="rotate(-90 458 173)" fill="#2F80ED"/>
<circle cx="478" cy="173" r="2" transform="rotate(-90 478 173)" fill="#2F80ED"/>
<circle cx="498" cy="173" r="2" transform="rotate(-90 498 173)" fill="#2F80ED"/>
<circle cx="518" cy="173" r="2" transform="rotate(-90 518 173)" fill="#2F80ED"/>
<circle cx="418" cy="153" r="2" transform="rotate(-90 418 153)" fill="#2F80ED"/>
<circle cx="438" cy="153" r="2" transform="rotate(-90 438 153)" fill="#2F80ED"/>
<circle cx="458" cy="153" r="2" transform="rotate(-90 458 153)" fill="#2F80ED"/>
<circle cx="478" cy="153" r="2" transform="rotate(-90 478 153)" fill="#2F80ED"/>
<circle cx="498" cy="153" r="2" transform="rotate(-90 498 153)" fill="#2F80ED"/>
<circle cx="518" cy="153" r="2" transform="rotate(-90 518 153)" fill="#2F80ED"/>
<circle cx="538" cy="173" r="2" transform="rotate(-90 538 173)" fill="#2F80ED"/>
<circle cx="558" cy="173" r="2" transform="rotate(-90 558 173)" fill="#2F80ED"/>
<circle cx="578" cy="173" r="2" transform="rotate(-90 578 173)" fill="#2F80ED"/>
<circle cx="598" cy="173" r="2" transform="rotate(-90 598 173)" fill="#2F80ED"/>
<circle cx="618" cy="173" r="2" transform="rotate(-90 618 173)" fill="#2F80ED"/>
<circle cx="638" cy="173" r="2" transform="rotate(-90 638 173)" fill="#2F80ED"/>
<circle cx="538" cy="153" r="2" transform="rotate(-90 538 153)" fill="#2F80ED"/>
<circle cx="558" cy="153" r="2" transform="rotate(-90 558 153)" fill="#2F80ED"/>
<circle cx="578" cy="153" r="2" transform="rotate(-90 578 153)" fill="#2F80ED"/>
<circle cx="598" cy="153" r="2" transform="rotate(-90 598 153)" fill="#2F80ED"/>
<circle cx="618" cy="153" r="2" transform="rotate(-90 618 153)" fill="#2F80ED"/>
<circle cx="638" cy="153" r="2" transform="rotate(-90 638 153)" fill="#2F80ED"/>
<circle cx="298" cy="133" r="2" transform="rotate(-90 298 133)" fill="#2F80ED"/>
<circle cx="318" cy="133" r="2" transform="rotate(-90 318 133)" fill="#2F80ED"/>
<circle cx="338" cy="133" r="2" transform="rotate(-90 338 133)" fill="#2F80ED"/>
<circle cx="358" cy="133" r="2" transform="rotate(-90 358 133)" fill="#2F80ED"/>
<circle cx="378" cy="133" r="2" transform="rotate(-90 378 133)" fill="#2F80ED"/>
<circle cx="398" cy="133" r="2" transform="rotate(-90 398 133)" fill="#2F80ED"/>
<circle cx="298" cy="113" r="2" transform="rotate(-90 298 113)" fill="#2F80ED"/>
<circle cx="318" cy="113" r="2" transform="rotate(-90 318 113)" fill="#2F80ED"/>
<circle cx="338" cy="113" r="2" transform="rotate(-90 338 113)" fill="#2F80ED"/>
<circle cx="358" cy="113" r="2" transform="rotate(-90 358 113)" fill="#2F80ED"/>
<circle cx="378" cy="113" r="2" transform="rotate(-90 378 113)" fill="#2F80ED"/>
<circle cx="398" cy="113" r="2" transform="rotate(-90 398 113)" fill="#2F80ED"/>
<circle cx="418" cy="133" r="2" transform="rotate(-90 418 133)" fill="#2F80ED"/>
<circle cx="438" cy="133" r="2" transform="rotate(-90 438 133)" fill="#2F80ED"/>
<circle cx="458" cy="133" r="2" transform="rotate(-90 458 133)" fill="#2F80ED"/>
<circle cx="478" cy="133" r="2" transform="rotate(-90 478 133)" fill="#2F80ED"/>
<circle cx="498" cy="133" r="2" transform="rotate(-90 498 133)" fill="#2F80ED"/>
<circle cx="518" cy="133" r="2" transform="rotate(-90 518 133)" fill="#2F80ED"/>
<circle cx="418" cy="113" r="2" transform="rotate(-90 418 113)" fill="#2F80ED"/>
<circle cx="438" cy="113" r="2" transform="rotate(-90 438 113)" fill="#2F80ED"/>
<circle cx="458" cy="113" r="2" transform="rotate(-90 458 113)" fill="#2F80ED"/>
<circle cx="478" cy="113" r="2" transform="rotate(-90 478 113)" fill="#2F80ED"/>
<circle cx="498" cy="113" r="2" transform="rotate(-90 498 113)" fill="#2F80ED"/>
<circle cx="518" cy="113" r="2" transform="rotate(-90 518 113)" fill="#2F80ED"/>
<circle cx="298" cy="92.9998" r="2" transform="rotate(-90 298 92.9998)" fill="#2F80ED"/>
<circle cx="318" cy="92.9998" r="2" transform="rotate(-90 318 92.9998)" fill="#2F80ED"/>
<circle cx="338" cy="92.9998" r="2" transform="rotate(-90 338 92.9998)" fill="#2F80ED"/>
<circle cx="358" cy="92.9998" r="2" transform="rotate(-90 358 92.9998)" fill="#2F80ED"/>
<circle cx="378" cy="92.9998" r="2" transform="rotate(-90 378 92.9998)" fill="#2F80ED"/>
<circle cx="398" cy="92.9998" r="2" transform="rotate(-90 398 92.9998)" fill="#2F80ED"/>
<circle cx="298" cy="72.9998" r="2" transform="rotate(-90 298 72.9998)" fill="#2F80ED"/>
<circle cx="318" cy="72.9998" r="2" transform="rotate(-90 318 72.9998)" fill="#2F80ED"/>
<circle cx="338" cy="72.9998" r="2" transform="rotate(-90 338 72.9998)" fill="#2F80ED"/>
<circle cx="358" cy="72.9998" r="2" transform="rotate(-90 358 72.9998)" fill="#2F80ED"/>
<circle cx="378" cy="72.9998" r="2" transform="rotate(-90 378 72.9998)" fill="#2F80ED"/>
<circle cx="398" cy="72.9998" r="2" transform="rotate(-90 398 72.9998)" fill="#2F80ED"/>
<circle cx="418" cy="92.9998" r="2" transform="rotate(-90 418 92.9998)" fill="#2F80ED"/>
<circle cx="438" cy="92.9998" r="2" transform="rotate(-90 438 92.9998)" fill="#2F80ED"/>
<circle cx="458" cy="92.9998" r="2" transform="rotate(-90 458 92.9998)" fill="#2F80ED"/>
<circle cx="478" cy="92.9998" r="2" transform="rotate(-90 478 92.9998)" fill="#2F80ED"/>
<circle cx="498" cy="92.9998" r="2" transform="rotate(-90 498 92.9998)" fill="#2F80ED"/>
<circle cx="518" cy="92.9998" r="2" transform="rotate(-90 518 92.9998)" fill="#2F80ED"/>
<circle cx="418" cy="72.9998" r="2" transform="rotate(-90 418 72.9998)" fill="#2F80ED"/>
<circle cx="438" cy="72.9998" r="2" transform="rotate(-90 438 72.9998)" fill="#2F80ED"/>
<circle cx="458" cy="72.9998" r="2" transform="rotate(-90 458 72.9998)" fill="#2F80ED"/>
<circle cx="478" cy="72.9998" r="2" transform="rotate(-90 478 72.9998)" fill="#2F80ED"/>
<circle cx="498" cy="72.9998" r="2" transform="rotate(-90 498 72.9998)" fill="#2F80ED"/>
<circle cx="518" cy="72.9998" r="2" transform="rotate(-90 518 72.9998)" fill="#2F80ED"/>
<circle cx="658" cy="227" r="2" fill="#2F80ED"/>
<circle cx="658" cy="247" r="2" fill="#2F80ED"/>
<circle cx="658" cy="267" r="2" fill="#2F80ED"/>
<circle cx="658" cy="287" r="2" fill="#2F80ED"/>
<circle cx="658" cy="307" r="2" fill="#2F80ED"/>
<circle cx="658" cy="327" r="2" fill="#2F80ED"/>
<circle cx="678" cy="307" r="2" fill="#2F80ED"/>
<circle cx="678" cy="327" r="2" fill="#2F80ED"/>
<circle cx="658" cy="347" r="2" fill="#2F80ED"/>
<circle cx="658" cy="367" r="2" fill="#2F80ED"/>
<circle cx="658" cy="387" r="2" fill="#2F80ED"/>
<circle cx="658" cy="407" r="2" fill="#2F80ED"/>
<circle cx="658" cy="427" r="2" fill="#2F80ED"/>
<circle cx="658" cy="447" r="2" fill="#2F80ED"/>
<circle cx="678" cy="347" r="2" fill="#2F80ED"/>
<circle cx="678" cy="367" r="2" fill="#2F80ED"/>
<circle cx="678" cy="387" r="2" fill="#2F80ED"/>
<circle cx="678" cy="407" r="2" fill="#2F80ED"/>
<circle cx="678" cy="427" r="2" fill="#2F80ED"/>
<circle cx="678" cy="447" r="2" fill="#2F80ED"/>
<circle cx="118" cy="467" r="2" fill="#2F80ED"/>
<circle cx="138" cy="467" r="2" fill="#2F80ED"/>
<circle cx="138" cy="487" r="2" fill="#2F80ED"/>
<circle cx="158" cy="467" r="2" fill="#2F80ED"/>
<circle cx="158" cy="487" r="2" fill="#2F80ED"/>
<circle cx="158" cy="507" r="2" fill="#2F80ED"/>
<circle cx="178" cy="467" r="2" fill="#2F80ED"/>
<circle cx="178" cy="487" r="2" fill="#2F80ED"/>
<circle cx="178" cy="507" r="2" fill="#2F80ED"/>
<circle cx="178" cy="527" r="2" fill="#2F80ED"/>
<circle cx="258" cy="227" r="2" fill="#2F80ED"/>
<circle cx="258" cy="247" r="2" fill="#2F80ED"/>
<circle cx="258" cy="267" r="2" fill="#2F80ED"/>
<circle cx="258" cy="287" r="2" fill="#2F80ED"/>
<circle cx="258" cy="307" r="2" fill="#2F80ED"/>
<circle cx="258" cy="327" r="2" fill="#2F80ED"/>
<circle cx="278" cy="227" r="2" fill="#2F80ED"/>
<circle cx="278" cy="247" r="2" fill="#2F80ED"/>
<circle cx="278" cy="267" r="2" fill="#2F80ED"/>
<circle cx="278" cy="287" r="2" fill="#2F80ED"/>
<circle cx="278" cy="307" r="2" fill="#2F80ED"/>
<circle cx="278" cy="327" r="2" fill="#2F80ED"/>
<circle cx="258" cy="347" r="2" fill="#2F80ED"/>
<circle cx="258" cy="367" r="2" fill="#2F80ED"/>
<circle cx="258" cy="387" r="2" fill="#2F80ED"/>
<circle cx="258" cy="407" r="2" fill="#2F80ED"/>
<circle cx="258" cy="427" r="2" fill="#2F80ED"/>
<circle cx="258" cy="447" r="2" fill="#2F80ED"/>
<circle cx="278" cy="347" r="2" fill="#2F80ED"/>
<circle cx="278" cy="367" r="2" fill="#2F80ED"/>
<circle cx="278" cy="387" r="2" fill="#2F80ED"/>
<circle cx="278" cy="407" r="2" fill="#2F80ED"/>
<circle cx="278" cy="427" r="2" fill="#2F80ED"/>
<circle cx="278" cy="447" r="2" fill="#2F80ED"/>
<circle cx="298" cy="227" r="2" fill="#2F80ED"/>
<circle cx="298" cy="247" r="2" fill="#2F80ED"/>
<circle cx="298" cy="267" r="2" fill="#2F80ED"/>
<circle cx="298" cy="287" r="2" fill="#2F80ED"/>
<circle cx="298" cy="307" r="2" fill="#2F80ED"/>
<circle cx="298" cy="327" r="2" fill="#2F80ED"/>
<circle cx="318" cy="227" r="2" fill="#2F80ED"/>
<circle cx="318" cy="247" r="2" fill="#2F80ED"/>
<circle cx="318" cy="267" r="2" fill="#2F80ED"/>
<circle cx="318" cy="287" r="2" fill="#2F80ED"/>
<circle cx="318" cy="307" r="2" fill="#2F80ED"/>
<circle cx="318" cy="327" r="2" fill="#2F80ED"/>
<circle cx="298" cy="347" r="2" fill="#2F80ED"/>
<circle cx="298" cy="367" r="2" fill="#2F80ED"/>
<circle cx="298" cy="387" r="2" fill="#2F80ED"/>
<circle cx="298" cy="407" r="2" fill="#2F80ED"/>
<circle cx="298" cy="427" r="2" fill="#2F80ED"/>
<circle cx="298" cy="447" r="2" fill="#2F80ED"/>
<circle cx="318" cy="347" r="2" fill="#2F80ED"/>
<circle cx="318" cy="367" r="2" fill="#2F80ED"/>
<circle cx="318" cy="387" r="2" fill="#2F80ED"/>
<circle cx="318" cy="407" r="2" fill="#2F80ED"/>
<circle cx="318" cy="427" r="2" fill="#2F80ED"/>
<circle cx="318" cy="447" r="2" fill="#2F80ED"/>
<circle cx="338" cy="227" r="2" fill="#2F80ED"/>
<circle cx="338" cy="247" r="2" fill="#2F80ED"/>
<circle cx="338" cy="267" r="2" fill="#2F80ED"/>
<circle cx="338" cy="287" r="2" fill="#2F80ED"/>
<circle cx="338" cy="307" r="2" fill="#2F80ED"/>
<circle cx="338" cy="327" r="2" fill="#2F80ED"/>
<circle cx="358" cy="227" r="2" fill="#2F80ED"/>
<circle cx="358" cy="247" r="2" fill="#2F80ED"/>
<circle cx="358" cy="267" r="2" fill="#2F80ED"/>
<circle cx="358" cy="287" r="2" fill="#2F80ED"/>
<circle cx="358" cy="307" r="2" fill="#2F80ED"/>
<circle cx="358" cy="327" r="2" fill="#2F80ED"/>
<circle cx="338" cy="347" r="2" fill="#2F80ED"/>
<circle cx="338" cy="367" r="2" fill="#2F80ED"/>
<circle cx="338" cy="387" r="2" fill="#2F80ED"/>
<circle cx="338" cy="407" r="2" fill="#2F80ED"/>
<circle cx="338" cy="427" r="2" fill="#2F80ED"/>
<circle cx="338" cy="447" r="2" fill="#2F80ED"/>
<circle cx="358" cy="347" r="2" fill="#2F80ED"/>
<circle cx="358" cy="367" r="2" fill="#2F80ED"/>
<circle cx="358" cy="387" r="2" fill="#2F80ED"/>
<circle cx="358" cy="407" r="2" fill="#2F80ED"/>
<circle cx="358" cy="427" r="2" fill="#2F80ED"/>
<circle cx="358" cy="447" r="2" fill="#2F80ED"/>
<circle cx="378" cy="227" r="2" fill="#2F80ED"/>
<circle cx="378" cy="247" r="2" fill="#2F80ED"/>
<circle cx="378" cy="267" r="2" fill="#2F80ED"/>
<circle cx="378" cy="287" r="2" fill="#2F80ED"/>
<circle cx="378" cy="307" r="2" fill="#2F80ED"/>
<circle cx="378" cy="327" r="2" fill="#2F80ED"/>
<circle cx="398" cy="227" r="2" fill="#2F80ED"/>
<circle cx="398" cy="247" r="2" fill="#2F80ED"/>
<circle cx="398" cy="267" r="2" fill="#2F80ED"/>
<circle cx="398" cy="287" r="2" fill="#2F80ED"/>
<circle cx="398" cy="307" r="2" fill="#2F80ED"/>
<circle cx="398" cy="327" r="2" fill="#2F80ED"/>
<circle cx="378" cy="347" r="2" fill="#2F80ED"/>
<circle cx="378" cy="367" r="2" fill="#2F80ED"/>
<circle cx="378" cy="387" r="2" fill="#2F80ED"/>
<circle cx="378" cy="407" r="2" fill="#2F80ED"/>
<circle cx="378" cy="427" r="2" fill="#2F80ED"/>
<circle cx="378" cy="447" r="2" fill="#2F80ED"/>
<circle cx="398" cy="347" r="2" fill="#2F80ED"/>
<circle cx="398" cy="367" r="2" fill="#2F80ED"/>
<circle cx="398" cy="387" r="2" fill="#2F80ED"/>
<circle cx="398" cy="407" r="2" fill="#2F80ED"/>
<circle cx="398" cy="427" r="2" fill="#2F80ED"/>
<circle cx="398" cy="447" r="2" fill="#2F80ED"/>
<circle cx="418" cy="227" r="2" fill="#2F80ED"/>
<circle cx="418" cy="247" r="2" fill="#2F80ED"/>
<circle cx="418" cy="267" r="2" fill="#2F80ED"/>
<circle cx="418" cy="287" r="2" fill="#2F80ED"/>
<circle cx="418" cy="307" r="2" fill="#2F80ED"/>
<circle cx="418" cy="327" r="2" fill="#2F80ED"/>
<circle cx="438" cy="227" r="2" fill="#2F80ED"/>
<circle cx="438" cy="247" r="2" fill="#2F80ED"/>
<circle cx="438" cy="267" r="2" fill="#2F80ED"/>
<circle cx="438" cy="287" r="2" fill="#2F80ED"/>
<circle cx="438" cy="307" r="2" fill="#2F80ED"/>
<circle cx="438" cy="327" r="2" fill="#2F80ED"/>
<circle cx="418" cy="347" r="2" fill="#2F80ED"/>
<circle cx="418" cy="367" r="2" fill="#2F80ED"/>
<circle cx="418" cy="387" r="2" fill="#2F80ED"/>
<circle cx="418" cy="407" r="2" fill="#2F80ED"/>
<circle cx="418" cy="427" r="2" fill="#2F80ED"/>
<circle cx="418" cy="447" r="2" fill="#2F80ED"/>
<circle cx="438" cy="347" r="2" fill="#2F80ED"/>
<circle cx="438" cy="367" r="2" fill="#2F80ED"/>
<circle cx="438" cy="387" r="2" fill="#2F80ED"/>
<circle cx="438" cy="407" r="2" fill="#2F80ED"/>
<circle cx="438" cy="427" r="2" fill="#2F80ED"/>
<circle cx="438" cy="447" r="2" fill="#2F80ED"/>
<circle cx="458" cy="227" r="2" fill="#2F80ED"/>
<circle cx="458" cy="247" r="2" fill="#2F80ED"/>
<circle cx="458" cy="267" r="2" fill="#2F80ED"/>
<circle cx="458" cy="287" r="2" fill="#2F80ED"/>
<circle cx="458" cy="307" r="2" fill="#2F80ED"/>
<circle cx="458" cy="327" r="2" fill="#2F80ED"/>
<circle cx="478" cy="227" r="2" fill="#2F80ED"/>
<circle cx="478" cy="247" r="2" fill="#2F80ED"/>
<circle cx="478" cy="267" r="2" fill="#2F80ED"/>
<circle cx="478" cy="287" r="2" fill="#2F80ED"/>
<circle cx="478" cy="307" r="2" fill="#2F80ED"/>
<circle cx="478" cy="327" r="2" fill="#2F80ED"/>
<circle cx="458" cy="347" r="2" fill="#2F80ED"/>
<circle cx="458" cy="367" r="2" fill="#2F80ED"/>
<circle cx="458" cy="387" r="2" fill="#2F80ED"/>
<circle cx="458" cy="407" r="2" fill="#2F80ED"/>
<circle cx="458" cy="427" r="2" fill="#2F80ED"/>
<circle cx="458" cy="447" r="2" fill="#2F80ED"/>
<circle cx="478" cy="347" r="2" fill="#2F80ED"/>
<circle cx="478" cy="367" r="2" fill="#2F80ED"/>
<circle cx="478" cy="387" r="2" fill="#2F80ED"/>
<circle cx="478" cy="407" r="2" fill="#2F80ED"/>
<circle cx="478" cy="427" r="2" fill="#2F80ED"/>
<circle cx="478" cy="447" r="2" fill="#2F80ED"/>
<circle cx="498" cy="227" r="2" fill="#2F80ED"/>
<circle cx="498" cy="247" r="2" fill="#2F80ED"/>
<circle cx="498" cy="267" r="2" fill="#2F80ED"/>
<circle cx="498" cy="287" r="2" fill="#2F80ED"/>
<circle cx="498" cy="307" r="2" fill="#2F80ED"/>
<circle cx="498" cy="327" r="2" fill="#2F80ED"/>
<circle cx="518" cy="227" r="2" fill="#2F80ED"/>
<circle cx="518" cy="247" r="2" fill="#2F80ED"/>
<circle cx="518" cy="267" r="2" fill="#2F80ED"/>
<circle cx="518" cy="287" r="2" fill="#2F80ED"/>
<circle cx="518" cy="307" r="2" fill="#2F80ED"/>
<circle cx="518" cy="327" r="2" fill="#2F80ED"/>
<circle cx="498" cy="347" r="2" fill="#2F80ED"/>
<circle cx="498" cy="367" r="2" fill="#2F80ED"/>
<circle cx="498" cy="387" r="2" fill="#2F80ED"/>
<circle cx="498" cy="407" r="2" fill="#2F80ED"/>
<circle cx="498" cy="427" r="2" fill="#2F80ED"/>
<circle cx="498" cy="447" r="2" fill="#2F80ED"/>
<circle cx="518" cy="347" r="2" fill="#2F80ED"/>
<circle cx="518" cy="367" r="2" fill="#2F80ED"/>
<circle cx="518" cy="387" r="2" fill="#2F80ED"/>
<circle cx="518" cy="407" r="2" fill="#2F80ED"/>
<circle cx="518" cy="427" r="2" fill="#2F80ED"/>
<circle cx="518" cy="447" r="2" fill="#2F80ED"/>
<circle cx="538" cy="227" r="2" fill="#2F80ED"/>
<circle cx="538" cy="247" r="2" fill="#2F80ED"/>
<circle cx="538" cy="267" r="2" fill="#2F80ED"/>
<circle cx="538" cy="287" r="2" fill="#2F80ED"/>
<circle cx="538" cy="307" r="2" fill="#2F80ED"/>
<circle cx="538" cy="327" r="2" fill="#2F80ED"/>
<circle cx="558" cy="227" r="2" fill="#2F80ED"/>
<circle cx="558" cy="247" r="2" fill="#2F80ED"/>
<circle cx="558" cy="267" r="2" fill="#2F80ED"/>
<circle cx="558" cy="287" r="2" fill="#2F80ED"/>
<circle cx="558" cy="307" r="2" fill="#2F80ED"/>
<circle cx="558" cy="327" r="2" fill="#2F80ED"/>
<circle cx="538" cy="347" r="2" fill="#2F80ED"/>
<circle cx="538" cy="367" r="2" fill="#2F80ED"/>
<circle cx="538" cy="387" r="2" fill="#2F80ED"/>
<circle cx="538" cy="407" r="2" fill="#2F80ED"/>
<circle cx="538" cy="427" r="2" fill="#2F80ED"/>
<circle cx="538" cy="447" r="2" fill="#2F80ED"/>
<circle cx="558" cy="347" r="2" fill="#2F80ED"/>
<circle cx="558" cy="367" r="2" fill="#2F80ED"/>
<circle cx="558" cy="387" r="2" fill="#2F80ED"/>
<circle cx="558" cy="407" r="2" fill="#2F80ED"/>
<circle cx="558" cy="427" r="2" fill="#2F80ED"/>
<circle cx="558" cy="447" r="2" fill="#2F80ED"/>
<circle cx="198" cy="533" r="2" transform="rotate(-90 198 533)" fill="#2F80ED"/>
<circle cx="218" cy="533" r="2" transform="rotate(-90 218 533)" fill="#2F80ED"/>
<circle cx="238" cy="533" r="2" transform="rotate(-90 238 533)" fill="#2F80ED"/>
<circle cx="258" cy="533" r="2" transform="rotate(-90 258 533)" fill="#2F80ED"/>
<circle cx="278" cy="533" r="2" transform="rotate(-90 278 533)" fill="#2F80ED"/>
<circle cx="298" cy="533" r="2" transform="rotate(-90 298 533)" fill="#2F80ED"/>
<circle cx="198" cy="513" r="2" transform="rotate(-90 198 513)" fill="#2F80ED"/>
<circle cx="218" cy="513" r="2" transform="rotate(-90 218 513)" fill="#2F80ED"/>
<circle cx="238" cy="513" r="2" transform="rotate(-90 238 513)" fill="#2F80ED"/>
<circle cx="258" cy="513" r="2" transform="rotate(-90 258 513)" fill="#2F80ED"/>
<circle cx="278" cy="513" r="2" transform="rotate(-90 278 513)" fill="#2F80ED"/>
<circle cx="298" cy="513" r="2" transform="rotate(-90 298 513)" fill="#2F80ED"/>
<circle cx="318" cy="533" r="2" transform="rotate(-90 318 533)" fill="#2F80ED"/>
<circle cx="338" cy="533" r="2" transform="rotate(-90 338 533)" fill="#2F80ED"/>
<circle cx="358" cy="533" r="2" transform="rotate(-90 358 533)" fill="#2F80ED"/>
<circle cx="378" cy="533" r="2" transform="rotate(-90 378 533)" fill="#2F80ED"/>
<circle cx="398" cy="533" r="2" transform="rotate(-90 398 533)" fill="#2F80ED"/>
<circle cx="418" cy="533" r="2" transform="rotate(-90 418 533)" fill="#2F80ED"/>
<circle cx="318" cy="513" r="2" transform="rotate(-90 318 513)" fill="#2F80ED"/>
<circle cx="338" cy="513" r="2" transform="rotate(-90 338 513)" fill="#2F80ED"/>
<circle cx="358" cy="513" r="2" transform="rotate(-90 358 513)" fill="#2F80ED"/>
<circle cx="378" cy="513" r="2" transform="rotate(-90 378 513)" fill="#2F80ED"/>
<circle cx="398" cy="513" r="2" transform="rotate(-90 398 513)" fill="#2F80ED"/>
<circle cx="418" cy="513" r="2" transform="rotate(-90 418 513)" fill="#2F80ED"/>
<circle cx="198" cy="493" r="2" transform="rotate(-90 198 493)" fill="#2F80ED"/>
<circle cx="218" cy="493" r="2" transform="rotate(-90 218 493)" fill="#2F80ED"/>
<circle cx="238" cy="493" r="2" transform="rotate(-90 238 493)" fill="#2F80ED"/>
<circle cx="258" cy="493" r="2" transform="rotate(-90 258 493)" fill="#2F80ED"/>
<circle cx="278" cy="493" r="2" transform="rotate(-90 278 493)" fill="#2F80ED"/>
<circle cx="298" cy="493" r="2" transform="rotate(-90 298 493)" fill="#2F80ED"/>
<circle cx="198" cy="473" r="2" transform="rotate(-90 198 473)" fill="#2F80ED"/>
<circle cx="218" cy="473" r="2" transform="rotate(-90 218 473)" fill="#2F80ED"/>
<circle cx="238" cy="473" r="2" transform="rotate(-90 238 473)" fill="#2F80ED"/>
<circle cx="258" cy="473" r="2" transform="rotate(-90 258 473)" fill="#2F80ED"/>
<circle cx="278" cy="473" r="2" transform="rotate(-90 278 473)" fill="#2F80ED"/>
<circle cx="298" cy="473" r="2" transform="rotate(-90 298 473)" fill="#2F80ED"/>
<circle cx="318" cy="493" r="2" transform="rotate(-90 318 493)" fill="#2F80ED"/>
<circle cx="338" cy="493" r="2" transform="rotate(-90 338 493)" fill="#2F80ED"/>
<circle cx="358" cy="493" r="2" transform="rotate(-90 358 493)" fill="#2F80ED"/>
<circle cx="378" cy="493" r="2" transform="rotate(-90 378 493)" fill="#2F80ED"/>
<circle cx="398" cy="493" r="2" transform="rotate(-90 398 493)" fill="#2F80ED"/>
<circle cx="418" cy="493" r="2" transform="rotate(-90 418 493)" fill="#2F80ED"/>
<circle cx="318" cy="473" r="2" transform="rotate(-90 318 473)" fill="#2F80ED"/>
<circle cx="338" cy="473" r="2" transform="rotate(-90 338 473)" fill="#2F80ED"/>
<circle cx="358" cy="473" r="2" transform="rotate(-90 358 473)" fill="#2F80ED"/>
<circle cx="378" cy="473" r="2" transform="rotate(-90 378 473)" fill="#2F80ED"/>
<circle cx="398" cy="473" r="2" transform="rotate(-90 398 473)" fill="#2F80ED"/>
<circle cx="418" cy="473" r="2" transform="rotate(-90 418 473)" fill="#2F80ED"/>
</g>
<path fill-rule="evenodd" clip-rule="evenodd" d="M660.697 501.273C636.827 553.007 587.998 585.434 540.531 617.664C486.567 654.305 433.259 710.732 367.604 700.28C301.986 689.834 272.052 614.91 225.565 567.523C181.586 522.693 119.648 490.427 103.122 430.678C86.1074 369.164 101.382 300.781 137.47 249.024C171.093 200.803 235.215 189.743 288.873 164.278C340.039 139.996 386.299 99.2583 443.533 103.774C502.283 108.409 553.324 146.25 594.556 188.394C634.476 229.197 658.932 280.792 670.566 335.829C682.355 391.594 684.328 450.056 660.697 501.273Z" fill="url(#paint0_linear)"/>
<defs>
<linearGradient id="paint0_linear" x1="-212" y1="242" x2="802" y2="188" gradientUnits="userSpaceOnUse">
<stop stop-color="white" stop-opacity="0"/>
<stop offset="1" stop-color="white"/>
<stop offset="1" stop-color="white" stop-opacity="0.79"/>
</linearGradient>
</defs>
</svg>
