<svg width="366" height="269" viewBox="0 0 366 269" fill="none" xmlns="http://www.w3.org/2000/svg">
<path d="M22 16.9342C23.6569 16.9342 25 15.2763 25 13.2312C25 11.1861 23.6569 9.5282 22 9.5282C20.3431 9.5282 19 11.1861 19 13.2312C19 15.2763 20.3431 16.9342 22 16.9342Z" fill="#FAD375"/>
<path d="M31 16.9342C32.6569 16.9342 34 15.2763 34 13.2312C34 11.1861 32.6569 9.5282 31 9.5282C29.3431 9.5282 28 11.1861 28 13.2312C28 15.2763 29.3431 16.9342 31 16.9342Z" fill="#8BCC55"/>
<path d="M273.5 70.6277H67.5V149.625H273.5V70.6277Z" fill="#F6F8FA"/>
<path d="M365 55.1991V260.504C365 264.37 361.866 267.504 358 267.504H8.00001C4.13401 267.504 1 264.37 1 260.504V7.88841C1 4.02242 4.13401 0.888428 8 0.888428H297" stroke="#62717F" stroke-miterlimit="10"/>
<path d="M1 21.0795H297.5H365" stroke="#62717F" stroke-miterlimit="10"/>
<path d="M14 14.4655C15.6569 14.4655 17 12.8076 17 10.7625C17 8.71734 15.6569 7.05945 14 7.05945C12.3431 7.05945 11 8.71734 11 10.7625C11 12.8076 12.3431 14.4655 14 14.4655Z" stroke="#3F3D56" stroke-miterlimit="10"/>
<path d="M23 14.4655C24.6569 14.4655 26 12.8076 26 10.7625C26 8.71734 24.6569 7.05945 23 7.05945C21.3431 7.05945 20 8.71734 20 10.7625C20 12.8076 21.3431 14.4655 23 14.4655Z" stroke="#3F3D56" stroke-miterlimit="10"/>
<path d="M32 14.4655C33.6569 14.4655 35 12.8076 35 10.7625C35 8.71734 33.6569 7.05945 32 7.05945C30.3431 7.05945 29 8.71734 29 10.7625C29 12.8076 30.3431 14.4655 32 14.4655Z" stroke="#3F3D56" stroke-miterlimit="10"/>
<path d="M286 55.1985H80V134.196H286V55.1985Z" stroke="#62717F" stroke-miterlimit="10"/>
<path d="M87.5 180.483H24.5V247.137H87.5V180.483Z" fill="#F6F8FA"/>
<path d="M204 181.101H141V247.755H204V181.101Z" fill="#F6F8FA"/>
<path d="M320.5 181.718H257.5V248.372H320.5V181.718Z" fill="#F6F8FA"/>
<path d="M96.5 168.14H33.5V234.794H96.5V168.14Z" stroke="#3F3D56" stroke-miterlimit="10"/>
<path d="M213 168.757H150V235.411H213V168.757Z" stroke="#3F3D56" stroke-miterlimit="10"/>
<path d="M329.5 169.374H266.5V236.028H329.5V169.374Z" stroke="#3F3D56" stroke-miterlimit="10"/>
</svg>
