<svg width="210" height="116" viewBox="0 0 210 116" fill="none" xmlns="http://www.w3.org/2000/svg">
<path d="M4 99.179C4 99.179 12.8403 70 32.2886 70C61.9037 70 52.7265 112 80.742 112C108.758 112 101.243 70 128.517 70C155.79 70 146.771 112 175.944 112C201.58 112 206 70 206 70" stroke="#A9D9F6" stroke-width="7"/>
<path d="M4 33.179C4 33.179 12.8403 4 32.2886 4C61.9037 4 52.7265 46 80.742 46C108.758 46 101.243 4 128.517 4C155.79 4 146.771 46 175.944 46C201.58 46 206 4 206 4" stroke="#A9D9F6" stroke-width="7"/>
</svg>
