<svg width="1323" height="844" viewBox="0 0 1323 844" fill="none" xmlns="http://www.w3.org/2000/svg">
<g id="Squiggles">
<path id="squiggle - 4" d="M1171.63 -69.8774C1171.63 -69.8774 1089.35 -67.5241 1059 -37.0002C1028.65 -6.47616 1035.76 62.0326 993.673 106.398C947.806 154.749 870.675 79.3848 824.294 127.243C778.757 174.229 825.119 255.208 773.675 295.641C733.309 327.367 657.143 261.899 615.601 292.069C562.442 330.679 619.151 446.713 570.002 490.314C510.54 543.062 437.589 437.385 380.171 492.351C332.45 538.034 376.645 617.034 327.641 661.338C271.574 712.028 174.999 589 114.999 639C72.1159 674.736 80.759 755.817 40.9999 795C1.24073 834.183 -77.0004 813 -77.0004 813" stroke="#F6F8FA" stroke-width="10"/>
<path id="squiggle - 3" d="M1129.37 -122.056C1129.37 -122.056 1021.96 -131.02 991.606 -100.496C961.253 -69.9723 993.504 9.85411 951.418 54.2195C905.551 102.571 828.42 27.2063 782.039 75.0646C736.502 122.051 782.864 203.03 731.42 243.462C691.054 275.188 614.888 209.72 573.347 239.891C520.187 278.5 576.897 394.535 527.748 438.135C468.286 490.883 395.335 385.206 337.916 440.172C290.195 485.855 334.39 564.855 285.387 609.159C229.32 659.849 136.814 525.137 89.2146 583.851C54.0605 627.213 47.9197 716.174 8.16052 755.357C-35.2311 798.119 -83.4687 722.921 -83.4687 722.921" stroke="#F6F8FA" stroke-width="10"/>
<path id="squiggle - 2" d="M1097.5 -181.293C1097.5 -181.293 990.084 -190.258 959.731 -159.734C929.379 -129.21 961.63 -49.3831 919.544 -5.01777C873.677 43.3337 796.546 -32.031 750.165 15.8273C704.628 62.8133 750.99 143.793 699.546 184.225C659.18 215.951 583.014 150.483 541.473 180.654C488.313 219.263 545.023 335.297 495.874 378.898C436.412 431.646 363.461 325.969 306.042 380.935C258.321 426.618 302.516 505.618 253.513 549.922C197.446 600.612 104.94 465.9 57.3406 524.614C22.1865 567.976 16.0456 656.937 -23.7135 696.119C-67.1051 738.882 -115.343 663.683 -115.343 663.683" stroke="#F6F8FA" stroke-width="10"/>
<path id="squiggle - 1" d="M1055.03 -247.728C1055.03 -247.728 947.618 -256.693 917.266 -226.169C886.914 -195.645 919.164 -115.818 877.078 -71.4531C831.211 -23.1016 754.081 -98.4663 707.699 -50.608C662.162 -3.62203 708.524 77.3573 657.08 117.79C616.714 149.516 540.548 84.0473 499.007 114.218C445.847 152.828 502.557 268.862 453.408 312.462C393.946 365.211 320.995 259.534 263.576 314.5C215.855 360.182 260.05 439.183 211.047 483.487C154.98 534.177 62.4745 399.465 14.8748 458.178C-20.2793 501.54 -26.4202 590.501 -66.1793 629.684C-109.571 672.447 -157.809 597.248 -157.809 597.248" stroke="#F6F8FA" stroke-width="10"/>
</g>
</svg>
