<svg width="1210" height="665" viewBox="0 0 1210 665" fill="none" xmlns="http://www.w3.org/2000/svg">
<path id="squiggle - 1" d="M1055.03 -247.728C1055.03 -247.728 947.618 -256.693 917.266 -226.169C886.914 -195.645 919.164 -115.818 877.078 -71.4531C831.211 -23.1016 754.081 -98.4662 707.699 -50.608C662.162 -3.62201 708.524 77.3573 657.08 117.79C616.714 149.516 540.548 84.0474 499.007 114.218C445.847 152.828 502.557 268.862 453.408 312.462C393.946 365.211 320.995 259.534 263.576 314.5C215.855 360.182 260.05 439.183 211.047 483.487C154.98 534.177 62.4745 399.465 14.8748 458.178C-20.2793 501.54 -26.4202 590.501 -66.1793 629.684C-109.571 672.447 -157.809 597.248 -157.809 597.248" stroke="#F6F8FA" stroke-width="10"/>
</svg>
