<svg width="1323" height="844" viewBox="0 0 1323 844" fill="none" xmlns="http://www.w3.org/2000/svg">
<path id="squiggle - 4" d="M1171.63 -69.8773C1171.63 -69.8773 1089.35 -67.5241 1059 -37.0001C1028.65 -6.47612 1035.76 62.0326 993.673 106.398C947.806 154.749 870.675 79.3848 824.294 127.243C778.757 174.229 825.119 255.209 773.675 295.641C733.309 327.367 657.143 261.899 615.601 292.07C562.442 330.679 619.151 446.713 570.002 490.314C510.54 543.062 437.589 437.385 380.171 492.351C332.45 538.034 376.645 617.034 327.641 661.338C271.574 712.028 174.999 589 114.999 639C72.1159 674.736 80.759 755.817 40.9999 795C1.24073 834.183 -77.0004 813 -77.0004 813" stroke="#F6F8FA" stroke-width="10"/>
</svg>
