<svg width="1284" height="790" viewBox="0 0 1284 790" fill="none" xmlns="http://www.w3.org/2000/svg">
<path id="squiggle - 3" d="M1129.37 -122.056C1129.37 -122.056 1021.96 -131.02 991.606 -100.496C961.253 -69.9723 993.504 9.85411 951.418 54.2195C905.551 102.571 828.42 27.2063 782.039 75.0646C736.502 122.051 782.864 203.03 731.42 243.462C691.054 275.188 614.888 209.72 573.347 239.891C520.187 278.5 576.897 394.535 527.748 438.135C468.286 490.883 395.335 385.206 337.916 440.172C290.195 485.855 334.39 564.855 285.387 609.159C229.32 659.849 136.814 525.137 89.2146 583.851C54.0605 627.213 47.9197 716.174 8.16052 755.357C-35.2311 798.119 -83.4687 722.921 -83.4687 722.921" stroke="#F6F8FA" stroke-width="10"/>
</svg>
