<svg width="1253" height="731" viewBox="0 0 1253 731" fill="none" xmlns="http://www.w3.org/2000/svg">
<path id="squiggle - 2" d="M1097.5 -181.293C1097.5 -181.293 990.084 -190.258 959.731 -159.734C929.379 -129.21 961.63 -49.3831 919.544 -5.01776C873.677 43.3337 796.546 -32.0309 750.165 15.8273C704.628 62.8133 750.99 143.793 699.546 184.225C659.18 215.951 583.014 150.483 541.473 180.654C488.313 219.263 545.023 335.298 495.874 378.898C436.412 431.646 363.461 325.969 306.042 380.935C258.321 426.618 302.516 505.618 253.513 549.922C197.446 600.612 104.94 465.9 57.3406 524.614C22.1865 567.976 16.0456 656.937 -23.7135 696.119C-67.1051 738.882 -115.343 663.684 -115.343 663.684" stroke="#F6F8FA" stroke-width="10"/>
</svg>
