<svg width="229" height="235" viewBox="0 0 229 235" fill="none" xmlns="http://www.w3.org/2000/svg">
<g filter="url(#filter0_d)">
<path d="M114.5 13L205 65.25V169.75L114.5 222L24.0003 169.75V65.25L114.5 13Z" fill="#F6F8FA"/>
<path d="M27.0003 66.9821L114.5 16.4641L202 66.9821V168.018L114.5 218.536L27.0003 168.018V66.9821Z" stroke="#40B1A9" stroke-width="6"/>
</g>
<path d="M50.2912 91H55.5902C58.5881 91 60.0582 89.4723 60.0582 87.4332C60.0582 85.4517 58.652 84.2884 57.2585 84.218V84.0902C58.5369 83.7898 59.5469 82.8949 59.5469 81.3033C59.5469 79.3537 58.1406 77.9091 55.3026 77.9091H50.2912V91ZM52.6626 89.0185V85.1832H55.277C56.7408 85.1832 57.6484 86.0781 57.6484 87.2479C57.6484 88.2898 56.9325 89.0185 55.2131 89.0185H52.6626ZM52.6626 83.4766V79.8651H55.0597C56.4531 79.8651 57.1754 80.6001 57.1754 81.6101C57.1754 82.7607 56.2422 83.4766 55.0085 83.4766H52.6626ZM68.2768 86.8707C68.2768 88.3665 67.2093 89.108 66.1866 89.108C65.0744 89.108 64.3329 88.3217 64.3329 87.0753V81.1818H62.019V87.4332C62.019 89.7919 63.3613 91.1278 65.2917 91.1278C66.7619 91.1278 67.7974 90.3544 68.2449 89.255H68.3471V91H70.5907V81.1818H68.2768V86.8707ZM72.9702 91H75.2841V81.1818H72.9702V91ZM74.1335 79.7884C74.8686 79.7884 75.4695 79.2259 75.4695 78.5355C75.4695 77.8388 74.8686 77.2763 74.1335 77.2763C73.392 77.2763 72.7912 77.8388 72.7912 78.5355C72.7912 79.2259 73.392 79.7884 74.1335 79.7884ZM79.9775 77.9091H77.6635V91H79.9775V77.9091ZM86.0004 91.1726C87.6879 91.1726 88.4485 90.169 88.8129 89.4531H88.9535V91H91.229V77.9091H88.9087V82.8054H88.8129C88.4613 82.0959 87.739 81.054 86.0067 81.054C83.7376 81.054 81.9542 82.831 81.9542 86.1037C81.9542 89.3381 83.6864 91.1726 86.0004 91.1726ZM86.646 89.2741C85.1183 89.2741 84.3129 87.9318 84.3129 86.0909C84.3129 84.2628 85.1055 82.9524 86.646 82.9524C88.1353 82.9524 88.9535 84.1861 88.9535 86.0909C88.9535 87.9957 88.1225 89.2741 86.646 89.2741ZM50.2912 113H52.6626V108.577H55.1683C58.1918 108.577 59.8153 106.761 59.8153 104.243C59.8153 101.744 58.2109 99.9091 55.2003 99.9091H50.2912V113ZM52.6626 106.627V101.891H54.8359C56.6129 101.891 57.3991 102.849 57.3991 104.243C57.3991 105.636 56.6129 106.627 54.8487 106.627H52.6626ZM61.7729 113H64.0868V107.228C64.0868 105.982 65.0265 105.099 66.2985 105.099C66.6884 105.099 67.1742 105.17 67.3723 105.234V103.105C67.1614 103.067 66.7971 103.041 66.5414 103.041C65.4164 103.041 64.4767 103.68 64.1188 104.818H64.0165V103.182H61.7729V113ZM72.788 113.192C75.6644 113.192 77.4925 111.165 77.4925 108.129C77.4925 105.087 75.6644 103.054 72.788 103.054C69.9116 103.054 68.0835 105.087 68.0835 108.129C68.0835 111.165 69.9116 113.192 72.788 113.192ZM72.8008 111.338C71.2092 111.338 70.4293 109.919 70.4293 108.123C70.4293 106.327 71.2092 104.888 72.8008 104.888C74.3668 104.888 75.1467 106.327 75.1467 108.123C75.1467 109.919 74.3668 111.338 72.8008 111.338ZM83.1 113.173C84.7875 113.173 85.5481 112.169 85.9125 111.453H86.0531V113H88.3287V99.9091H86.0083V104.805H85.9125C85.5609 104.096 84.8386 103.054 83.1064 103.054C80.8372 103.054 79.0538 104.831 79.0538 108.104C79.0538 111.338 80.786 113.173 83.1 113.173ZM83.7456 111.274C82.2179 111.274 81.4125 109.932 81.4125 108.091C81.4125 106.263 82.2051 104.952 83.7456 104.952C85.2349 104.952 86.0531 106.186 86.0531 108.091C86.0531 109.996 85.2221 111.274 83.7456 111.274ZM97.0522 108.871C97.0522 110.366 95.9847 111.108 94.962 111.108C93.8498 111.108 93.1083 110.322 93.1083 109.075V103.182H90.7944V109.433C90.7944 111.792 92.1367 113.128 94.0671 113.128C95.5373 113.128 96.5728 112.354 97.0202 111.255H97.1225V113H99.3661V103.182H97.0522V108.871ZM106.028 113.192C108.496 113.192 110.068 111.728 110.234 109.644H108.023C107.824 110.699 107.064 111.306 106.047 111.306C104.603 111.306 103.67 110.098 103.67 108.091C103.67 106.109 104.622 104.92 106.047 104.92C107.16 104.92 107.844 105.636 108.023 106.582H110.234C110.074 104.454 108.412 103.054 106.015 103.054C103.139 103.054 101.324 105.131 101.324 108.129C101.324 111.102 103.094 113.192 106.028 113.192ZM117.037 103.182H115.1V100.83H112.786V103.182H111.393V104.972H112.786V110.43C112.773 112.278 114.116 113.185 115.854 113.134C116.513 113.115 116.967 112.987 117.216 112.904L116.826 111.095C116.698 111.127 116.436 111.185 116.148 111.185C115.567 111.185 115.1 110.98 115.1 110.047V104.972H117.037V103.182ZM126.591 105.777C126.272 104.115 124.942 103.054 122.641 103.054C120.276 103.054 118.665 104.217 118.672 106.033C118.665 107.464 119.547 108.411 121.433 108.8L123.108 109.152C124.009 109.35 124.431 109.714 124.431 110.271C124.431 110.942 123.702 111.447 122.603 111.447C121.542 111.447 120.851 110.987 120.653 110.104L118.397 110.322C118.684 112.124 120.199 113.192 122.609 113.192C125.064 113.192 126.796 111.92 126.802 110.06C126.796 108.66 125.895 107.803 124.041 107.401L122.366 107.043C121.369 106.819 120.973 106.474 120.979 105.905C120.973 105.24 121.708 104.78 122.673 104.78C123.741 104.78 124.303 105.362 124.482 106.007L126.591 105.777ZM50.2912 135H52.6626V130.577H55.1683C58.1918 130.577 59.8153 128.761 59.8153 126.243C59.8153 123.744 58.2109 121.909 55.2003 121.909H50.2912V135ZM52.6626 128.627V123.891H54.8359C56.6129 123.891 57.3991 124.849 57.3991 126.243C57.3991 127.636 56.6129 128.627 54.8487 128.627H52.6626ZM65.9789 135.192C68.2672 135.192 69.8397 134.073 70.2488 132.366L68.0882 132.124C67.775 132.955 67.008 133.389 66.0108 133.389C64.5151 133.389 63.5243 132.405 63.5051 130.724H70.3446V130.014C70.3446 126.569 68.2736 125.054 65.8574 125.054C63.0449 125.054 61.2104 127.119 61.2104 130.148C61.2104 133.229 63.0194 135.192 65.9789 135.192ZM63.5115 129.164C63.5819 127.911 64.5087 126.857 65.8894 126.857C67.2189 126.857 68.1138 127.828 68.1266 129.164H63.5115ZM76.5849 135.192C79.4613 135.192 81.2894 133.165 81.2894 130.129C81.2894 127.087 79.4613 125.054 76.5849 125.054C73.7085 125.054 71.8803 127.087 71.8803 130.129C71.8803 133.165 73.7085 135.192 76.5849 135.192ZM76.5977 133.338C75.006 133.338 74.2262 131.919 74.2262 130.123C74.2262 128.327 75.006 126.888 76.5977 126.888C78.1637 126.888 78.9435 128.327 78.9435 130.123C78.9435 131.919 78.1637 133.338 76.5977 133.338ZM83.2534 138.682H85.5673V133.453H85.6632C86.0275 134.169 86.7882 135.173 88.4757 135.173C90.7896 135.173 92.5218 133.338 92.5218 130.104C92.5218 126.831 90.7385 125.054 88.4693 125.054C86.737 125.054 86.0147 126.096 85.6632 126.805H85.5289V125.182H83.2534V138.682ZM85.5225 130.091C85.5225 128.186 86.3407 126.952 87.8301 126.952C89.3706 126.952 90.1632 128.263 90.1632 130.091C90.1632 131.932 89.3578 133.274 87.8301 133.274C86.3535 133.274 85.5225 131.996 85.5225 130.091ZM96.8173 121.909H94.5034V135H96.8173V121.909ZM103.543 135.192C105.832 135.192 107.404 134.073 107.813 132.366L105.653 132.124C105.339 132.955 104.572 133.389 103.575 133.389C102.08 133.389 101.089 132.405 101.07 130.724H107.909V130.014C107.909 126.569 105.838 125.054 103.422 125.054C100.609 125.054 98.7749 127.119 98.7749 130.148C98.7749 133.229 100.584 135.192 103.543 135.192ZM101.076 129.164C101.146 127.911 102.073 126.857 103.454 126.857C104.783 126.857 105.678 127.828 105.691 129.164H101.076Z" fill="#56CEC2"/>
<path d="M141.291 158H149.428V156.012H143.663V144.909H141.291V158ZM155.667 158.192C158.543 158.192 160.371 156.165 160.371 153.129C160.371 150.087 158.543 148.054 155.667 148.054C152.79 148.054 150.962 150.087 150.962 153.129C150.962 156.165 152.79 158.192 155.667 158.192ZM155.68 156.338C154.088 156.338 153.308 154.919 153.308 153.123C153.308 151.327 154.088 149.888 155.68 149.888C157.246 149.888 158.026 151.327 158.026 153.123C158.026 154.919 157.246 156.338 155.68 156.338ZM170.771 148.182H168.31L166.048 155.475H165.945L163.689 148.182H161.222L164.718 158H167.275L170.771 148.182ZM176.385 158.192C178.673 158.192 180.246 157.073 180.655 155.366L178.494 155.124C178.181 155.955 177.414 156.389 176.417 156.389C174.921 156.389 173.931 155.405 173.911 153.724H180.751V153.014C180.751 149.569 178.68 148.054 176.264 148.054C173.451 148.054 171.617 150.119 171.617 153.148C171.617 156.229 173.426 158.192 176.385 158.192ZM173.918 152.164C173.988 150.911 174.915 149.857 176.296 149.857C177.625 149.857 178.52 150.828 178.533 152.164H173.918Z" fill="#56CEC2"/>
<line x1="90.5" y1="182.5" x2="138.5" y2="182.5" stroke="#56CEC2" stroke-width="13" stroke-linecap="round"/>
<path d="M93.1208 185.115C93.9773 185.115 94.4248 184.655 94.5782 184.335H94.6165V185H95.3708V181.766C95.3708 180.206 94.1819 180.027 93.5554 180.027C92.814 180.027 91.9702 180.283 91.5867 181.178L92.3026 181.433C92.4688 181.075 92.8619 180.692 93.581 180.692C94.2745 180.692 94.6165 181.059 94.6165 181.689V181.714C94.6165 182.079 94.2458 182.047 93.3509 182.162C92.44 182.28 91.4461 182.482 91.4461 183.607C91.4461 184.565 92.1875 185.115 93.1208 185.115ZM93.2358 184.438C92.635 184.438 92.2003 184.169 92.2003 183.645C92.2003 183.07 92.7245 182.891 93.3125 182.814C93.6321 182.776 94.4887 182.686 94.6165 182.533V183.223C94.6165 183.837 94.1307 184.438 93.2358 184.438ZM100.225 181.19C99.9882 180.494 99.4577 180.027 98.4861 180.027C97.4506 180.027 96.6835 180.615 96.6835 181.446C96.6835 182.124 97.0862 182.577 97.9875 182.788L98.8057 182.98C99.3011 183.095 99.5344 183.332 99.5344 183.67C99.5344 184.092 99.087 184.438 98.3838 184.438C97.767 184.438 97.3803 184.172 97.246 183.645L96.5301 183.824C96.7059 184.658 97.3931 185.102 98.3966 185.102C99.5376 185.102 100.314 184.479 100.314 183.632C100.314 182.948 99.886 182.517 99.0103 182.303L98.2816 182.124C97.6999 181.98 97.4378 181.785 97.4378 181.408C97.4378 180.986 97.8853 180.679 98.4861 180.679C99.1445 180.679 99.4161 181.043 99.5472 181.382L100.225 181.19ZM102.204 182.047C102.204 181.19 102.75 180.705 103.495 180.705C104.205 180.705 104.633 181.152 104.633 181.932V185H105.387V181.881C105.387 180.618 104.716 180.027 103.712 180.027C102.939 180.027 102.498 180.35 102.268 180.858H102.204V178.455H101.45V185H102.204V182.047ZM107.521 178.455H106.767V185H107.521V178.455ZM109.389 186.828C110.069 186.828 110.552 186.467 110.833 185.716L112.923 180.104L112.099 180.091L110.744 184.003H110.693L109.337 180.091H108.519L110.335 185.026L110.194 185.409C109.925 186.144 109.58 186.214 109.031 186.074L108.839 186.739C108.916 186.777 109.133 186.828 109.389 186.828ZM114.676 182.047C114.676 181.19 115.206 180.705 115.928 180.705C116.628 180.705 117.053 181.162 117.053 181.932V185H117.808V181.881C117.808 180.628 117.14 180.027 116.146 180.027C115.404 180.027 114.944 180.359 114.714 180.858H114.65V180.091H113.921V185H114.676V182.047ZM119.736 185.051C120.052 185.051 120.311 184.792 120.311 184.476C120.311 184.159 120.052 183.901 119.736 183.901C119.419 183.901 119.16 184.159 119.16 184.476C119.16 184.792 119.419 185.051 119.736 185.051ZM123.109 185.115C123.966 185.115 124.413 184.655 124.566 184.335H124.605V185H125.359V181.766C125.359 180.206 124.17 180.027 123.544 180.027C122.802 180.027 121.958 180.283 121.575 181.178L122.291 181.433C122.457 181.075 122.85 180.692 123.569 180.692C124.263 180.692 124.605 181.059 124.605 181.689V181.714C124.605 182.079 124.234 182.047 123.339 182.162C122.428 182.28 121.434 182.482 121.434 183.607C121.434 184.565 122.176 185.115 123.109 185.115ZM123.224 184.438C122.623 184.438 122.189 184.169 122.189 183.645C122.189 183.07 122.713 182.891 123.301 182.814C123.62 182.776 124.477 182.686 124.605 182.533V183.223C124.605 183.837 124.119 184.438 123.224 184.438ZM126.736 186.841H127.49V184.246H127.554C127.72 184.514 128.04 185.102 128.986 185.102C130.213 185.102 131.07 184.118 131.07 182.558C131.07 181.011 130.213 180.027 128.973 180.027C128.014 180.027 127.72 180.615 127.554 180.871H127.464V180.091H126.736V186.841ZM127.477 182.545C127.477 181.446 127.963 180.705 128.883 180.705C129.842 180.705 130.315 181.51 130.315 182.545C130.315 183.594 129.83 184.425 128.883 184.425C127.976 184.425 127.477 183.658 127.477 182.545ZM132.22 186.841H132.974V184.246H133.038C133.205 184.514 133.524 185.102 134.47 185.102C135.697 185.102 136.554 184.118 136.554 182.558C136.554 181.011 135.697 180.027 134.457 180.027C133.499 180.027 133.205 180.615 133.038 180.871H132.949V180.091H132.22V186.841ZM132.962 182.545C132.962 181.446 133.447 180.705 134.368 180.705C135.327 180.705 135.8 181.51 135.8 182.545C135.8 183.594 135.314 184.425 134.368 184.425C133.46 184.425 132.962 183.658 132.962 182.545Z" fill="#F6F8FA"/>
<line opacity="0.5" x1="111" y1="86" x2="179" y2="86" stroke="#D4DAE1" stroke-width="10" stroke-linecap="round"/>
<line opacity="0.5" x1="147" y1="108" x2="179" y2="108" stroke="#D4DAE1" stroke-width="10" stroke-linecap="round"/>
<line opacity="0.5" x1="125" y1="130" x2="179" y2="130" stroke="#D4DAE1" stroke-width="10" stroke-linecap="round"/>
<path opacity="0.8" d="M54 152C53.4477 152 53 152.448 53 153C53 153.552 53.4477 154 54 154L54 152ZM128.707 153.707C129.098 153.317 129.098 152.683 128.707 152.293L122.343 145.929C121.953 145.538 121.319 145.538 120.929 145.929C120.538 146.319 120.538 146.953 120.929 147.343L126.586 153L120.929 158.657C120.538 159.047 120.538 159.681 120.929 160.071C121.319 160.462 121.953 160.462 122.343 160.071L128.707 153.707ZM54 154L128 154L128 152L54 152L54 154Z" fill="#D4DAE1"/>
<defs>
<filter id="filter0_d" x="20.0004" y="13" width="188.999" height="217" filterUnits="userSpaceOnUse" color-interpolation-filters="sRGB">
<feFlood flood-opacity="0" result="BackgroundImageFix"/>
<feColorMatrix in="SourceAlpha" type="matrix" values="0 0 0 0 0 0 0 0 0 0 0 0 0 0 0 0 0 0 127 0"/>
<feOffset dy="4"/>
<feGaussianBlur stdDeviation="2"/>
<feColorMatrix type="matrix" values="0 0 0 0 0 0 0 0 0 0 0 0 0 0 0 0 0 0 0.25 0"/>
<feBlend mode="normal" in2="BackgroundImageFix" result="effect1_dropShadow"/>
<feBlend mode="normal" in="SourceGraphic" in2="effect1_dropShadow" result="shape"/>
</filter>
</defs>
</svg>
