<svg width="181" height="209" viewBox="0 0 181 209" fill="none" xmlns="http://www.w3.org/2000/svg">
<path d="M90.5 3.5L3 54V155L90.5 205.5L178 154.547V54L90.5 3.5Z" fill="#F6F8FA" stroke="#40B1A9" stroke-width="6"/>
<path d="M26.2912 78H31.5902C34.5881 78 36.0582 76.4723 36.0582 74.4332C36.0582 72.4517 34.652 71.2884 33.2585 71.218V71.0902C34.5369 70.7898 35.5469 69.8949 35.5469 68.3033C35.5469 66.3537 34.1406 64.9091 31.3026 64.9091H26.2912V78ZM28.6626 76.0185V72.1832H31.277C32.7408 72.1832 33.6484 73.0781 33.6484 74.2479C33.6484 75.2898 32.9325 76.0185 31.2131 76.0185H28.6626ZM28.6626 70.4766V66.8651H31.0597C32.4531 66.8651 33.1754 67.6001 33.1754 68.6101C33.1754 69.7607 32.2422 70.4766 31.0085 70.4766H28.6626ZM44.2768 73.8707C44.2768 75.3665 43.2093 76.108 42.1866 76.108C41.0744 76.108 40.3329 75.3217 40.3329 74.0753V68.1818H38.019V74.4332C38.019 76.7919 39.3613 78.1278 41.2917 78.1278C42.7619 78.1278 43.7974 77.3544 44.2449 76.255H44.3471V78H46.5907V68.1818H44.2768V73.8707ZM48.9702 78H51.2841V68.1818H48.9702V78ZM50.1335 66.7884C50.8686 66.7884 51.4695 66.2259 51.4695 65.5355C51.4695 64.8388 50.8686 64.2763 50.1335 64.2763C49.392 64.2763 48.7912 64.8388 48.7912 65.5355C48.7912 66.2259 49.392 66.7884 50.1335 66.7884ZM55.9775 64.9091H53.6635V78H55.9775V64.9091ZM62.0004 78.1726C63.6879 78.1726 64.4485 77.169 64.8129 76.4531H64.9535V78H67.229V64.9091H64.9087V69.8054H64.8129C64.4613 69.0959 63.739 68.054 62.0067 68.054C59.7376 68.054 57.9542 69.831 57.9542 73.1037C57.9542 76.3381 59.6864 78.1726 62.0004 78.1726ZM62.646 76.2741C61.1183 76.2741 60.3129 74.9318 60.3129 73.0909C60.3129 71.2628 61.1055 69.9524 62.646 69.9524C64.1353 69.9524 64.9535 71.1861 64.9535 73.0909C64.9535 74.9957 64.1225 76.2741 62.646 76.2741ZM26.2912 100H28.6626V95.5767H31.1683C34.1918 95.5767 35.8153 93.7614 35.8153 91.2429C35.8153 88.7436 34.2109 86.9091 31.2003 86.9091H26.2912V100ZM28.6626 93.6271V88.8906H30.8359C32.6129 88.8906 33.3991 89.8494 33.3991 91.2429C33.3991 92.6364 32.6129 93.6271 30.8487 93.6271H28.6626ZM37.7729 100H40.0868V94.228C40.0868 92.9815 41.0265 92.0994 42.2985 92.0994C42.6884 92.0994 43.1742 92.1697 43.3723 92.2337V90.1051C43.1614 90.0668 42.7971 90.0412 42.5414 90.0412C41.4164 90.0412 40.4767 90.6804 40.1188 91.8182H40.0165V90.1818H37.7729V100ZM48.788 100.192C51.6644 100.192 53.4925 98.1655 53.4925 95.1293C53.4925 92.0866 51.6644 90.054 48.788 90.054C45.9116 90.054 44.0835 92.0866 44.0835 95.1293C44.0835 98.1655 45.9116 100.192 48.788 100.192ZM48.8008 98.3381C47.2092 98.3381 46.4293 96.919 46.4293 95.1229C46.4293 93.3267 47.2092 91.8885 48.8008 91.8885C50.3668 91.8885 51.1467 93.3267 51.1467 95.1229C51.1467 96.919 50.3668 98.3381 48.8008 98.3381ZM59.1 100.173C60.7875 100.173 61.5481 99.169 61.9125 98.4531H62.0531V100H64.3287V86.9091H62.0083V91.8054H61.9125C61.5609 91.0959 60.8386 90.054 59.1064 90.054C56.8372 90.054 55.0538 91.831 55.0538 95.1037C55.0538 98.3381 56.786 100.173 59.1 100.173ZM59.7456 98.2741C58.2179 98.2741 57.4125 96.9318 57.4125 95.0909C57.4125 93.2628 58.2051 91.9524 59.7456 91.9524C61.2349 91.9524 62.0531 93.1861 62.0531 95.0909C62.0531 96.9957 61.2221 98.2741 59.7456 98.2741ZM73.0522 95.8707C73.0522 97.3665 71.9847 98.108 70.962 98.108C69.8498 98.108 69.1083 97.3217 69.1083 96.0753V90.1818H66.7944V96.4332C66.7944 98.7919 68.1367 100.128 70.0671 100.128C71.5373 100.128 72.5728 99.3544 73.0202 98.255H73.1225V100H75.3661V90.1818H73.0522V95.8707ZM82.0282 100.192C84.4956 100.192 86.068 98.728 86.2342 96.6442H84.0226C83.8244 97.6989 83.0637 98.3061 82.0474 98.3061C80.6028 98.3061 79.6696 97.098 79.6696 95.0909C79.6696 93.1094 80.622 91.9205 82.0474 91.9205C83.1596 91.9205 83.8436 92.6364 84.0226 93.5824H86.2342C86.0744 91.4538 84.4125 90.054 82.0154 90.054C79.139 90.054 77.3237 92.1314 77.3237 95.1293C77.3237 98.1016 79.0943 100.192 82.0282 100.192ZM93.0369 90.1818H91.1001V87.8295H88.7862V90.1818H87.3928V91.9716H88.7862V97.4304C88.7734 99.2777 90.1158 100.185 91.8544 100.134C92.5128 100.115 92.9666 99.9872 93.2159 99.9041L92.826 98.0952C92.6982 98.1271 92.4361 98.1847 92.1484 98.1847C91.5668 98.1847 91.1001 97.9801 91.1001 97.0469V91.9716H93.0369V90.1818ZM102.591 92.777C102.272 91.1151 100.942 90.054 98.6412 90.054C96.2761 90.054 94.6653 91.2173 94.6717 93.0327C94.6653 94.4645 95.5474 95.4105 97.4331 95.8004L99.1078 96.152C100.009 96.3501 100.431 96.7145 100.431 97.2706C100.431 97.9418 99.7022 98.4467 98.6028 98.4467C97.5417 98.4467 96.8514 97.9865 96.6532 97.1044L94.3968 97.3217C94.6845 99.1243 96.1994 100.192 98.6092 100.192C101.064 100.192 102.796 98.9197 102.802 97.0597C102.796 95.6598 101.895 94.8033 100.041 94.4006L98.3663 94.0426C97.3691 93.8189 96.9728 93.4737 96.9792 92.9048C96.9728 92.2401 97.7079 91.7798 98.6731 91.7798C99.7406 91.7798 100.303 92.3615 100.482 93.0071L102.591 92.777ZM26.2912 122H28.6626V117.577H31.1683C34.1918 117.577 35.8153 115.761 35.8153 113.243C35.8153 110.744 34.2109 108.909 31.2003 108.909H26.2912V122ZM28.6626 115.627V110.891H30.8359C32.6129 110.891 33.3991 111.849 33.3991 113.243C33.3991 114.636 32.6129 115.627 30.8487 115.627H28.6626ZM41.9789 122.192C44.2672 122.192 45.8397 121.073 46.2488 119.366L44.0882 119.124C43.775 119.955 43.008 120.389 42.0108 120.389C40.5151 120.389 39.5243 119.405 39.5051 117.724H46.3446V117.014C46.3446 113.569 44.2736 112.054 41.8574 112.054C39.0449 112.054 37.2104 114.119 37.2104 117.148C37.2104 120.229 39.0194 122.192 41.9789 122.192ZM39.5115 116.164C39.5819 114.911 40.5087 113.857 41.8894 113.857C43.2189 113.857 44.1138 114.828 44.1266 116.164H39.5115ZM52.5849 122.192C55.4613 122.192 57.2894 120.165 57.2894 117.129C57.2894 114.087 55.4613 112.054 52.5849 112.054C49.7085 112.054 47.8803 114.087 47.8803 117.129C47.8803 120.165 49.7085 122.192 52.5849 122.192ZM52.5977 120.338C51.006 120.338 50.2262 118.919 50.2262 117.123C50.2262 115.327 51.006 113.888 52.5977 113.888C54.1637 113.888 54.9435 115.327 54.9435 117.123C54.9435 118.919 54.1637 120.338 52.5977 120.338ZM59.2534 125.682H61.5673V120.453H61.6632C62.0275 121.169 62.7882 122.173 64.4757 122.173C66.7896 122.173 68.5218 120.338 68.5218 117.104C68.5218 113.831 66.7385 112.054 64.4693 112.054C62.737 112.054 62.0147 113.096 61.6632 113.805H61.5289V112.182H59.2534V125.682ZM61.5225 117.091C61.5225 115.186 62.3407 113.952 63.8301 113.952C65.3706 113.952 66.1632 115.263 66.1632 117.091C66.1632 118.932 65.3578 120.274 63.8301 120.274C62.3535 120.274 61.5225 118.996 61.5225 117.091ZM72.8173 108.909H70.5034V122H72.8173V108.909ZM79.5433 122.192C81.8317 122.192 83.4041 121.073 83.8132 119.366L81.6527 119.124C81.3395 119.955 80.5724 120.389 79.5753 120.389C78.0795 120.389 77.0888 119.405 77.0696 117.724H83.9091V117.014C83.9091 113.569 81.8381 112.054 79.4219 112.054C76.6094 112.054 74.7749 114.119 74.7749 117.148C74.7749 120.229 76.5838 122.192 79.5433 122.192ZM77.076 116.164C77.1463 114.911 78.0732 113.857 79.4538 113.857C80.7834 113.857 81.6783 114.828 81.6911 116.164H77.076Z" fill="#56CEC2"/>
<path d="M117.291 145H125.428V143.012H119.663V131.909H117.291V145ZM131.667 145.192C134.543 145.192 136.371 143.165 136.371 140.129C136.371 137.087 134.543 135.054 131.667 135.054C128.79 135.054 126.962 137.087 126.962 140.129C126.962 143.165 128.79 145.192 131.667 145.192ZM131.68 143.338C130.088 143.338 129.308 141.919 129.308 140.123C129.308 138.327 130.088 136.888 131.68 136.888C133.246 136.888 134.026 138.327 134.026 140.123C134.026 141.919 133.246 143.338 131.68 143.338ZM146.771 135.182H144.31L142.048 142.475H141.945L139.689 135.182H137.222L140.718 145H143.275L146.771 135.182ZM152.385 145.192C154.673 145.192 156.246 144.073 156.655 142.366L154.494 142.124C154.181 142.955 153.414 143.389 152.417 143.389C150.921 143.389 149.931 142.405 149.911 140.724H156.751V140.014C156.751 136.569 154.68 135.054 152.264 135.054C149.451 135.054 147.617 137.119 147.617 140.148C147.617 143.229 149.426 145.192 152.385 145.192ZM149.918 139.164C149.988 137.911 150.915 136.857 152.296 136.857C153.625 136.857 154.52 137.828 154.533 139.164H149.918Z" fill="#56CEC2"/>
<line x1="66.5" y1="169.5" x2="114.5" y2="169.5" stroke="#56CEC2" stroke-width="13" stroke-linecap="round"/>
<path d="M69.1208 172.115C69.9773 172.115 70.4248 171.655 70.5782 171.335H70.6165V172H71.3708V168.766C71.3708 167.206 70.1819 167.027 69.5554 167.027C68.814 167.027 67.9702 167.283 67.5867 168.178L68.3026 168.433C68.4688 168.075 68.8619 167.692 69.581 167.692C70.2745 167.692 70.6165 168.059 70.6165 168.689V168.714C70.6165 169.079 70.2458 169.047 69.3509 169.162C68.44 169.28 67.4461 169.482 67.4461 170.607C67.4461 171.565 68.1875 172.115 69.1208 172.115ZM69.2358 171.438C68.635 171.438 68.2003 171.169 68.2003 170.645C68.2003 170.07 68.7245 169.891 69.3125 169.814C69.6321 169.776 70.4887 169.686 70.6165 169.533V170.223C70.6165 170.837 70.1307 171.438 69.2358 171.438ZM76.2247 168.19C75.9882 167.494 75.4577 167.027 74.4861 167.027C73.4506 167.027 72.6835 167.615 72.6835 168.446C72.6835 169.124 73.0862 169.577 73.9875 169.788L74.8057 169.98C75.3011 170.095 75.5344 170.332 75.5344 170.67C75.5344 171.092 75.087 171.438 74.3838 171.438C73.767 171.438 73.3803 171.172 73.246 170.645L72.5301 170.824C72.7059 171.658 73.3931 172.102 74.3966 172.102C75.5376 172.102 76.3142 171.479 76.3142 170.632C76.3142 169.948 75.886 169.517 75.0103 169.303L74.2816 169.124C73.6999 168.98 73.4378 168.785 73.4378 168.408C73.4378 167.986 73.8853 167.679 74.4861 167.679C75.1445 167.679 75.4161 168.043 75.5472 168.382L76.2247 168.19ZM78.2039 169.047C78.2039 168.19 78.7504 167.705 79.4951 167.705C80.2046 167.705 80.6329 168.152 80.6329 168.932V172H81.3871V168.881C81.3871 167.618 80.716 167.027 79.7124 167.027C78.939 167.027 78.4979 167.35 78.2678 167.858H78.2039V165.455H77.4496V172H78.2039V169.047ZM83.5213 165.455H82.767V172H83.5213V165.455ZM85.3885 173.828C86.0693 173.828 86.5519 173.467 86.8331 172.716L88.9233 167.104L88.0988 167.091L86.7437 171.003H86.6925L85.3374 167.091H84.5192L86.3346 172.026L86.1939 172.409C85.9255 173.144 85.5803 173.214 85.0306 173.074L84.8388 173.739C84.9155 173.777 85.1329 173.828 85.3885 173.828ZM90.6756 169.047C90.6756 168.19 91.2061 167.705 91.9284 167.705C92.6283 167.705 93.0534 168.162 93.0534 168.932V172H93.8077V168.881C93.8077 167.628 93.1397 167.027 92.1457 167.027C91.4043 167.027 90.944 167.359 90.7139 167.858H90.65V167.091H89.9213V172H90.6756V169.047ZM95.7357 172.051C96.0521 172.051 96.3109 171.792 96.3109 171.476C96.3109 171.159 96.0521 170.901 95.7357 170.901C95.4193 170.901 95.1604 171.159 95.1604 171.476C95.1604 171.792 95.4193 172.051 95.7357 172.051ZM99.1091 172.115C99.9656 172.115 100.413 171.655 100.566 171.335H100.605V172H101.359V168.766C101.359 167.206 100.17 167.027 99.5437 167.027C98.8022 167.027 97.9585 167.283 97.575 168.178L98.2909 168.433C98.4571 168.075 98.8502 167.692 99.5693 167.692C100.263 167.692 100.605 168.059 100.605 168.689V168.714C100.605 169.079 100.234 169.047 99.3392 169.162C98.4283 169.28 97.4343 169.482 97.4343 170.607C97.4343 171.565 98.1758 172.115 99.1091 172.115ZM99.2241 171.438C98.6233 171.438 98.1886 171.169 98.1886 170.645C98.1886 170.07 98.7128 169.891 99.3008 169.814C99.6204 169.776 100.477 169.686 100.605 169.533V170.223C100.605 170.837 100.119 171.438 99.2241 171.438ZM102.736 173.841H103.49V171.246H103.554C103.72 171.514 104.04 172.102 104.986 172.102C106.213 172.102 107.07 171.118 107.07 169.558C107.07 168.011 106.213 167.027 104.973 167.027C104.014 167.027 103.72 167.615 103.554 167.871H103.464V167.091H102.736V173.841ZM103.477 169.545C103.477 168.446 103.963 167.705 104.883 167.705C105.842 167.705 106.315 168.51 106.315 169.545C106.315 170.594 105.83 171.425 104.883 171.425C103.976 171.425 103.477 170.658 103.477 169.545ZM108.22 173.841H108.974V171.246H109.038C109.205 171.514 109.524 172.102 110.47 172.102C111.697 172.102 112.554 171.118 112.554 169.558C112.554 168.011 111.697 167.027 110.457 167.027C109.499 167.027 109.205 167.615 109.038 167.871H108.949V167.091H108.22V173.841ZM108.962 169.545C108.962 168.446 109.447 167.705 110.368 167.705C111.327 167.705 111.8 168.51 111.8 169.545C111.8 170.594 111.314 171.425 110.368 171.425C109.46 171.425 108.962 170.658 108.962 169.545Z" fill="#F6F8FA"/>
<line opacity="0.8" x1="87" y1="73" x2="155" y2="73" stroke="#D4DAE1" stroke-width="10" stroke-linecap="round"/>
<line opacity="0.8" x1="123" y1="95" x2="155" y2="95" stroke="#D4DAE1" stroke-width="10" stroke-linecap="round"/>
<line opacity="0.8" x1="101" y1="117" x2="155" y2="117" stroke="#D4DAE1" stroke-width="10" stroke-linecap="round"/>
<path opacity="0.8" d="M30 139C29.4477 139 29 139.448 29 140C29 140.552 29.4477 141 30 141L30 139ZM104.707 140.707C105.098 140.317 105.098 139.683 104.707 139.293L98.3431 132.929C97.9526 132.538 97.3195 132.538 96.9289 132.929C96.5384 133.319 96.5384 133.953 96.9289 134.343L102.586 140L96.9289 145.657C96.5384 146.047 96.5384 146.681 96.9289 147.071C97.3195 147.462 97.9526 147.462 98.3431 147.071L104.707 140.707ZM30 141L104 141L104 139L30 139L30 141Z" fill="#D4DAE1"/>
</svg>
